<svg viewBox="104 148 25 20" version="1.1" xmlns="http://www.w3.org/2000/svg">
    <g id="layer1">
        <path style="fill:#ff2f00;stroke:none;fill-opacity:1" d="m122.8789,153.25398c-0.0268,-0.14993 0.004,-0.0498 -0.0366,-0.08 -0.006,-0.004 0.002,-0.0139 0.003,-0.0206 0.0103,-0.0381 0.0122,-0.0424 0.0354,-0.0777 0.019,-0.0289 0.0338,-0.046 0.0605,-0.0685 0.1008,-0.0849 0.0821,-0.0787 0.16105,-0.11651 0.0384,-0.0184 0.0864,-0.0466 0.13022,-0.0377 0.0477,0.01 0.0832,0.0437 0.12565,0.064 0.0104,0.005 0.0223,0.006 0.0331,0.0103 0.0255,0.01 0.0502,0.0214 0.0754,0.032 0.0326,0.0137 -0.0123,-0.002 0.0525,0.0263 0.008,0.004 0.0167,0.005 0.0251,0.008 0.009,0.003 0.0185,0.006 0.0274,0.0103 0.0101,0.004 0.0194,0.0107 0.0297,0.0148 0.0588,0.0241 0.1241,0.0318 0.18733,0.0308 0.0618,-0.001 0.12181,-0.0241 0.18048,-0.0411 0.0342,-0.01 0.0679,-0.0165 0.1028,-0.0228 0.0228,-0.004 0.0445,-0.0138 0.0674,-0.0172 0.0692,-0.0102 0.15643,-0.008 0.22274,0.0172 0.0197,0.007 0.0442,0.0194 0.0605,0.0331 0.0261,0.022 0.0487,0.0497 0.0765,0.0697 0.0274,0.0197 0.0659,0.0263 0.0971,0.0377 0.0598,0.022 0.14758,0.042 0.21132,0.0354 0.0316,-0.003 0.0903,-0.0258 0.11765,-0.0343 0.0635,-0.0196 0.12593,-0.04 0.19076,-0.0548 0.0517,-0.0118 0.12074,-0.0356 0.17476,-0.0171 0.0689,0.0236 0.0889,0.0488 0.1405,0.0925 0.059,0.0501 -0.0222,-0.0215 0.0457,0.0331 0.0268,0.0216 0.0492,0.0501 0.0777,0.0697 0.0283,0.0194 0.0331,0.0183 0.0617,0.0331 0.0206,0.0107 0.0393,0.0249 0.0605,0.0343 0.0277,0.0122 0.056,0.023 0.0845,0.0331 0.0345,0.0123 0.0697,0.01 0.10509,0.016 0.0568,0.0102 0.007,0.004 0.0537,0.0103 0.0231,0.003 0.0465,0.004 0.0697,0.007 0.0115,0.002 0.0227,0.006 0.0343,0.007 0.0188,0.002 0.0324,-0.003 0.0514,0.002 0.006,0.002 0.0102,0.008 0.016,0.0103 0.005,0.002 0.0108,0.003 0.016,0.005 0.0159,0.006 0.0297,0.0169 0.0457,0.0228 0.0225,0.008 0.0628,0.004 0.0834,0.016 0.0481,0.0277 0.0733,0.0615 0.11423,0.0982 0.0299,0.0269 0.0952,0.0615 0.13364,0.072 0.0429,0.0116 0.0848,0.005 0.12793,0.002 0.0523,-0.003 0.10789,0.0105 0.15649,0.0285 0.0156,0.006 0.0584,0.0216 0.0731,0.0331 0.007,0.005 0.01,0.0139 0.016,0.0194 0.0126,0.0109 0.031,0.0207 0.0411,0.0343 0.01,0.0133 7.9e-4,0.0143 0.0148,0.0274 0.008,0.008 0.0186,0.0126 0.0274,0.0194 0.008,0.006 0.0131,0.0162 0.0217,0.0217 0.024,0.0152 0.0502,0.0269 0.0743,0.0423 0.006,0.004 0.0364,0.0265 0.0446,0.0286 0.027,0.007 0.0603,0.002 0.0685,0.0365 0.006,0.0267 -0.009,0.0459 -0.0137,0.0708 -0.0121,0.0639 0.004,-8e-4 -0.007,0.0525 -0.006,0.0303 -0.0178,0.0628 -0.032,0.0902 -0.0125,0.0243 -0.0298,0.0459 -0.0434,0.0697 -0.0132,0.0231 -0.0216,0.0483 -0.0331,0.072 -0.0114,0.0233 -0.0155,0.0204 -0.0286,0.0445 -0.0263,0.0489 0.0113,-0.007 -0.0194,0.0388 -0.0217,0.0322 -0.0474,0.0801 -0.0822,0.1028 -0.0558,0.0363 -0.13367,0.0675 -0.19875,0.0788 -0.0331,0.006 -0.0665,0.008 -0.0994,0.016 -0.0182,0.004 -0.0761,0.0256 -0.0845,0.0286 -0.027,0.01 -0.0545,0.0179 -0.0811,0.0286 -0.024,0.01 -0.0464,0.0228 -0.0697,0.0343 -0.0127,0.006 -0.0247,0.0139 -0.0377,0.0194 -0.14467,0.0612 -0.0222,0.005 -0.13935,0.0514 -0.0182,0.007 -0.0356,0.0164 -0.0537,0.024 -0.0592,0.0248 -0.11881,0.0487 -0.17819,0.0731 -0.0413,0.017 -0.082,0.0376 -0.12565,0.048 -0.1157,0.0276 -0.10846,0.0248 -0.20332,0.04 -0.0354,0.006 -0.0705,0.0136 -0.10623,0.016 -0.0407,0.003 -0.0815,0.004 -0.12222,0.006 -0.0302,0.002 -0.0844,0.005 -0.11651,0.005 -0.078,-0.002 -0.13457,-0.0114 -0.21817,-0.0205 -0.0587,-0.006 -0.11618,-0.0131 -0.17362,-0.0274 -0.0205,-0.005 -0.12621,-0.0347 -0.15421,-0.0423 -0.0259,-0.007 -0.0522,-0.0122 -0.0777,-0.0206 -0.034,-0.0111 -0.0679,-0.0229 -0.10052,-0.0377 -0.0605,-0.0274 -0.11782,-0.0614 -0.17819,-0.0891 -0.0802,-0.0367 -0.16445,-0.0679 -0.23988,-0.11422 -0.0156,-0.01 -0.0299,-0.0211 -0.0446,-0.032 -0.31669,-0.23512 0.003,0.003 -0.14506,-0.11194 -0.0435,-0.0339 -0.0903,-0.0636 -0.13707,-0.0925 -0.0243,-0.015 -0.0591,-0.036 -0.0857,-0.0468 -0.027,-0.011 -0.0555,-0.0181 -0.0822,-0.0297 -0.0312,-0.0136 -0.0615,-0.0293 -0.0914,-0.0457 -0.0419,-0.0229 -0.079,-0.052 -0.12223,-0.0731 -0.0381,-0.0186 -0.0846,-0.0332 -0.12107,-0.056 -0.0174,-0.0109 -0.0335,-0.0236 -0.0503,-0.0354 -0.0128,-0.009 -0.0273,-0.0157 -0.0388,-0.0263 -0.004,-0.003 -0.005,-0.009 -0.008,-0.0126 -0.0157,-0.0173 -0.0363,-0.0297 -0.0514,-0.048 -0.0402,-0.0488 0.002,2.4e-4 -0.0423,-0.0594 -0.002,-0.003 -0.006,-0.004 -0.008,-0.007 -0.0224,-0.0291 -0.0438,-0.0608 -0.0583,-0.0948 -0.014,-0.033 -0.0169,-0.0701 -0.0297,-0.10394 -0.008,-0.0207 -0.0187,-0.0388 -0.024,-0.0605 -0.005,-0.0197 -0.006,-0.0413 -0.0126,-0.0605 -0.005,-0.0141 -0.0116,-0.03 -0.0183,-0.0434 -0.003,-0.006 -0.008,-0.0102 -0.0103,-0.016 -0.005,-0.0129 -0.008,-0.0269 -0.0126,-0.04 -0.005,-0.0131 -0.017,-0.0248 -0.0206,-0.0366 -0.005,-0.0177 0.009,-0.0465 0.006,-0.0708 -2.7e-4,-0.002 7.9e-4,-0.006 -0.008,-0.002 -0.005,-0.005 -0.007,-0.005 -0.0103,-0.007 -0.005,-0.003 -0.007,-0.009 -0.0103,-0.0137 -0.0195,-0.0268 -0.0104,-0.0235 -0.0251,-0.0834z" />
        <path style="fill:#b6bcc6;fill-opacity:1;stroke:#8b8c8b;stroke-width:0.264583px;" d="m109.20535,153.13852c-0.95898,-0.0508 -0.51604,1.23977 -1.07481,1.71315 -0.54105,0.65079 -0.47723,1.89582 -1.54323,2.00814 -1.32587,-0.0327 -1.06303,1.99997 -2.21115,1.86105 -1.48574,-0.30332 0.62149,-1.44389 -0.0985,-2.00267 0.17378,-0.81203 0.82363,-1.58398 1.26338,-2.27755 0.82895,0.35924 1.57221,-0.25141 1.96921,-0.98459 0.0107,-0.78727 0.43318,-1.68721 1.13733,-1.80965 1.7155,-0.55728 3.53417,-0.40034 5.29475,-0.67194 1.43423,-0.069 2.85689,-0.25064 4.28562,-0.37838 1.10223,0.10815 2.14444,-0.25595 3.26134,-0.43866 -0.20892,-0.31515 0.28186,-1.52955 0.4728,-2.16348 -0.0165,0.39941 0.13818,1.92433 0.1106,1.64597 0.15622,-0.10944 0.78543,-1.86438 0.97466,-2.20098 0.0189,0.88167 0.0147,2.0244 0.27359,2.46118 1.4232,0.60208 3.01843,0.68177 4.4622,1.24879 0.3088,0.1243 0.62405,-0.12989 0.64934,0.46741 -0.0295,0.0301 -0.39922,0.64172 -0.25451,0.38811 -0.29635,0.60176 -0.29405,2.39749 -1.07003,1.21923 -0.3809,-0.5657 -0.74281,-0.38861 -0.44655,0.21425 -0.29739,-0.95012 -1.33659,-0.93578 -0.85488,-0.55964 -0.0992,-0.56167 -1.33432,-1.286 -0.66259,-0.29451 0.10524,0.0803 -1.1826,-1.42603 -0.65792,-0.26509 0.34106,0.85032 -0.97943,-0.55721 -1.01198,-0.11205 -0.24239,0.5662 0.29725,2.00481 0.34772,0.7081 0.0457,0.45319 0.18862,1.31959 0.78353,0.80401 0.024,1.0264 0.77001,-0.12691 0.99235,0.30224 0.12923,0.55103 0.67785,-0.4532 0.94723,0.17281 0.26082,-0.11725 1.01355,-0.12815 0.60995,0.2764 0.65735,1.41947 -1.77576,0.64511 -2.55166,0.8592 -0.84682,-0.0507 -1.88481,0.3904 -2.56278,0.18808 -0.13985,0.94757 0.05,1.97828 -0.10494,2.95539 -0.0887,1.04923 -0.20329,2.13551 -0.36171,3.14781 0.34341,0.58411 1.34753,1.00862 0.1569,0.75611 -0.27443,-0.0575 -0.54884,-0.18456 -0.87759,-0.24909 -0.12033,0.8309 -0.14033,0.69659 -0.83254,0.45665 -1.25763,0.12936 -0.68253,-1.0116 -0.69353,-1.77565 0.21217,-1.31154 0.34764,-3.06216 -0.38516,-3.62791 -0.7328,-0.56575 -2.32123,0.005 -3.50304,-0.25218 -1.01323,-0.36835 -1.89311,0.49642 -2.88033,0.21523 -0.47221,0.59075 -1.30153,1.99736 -0.37848,2.46001 1.1675,0.21133 0.98884,1.53484 -0.0293,1.80563 -0.15649,0.05 -0.31798,0.12267 -0.48113,0.13577 -0.10631,-0.14724 -1.06439,-0.89076 -1.07738,-0.36214 0.96242,0.29339 -0.0617,0.91028 -0.62173,0.66684 -1.17097,-0.27613 -0.56256,-1.67675 -0.74491,-2.55942 -0.14321,-0.87673 0.01,-1.776 -0.16641,-2.64173 -0.5464,-0.61343 -1.373,-1.24896 -0.71732,-2.15559" />
        <path style="fill:none;fill-opacity:1;stroke:#8b8c8b;stroke-width:0.3px;" d="m120.83131,162.06564c-0.60615,-0.48165 -0.39073,-1.19608 -0.53066,-1.80378 0.23711,-0.72222 -0.0501,-1.41356 0.0895,-2.19703 0.0103,-0.20016 0.0526,-0.71062 0.0302,-0.77127" />
        <path style="fill:#00bc00;fill-opacity:1;stroke:#8b8c8b;stroke-width:0.3px;" d="m110.816,161.27333c0.23658,-1.33412 0.5021,-2.61285 0.60798,-3.94221 -0.0131,-0.0228 0.12007,-0.79606 0.11157,-0.45326" />
        <path style="fill:#c9d802;stroke:#000000;stroke-width:0.264583px;fill-opacity:1" d="m122.5067,150.4505c-0.0199,-0.007 -0.039,-0.0177 -0.0598,-0.0218 -0.0561,-0.011 -0.11958,0.009 -0.1672,0.038 -0.0993,0.0599 -0.15912,0.16515 -0.19788,0.27137 -0.0453,0.12401 -0.067,0.25901 -0.0606,0.39091 0.005,0.0952 0.0429,0.18519 0.0929,0.26492 0.0143,0.0229 0.0323,0.0434 0.0509,0.063 0.0201,0.0212 0.0401,0.0432 0.0646,0.059 0.15765,0.10107 0.3484,0.13808 0.53146,0.0985 0.0822,-0.0178 0.1502,-0.0523 0.22212,-0.0969 0.0398,-0.0247 0.13036,-0.0968 0.15427,-0.13973 0.13422,-0.24108 0.16997,-0.4711 0.12438,-0.74062 -0.0117,-0.0689 -0.0307,-0.12137 -0.0735,-0.17607 -0.017,-0.0217 -0.0352,-0.0441 -0.059,-0.0582 -0.16066,-0.0953 -0.35666,-0.0995 -0.53631,-0.0751 -0.14419,0.0196 -0.30014,0.0587 -0.43373,0.11065 -0.0552,0.0215 -0.11139,0.0458 -0.1567,0.084 -0.26639,0.22461 -0.0935,0.21564 -0.23527,0.21564" />
        <path style="fill:none;stroke:#000000;stroke-width:0.264583px;" d="m122.88147,150.9724c-0.0342,0.005 -0.071,0.001 -0.10258,0.0152 -0.0943,0.0419 -0.16712,0.10344 -0.17365,0.21484 -0.005,0.0858 0.0558,0.1296 0.12034,0.15911 0.0226,0.0103 0.0388,0.0152 0.0638,0.0129 0.0201,-0.002 0.0597,-0.0184 0.0735,-0.0266 0.0478,-0.0288 0.0954,-0.11922 0.11793,-0.15507 0.0186,-0.0296 0.0774,-0.1107 0.0751,-0.14619 -0.002,-0.0278 -0.0119,-0.0391 -0.0323,-0.0549 -0.0424,-0.0328 -0.0785,-0.0351 -0.14215,-0.0192 -0.0338,0.008 -0.0556,0.0524 -0.0905,0.0524 -0.0174,0 0,-0.0349 0,-0.0524" />
        <path style="fill:none;stroke:#8b8c8b;stroke-width:0.1px;" d="m112.09472,153.55349c-0.004,-0.0312 -0.0124,-0.0622 -0.0126,-0.0937 -2e-4,-0.0352 0.009,-0.0699 0.0114,-0.10508 0.005,-0.0768 0.01,-0.15376 0.0126,-0.23072 0.008,-0.20742 -0.001,-0.43727 0.0503,-0.6385" />
        <path style="fill:none;stroke:#8b8c8b;stroke-width:0.1px;" d="m113.31693,152.30621c0.36131,0.82531 0.34953,1.08892 0.34953,0.71028" />
        <path style="fill:none;stroke:#8b8c8b;stroke-width:0.1px;" d="m114.42264,151.96811c0.022,0.2767 0.0131,0.14381 0.0274,0.39863" />
        <path style="fill:none;stroke:#8b8c8b;stroke-width:0.1px;" d="m115.60373,152.16589c-0.0624,0.60518 -0.0617,0.39783 -0.0617,0.61897" />
        <path style="fill:none;stroke:#8b8c8b;stroke-width:0.1px;" d="m116.1331,152.63288c0.11667,0.13274 -0.0632,0.25267 -0.0439,0.37807 0.002,0.0146 0.0293,0.004 0.0439,0.006" />
        <path style="fill:none;stroke:#8b8c8b;stroke-width:0.1px;" d="m117.7386,153.7865c0.54993,-0.44061 0.54029,-0.20212 0.54029,-0.46993" />
        <path style="fill:none;stroke:#8b8c8b;stroke-width:0.1px;" d="m118.41264,154.52323c0.086,-0.31872 0.8246,-0.99052 0.8246,-0.63349" />
        <path style="fill:none;stroke:#8b8c8b;stroke-width:0.1px;" d="m118.03426,151.76225c-0.11387,-0.36565 -0.0133,0.0852 0.0813,-0.4372 0.005,-0.0267 -0.0542,0 -0.0813,0" />
        <path style="fill:none;stroke:#8b8c8b;stroke-width:0.1px;" d="m119.73184,151.95762c0.58952,-0.40645 0.57455,-0.16351 0.57455,-0.45067" />
        <path style="fill:none;stroke:#8b8c8b;stroke-width:0.1px;" d="m110.31509,152.06653c-0.10026,-0.19753 -0.16581,-0.40993 -0.25701,-0.61127 -0.005,-0.0107 0,0.0235 0,0.0353" />
        <path style="fill:none;stroke:#8b8c8b;stroke-width:0.1px;" d="m109.1043,153.55985c-0.23519,-0.0495 0.04,0.0256 -0.34725,-0.30676 -0.0161,-0.0138 0,0.0423 0,0.0635" />
        <path style="fill:none;stroke:#8b8c8b;stroke-width:0.1px;" d="m109.13155,154.7254c-0.34717,-0.22221 0.14843,0.0587 -0.49215,-0.0822 -0.10851,-0.0239 -0.19843,-0.1 -0.29764,-0.14998" />
        <path style="fill:none;stroke:#8b8c8b;stroke-width:0.1px;" d="m110.43305,155.63688c-0.0393,-0.0107 -0.0904,-0.0619 -0.11796,-0.032 -0.27133,0.29451 -0.006,0.28897 -0.13675,0.28897" />
        <path style="fill:none;stroke:#8b8c8b;stroke-width:0.1px;" d="m112.87488,155.59005c0.48049,0.47582 0.47289,0.69015 0.47289,0.43625" />
        <path style="fill:none;stroke:#8b8c8b;stroke-width:0.1px;" d="m115.57253,155.49605c0.50772,-0.0609 0.34005,-0.14338 0.56057,0" />
        <path style="fill:none;stroke:#8b8c8b;stroke-width:0.1px;" d="m117.50216,155.88045c-0.19954,0.14965 -0.0776,0.0259 -0.19533,0.4132 -0.003,0.009 0,-0.0192 0,-0.0288" />
        <path style="fill:none;stroke:#8b8c8b;stroke-width:0.1px;" d="m113.79938,155.03379c-0.1259,-0.33245 -0.0912,-0.27485 -0.44704,-0.73786 -0.0161,-0.0209 0,0.0528 0,0.0791" />
        <path style="fill:none;stroke:#8b8c8b;stroke-width:0.1px;" d="m119.25209,155.77461c0.41956,0.85003 0.46129,0.52876 0.40466,0.88368" />
        <path style="fill:none;stroke:#8b8c8b;stroke-width:0.1px;" d="m121.70775,154.10665c0.047,-0.0829 0.0841,-0.23378 0.20694,-0.25161 0.0115,-0.002 0,0.0231 0,0.0347" />
        <path style="fill:none;stroke:#8b8c8b;stroke-width:0.1px;" d="m122.31562,154.55769c0.62464,0.0987 0.61339,0.30389 0.61339,0.0627" />
        <path style="fill:none;stroke:#8b8c8b;stroke-width:0.1px;" d="m124.55558,150.83053c0.0451,-0.21584 -0.0292,0.0768 0.23417,-0.3233 0.0252,-0.0383 0.0216,-0.0892 0.0324,-0.13386" />
        <path style="fill:none;stroke:#8b8c8b;stroke-width:0.1px;" d="m125.82006,151.32331c0.5548,-0.28332 0.53115,-0.0724 0.53115,-0.35091" />
        <path style="fill:none;stroke:#8b8c8b;stroke-width:0.1px;" d="m120.87681,157.24773c0.0714,-0.0747 0.11823,-0.18604 0.21431,-0.22421 0.10165,-0.0404 0.3415,-0.0388 0.50155,-0.0388" />
        <path style="fill:none;stroke:#8b8c8b;stroke-width:0.1px;" d="m119.80943,158.19199c-0.2785,0.10077 -0.20462,0.0225 -0.3563,0.31754 -0.003,0.005 0.0122,0 0.0183,0" />
        <path style="fill:none;stroke:#8b8c8b;stroke-width:0.1px;" d="m121.05229,159.63486c0.0191,0.20377 -0.0196,0.0778 0.35181,0.18021" />
        <path style="fill:none;stroke:#8b8c8b;stroke-width:0.1px;" d="m120.61709,155.71606c-0.04,-0.0709 -0.11419,-0.1316 -0.11994,-0.21282 -0.0122,-0.17204 0.0482,-0.34158 0.0685,-0.51285 0.002,-0.0211 0,-0.0425 0,-0.0638" />
        <path style="fill:none;stroke:#8b8c8b;stroke-width:0.1px;" d="m109.92363,158.4627c-0.26081,0.0312 -0.097,-0.0205 -0.31674,0.40662" />
        <path style="fill:none;stroke:#8b8c8b;stroke-width:0.1px;" d="m111.66923,160.23083c-0.2061,0.0211 -0.16058,-0.004 0.10794,0.11194" />
        <path style="fill:none;stroke:#8b8c8b;stroke-width:0.1px;" d="m111.50989,154.62042c-0.28262,-0.24144 -0.22657,-0.13767 -0.35525,-0.61233 -0.006,-0.0207 0.0152,-0.0401 0.0228,-0.0602" />
        <path style="fill:none;stroke:#8b8c8b;stroke-width:0.1px;" d="m105,156.55521c-0.004,-0.0731 -0.0579,-0.16287 -0.0113,-0.2193 0.17791,-0.21536 0.42111,-0.36744 0.63966,-0.54141 0.16243,-0.12928 0.33628,-0.24355 0.5026,-0.36779 0.0911,-0.0681 0.1687,-0.15654 0.26957,-0.20902 0.0203,-0.0106 0,0.0458 0,0.0687" />
        <path style="fill:none;stroke:#8b8c8b;stroke-width:0.1px;" d="m106.79123,155.82423c0.34473,-0.25185 0.45209,-0.73845 0.63167,-1.10323" />
        <path style="fill:none;stroke:#8b8c8b;stroke-width:0.1px;" d="m108.15508,151.95762c-0.007,-0.19468 -0.0559,-0.25435 0.0457,-0.39042 0.0223,-0.0299 0.0543,-0.0511 0.0815,-0.0767" />
        <path style="fill:none;stroke:#8b8c8b;stroke-width:0.1px;" d="m110.47399,153.55985c0.1904,-0.0318 0.34833,-0.16301 0.53444,-0.2051 0.0168,-0.004 0,0.009 0,0.0129" />
        <path style="fill:none;stroke:#8b8c8b;stroke-width:0.1px;" d="m114.58212,154.62042c-0.0853,0.81205 -0.29524,0.62856 0,0.8365" />
        <path style="fill:none;stroke:#8b8c8b;stroke-width:0.1px;" d="m112.20487,151.72486c-0.0359,0.0518 -0.13867,-0.17727 -0.20267,-0.12911 -0.0234,0.0176 0.0199,0.055 0.0299,0.0825" />
        <path style="fill:none;stroke:#8b8c8b;stroke-width:0.1px;" d="m116.59863,151.80158c-0.0145,-0.0576 -0.0545,-0.11439 -0.0434,-0.1727 0.13315,-0.70113 0.13021,-0.1524 0.13021,-0.30557" />
        <path style="fill:none;stroke:#8b8c8b;stroke-width:0.1px;" d="m120.1956,153.13887c0.13402,-0.16638 0.26804,-0.33276 0.40207,-0.49914" />
        <path style="fill:none;stroke:#8b8c8b;stroke-width:0.1px;" d="m118.81346,152.67285c-0.29333,-0.34106 -0.0895,-0.0648 -0.25357,-0.99828" />
        <path style="fill:none;stroke:#8b8c8b;stroke-width:0.1px;" d="m123.82911,154.89901c0.16791,0.0541 0.33582,0.10813 0.50373,0.1622" />
        <path style="fill:none;stroke:#8b8c8b;stroke-width:0.1px;" d="m125.89431,155.16972c-0.0301,0.16295 -0.0602,0.32591 -0.0902,0.48886" />
        <path style="fill:none;stroke:#8b8c8b;stroke-width:0.264583px;" d="m108.33947,154.49167c0.0587,-0.0909 0.32344,-0.29346 0.38125,-0.38533 0.0411,-0.059 0.0917,-0.1116 0.12818,-0.17344 0.0438,-0.087 0.0667,-0.18676 0.13599,-0.25879 0.0778,-0.0976 0.14718,-0.2029 0.19102,-0.32032 0.0249,-0.0516 0.0596,-0.18048 0.0542,-0.23619l-0.0325,-0.001" />
    </g>
</svg>