<svg viewBox="75 145 60 30" version="1.1" xmlns="http://www.w3.org/2000/svg">
  <g id="layer1">
    <path style="fill:none;stroke:#b46500;stroke-width:0.264583px;" d="m 75.736005,158.58491 c -0.099,-0.002 -0.197993,-0.003 -0.296987,-0.005 -0.0396,0.0107 -0.07795,0.0283 -0.118796,0.032 -0.06069,0.005 -0.122062,-0.01 -0.182761,-0.005 -0.03888,0.003 -0.07495,0.0232 -0.109656,0.0411 -0.03879,0.02 -0.07549,0.0439 -0.114226,0.064 -0.0027,0.001 -0.01151,-0.002 -0.0091,0 0.04741,0.0379 0.460814,0.0329 0.520867,0.0137 0.108391,-0.0347 0.198207,-0.15899 0.310694,-0.14163 0.183193,0.0283 0.323284,0.18171 0.488884,0.26499 0.09809,0.0493 0.202034,0.0861 0.301557,0.13249 0.168566,0.0785 0.334221,0.1632 0.502591,0.24215 0.428133,0.20075 0.183105,0.0745 0.612249,0.26956 0.402074,0.18275 0.797907,0.37377 1.215361,0.52085 0.523049,0.18428 1.057624,0.34675 1.594588,0.48429 0.08131,0.0208 0.164841,0.0318 0.246727,0.0503 0.175527,0.0395 0.349387,0.0863 0.525438,0.12336 0.09972,0.021 1.676768,0.32726 1.759072,0.34266 0.873278,0.16341 0.450416,0.0672 1.297604,0.24671 1.240025,0.26275 2.478159,0.53053 3.73289,0.71731 1.661697,0.24736 3.339983,0.39846 5.016785,0.49343 0.231307,0.0131 0.463079,0.0163 0.694492,0.0274 0.816078,0.0392 1.631998,0.0834 2.448994,0.10508 0.222282,0.006 0.444719,7.9e-4 0.667078,0 0.547081,-0.002 1.120095,-0.007 1.663123,-0.0274 0.535353,-0.0129 1.068766,-0.0662 1.603727,-0.0868 0.29534,-0.0114 0.59088,-0.0173 0.88639,-0.0228 0.48273,-0.009 0.96561,-0.008 1.44838,-0.0137 1.89069,-0.0242 -0.76808,0.007 1.11027,-0.0228 0.63714,-0.0103 0.67311,0.0104 1.37528,-0.0457 0.17437,-0.0139 0.34675,-0.0471 0.52087,-0.064 0.65899,-0.0637 0.4647,-0.0211 1.11484,-0.0731 0.16028,-0.0128 0.31956,-0.0363 0.47975,-0.0503 0.1536,-0.0134 0.30778,-0.0195 0.46147,-0.032 0.0995,-0.008 1.31219,-0.11767 1.38441,-0.12335 0.60684,-0.0478 1.21486,-0.0842 1.82304,-0.10966 0.27134,-0.0114 1.42868,-0.0459 1.95097,-0.0914 0.53083,-0.0463 1.05473,-0.13819 1.58088,-0.21931 0.84453,-0.13019 1.68866,-0.26901 2.53124,-0.41119 0.19087,-0.0322 0.38041,-0.0719 0.57113,-0.10508 0.59822,-0.10394 1.19824,-0.1975 1.79562,-0.30612 0.35764,-0.065 0.71248,-0.14461 1.06916,-0.21473 0.0926,-0.0182 0.1858,-0.0335 0.27871,-0.0503 0.25891,-0.0487 0.51839,-0.0945 0.77673,-0.1462 0.16053,-0.0321 0.31934,-0.0724 0.47975,-0.10508 0.39805,-0.0811 0.79942,-0.14546 1.19708,-0.22844 0.64344,-0.13428 1.26799,-0.33469 1.90528,-0.49344 2.10813,-0.52513 0.30823,-0.0803 1.1514,-0.27869 0.19831,-0.0467 0.39711,-0.10458 0.59854,-0.13707 0.15467,-0.025 0.31204,-0.034 0.46604,-0.064 0.10473,-0.0204 0.2873,-0.08 0.37466,-0.12793 0.0784,-0.043 0.13184,-0.14113 0.19646,-0.20103 0.0388,-0.0359 0.0806,-0.0685 0.1188,-0.10508 0.0759,-0.0728 0.10339,-0.0991 0.15078,-0.18275 0.0478,-0.0844 0.0491,-0.18704 0.15992,-0.21474 0.009,-0.002 0.0173,0.0108 0.0228,0.0137 0.0254,0.0133 0.0518,0.0244 0.0777,0.0366" />
    <path style="fill:none;stroke:#b46500;stroke-width:0.264583px;" d="m 75.324792,160.56321 c 0.157313,0.0483 0.253188,0.19683 0.392935,0.27413 0.08526,0.0472 0.177853,0.0798 0.265004,0.12336 0.239713,0.11985 0.411414,0.21856 0.685353,0.28327 0.04593,0.0109 0.485481,0.0434 0.502592,0.0457 0.235244,0.0317 0.47012,0.067 0.70363,0.10965 0.238456,0.0436 0.475184,0.13079 0.708197,0.19646 0.178848,0.0504 0.361106,0.0885 0.539144,0.14163 0.179192,0.0535 0.501637,0.16194 0.694492,0.24215 0.08496,0.0353 0.16419,0.0846 0.251296,0.11422 0.132908,0.0452 0.270555,0.0752 0.406643,0.10965 0.663985,0.1682 1.337469,0.27288 2.01037,0.39749 0.232193,0.043 0.433033,0.0933 0.667079,0.1325 0.402777,0.0675 0.809045,0.11324 1.210788,0.18732 0.133996,0.0247 0.512906,0.10753 0.644234,0.12792 0.469355,0.0729 0.944846,0.0977 1.416397,0.15077 0.517602,0.0583 0.591367,0.0715 1.060011,0.15078 0.391988,0.0663 0.496363,0.0952 0.89096,0.13249 0.270084,0.0255 0.974238,0.0753 1.279327,0.0868 0.466426,0.0176 0.529992,0.002 0.973201,0.0137 0.59001,0.0151 1.181256,0.0471 1.76821,0.10965 0.279826,0.0298 0.561695,0.0744 0.8407,0.10965 0.167371,0.0211 0.335566,0.0357 0.502592,0.0594 0.48024,0.0681 0.954575,0.16996 1.434674,0.23758 0.298911,0.0421 0.672153,0.0771 0.977771,0.1325 0.111993,0.0203 0.222358,0.0487 0.333539,0.0731 0.201035,0.0426 0.400796,0.0918 0.60311,0.12792 0.31003,0.0553 0.557924,0.0717 0.863544,0.10966 0.377264,0.0468 0.752716,0.11919 1.133118,0.13706 0.604578,0.0284 1.214807,0.01 1.818467,-0.0228 0.28823,-0.0155 0.57547,-0.046 0.86355,-0.064 0.37453,-0.0234 0.74906,-0.0478 1.12398,-0.064 0.48224,-0.0208 0.96583,-0.007 1.44838,-0.0183 0.29248,-0.007 0.5847,-0.0251 0.87725,-0.0274 0.92819,-0.007 0.4482,0.003 1.21993,0.0274 0.3502,0.0111 0.70064,0.0129 1.05087,0.0228 0.66575,0.0188 1.33031,0.0562 1.99667,0.0594 0.47765,0.002 0.95795,2.4e-4 1.43467,-0.032 0.38855,-0.0263 0.77649,-0.0613 1.1651,-0.0868 0.32262,-0.0212 0.64585,-0.0318 0.96863,-0.0503 0.54482,-0.0311 1.09115,-0.0448 1.63571,-0.0777 0.49076,-0.0296 0.97981,-0.0865 1.47123,-0.10965 0.14611,-0.007 0.29238,-0.0106 0.43862,-0.0137 0.13553,-0.003 0.27146,0.005 0.40665,-0.005 0.33883,-0.0251 0.67624,-0.0667 1.01432,-0.10052 0.47307,-0.0473 0.94519,-0.10087 1.41639,-0.16448 0.27398,-0.037 0.48798,-0.0753 0.76303,-0.10965 0.21145,-0.0264 0.42423,-0.0424 0.6351,-0.0731 0.23859,-0.0348 0.47459,-0.0858 0.71276,-0.12336 0.47781,-0.0754 0.96621,-0.0901 1.44838,-0.11422 0.3229,-0.0161 0.65624,-0.0357 0.9732,-0.10508 0.38364,-0.084 0.78695,-0.1768 1.16053,-0.30611 0.0917,-0.0317 0.18313,-0.0656 0.26958,-0.10965 0.0647,-0.0329 0.18699,-0.13266 0.24215,-0.16448 0.0314,-0.0181 0.0677,-0.0259 0.10053,-0.0411 0.20868,-0.0967 0.40498,-0.16571 0.63509,-0.18275 0.0478,-0.004 0.11971,-0.0278 0.16448,-0.0228 0.0279,0.003 0.0418,0.0424 0.064,0.0548 0.0248,0.014 0.0861,0.0195 0.10966,0.0228" id="path119" />
    <path style="fill:#ebbac3;stroke:#000000;stroke-width:0.264583px;fill-opacity:1" d="m 117.69191,153.297 c -0.209,-0.49538 -0.39163,-0.89004 -0.72027,-1.34963 -0.17407,-0.24343 1.46658,-2.3884 1.16924,-2.42238 -0.16309,-0.0186 -3.94714,-1.22912 -5.47002,-1.00622 -0.3272,0.0479 -0.67621,1.07679 -0.68675,1.17778 -0.0795,0.005 -0.19548,-0.009 -0.30776,0.0123 -0.0349,0.006 -0.41086,0.19706 -0.42324,0.20353 -0.35376,0.18507 -0.61419,0.37641 -0.924,0.62998 -0.0519,0.0424 -0.88231,0.72422 -1.02739,0.8755 -0.0794,0.0828 -0.34334,0.47285 -0.41031,0.5686 -0.0793,0.11335 -0.1705,0.21908 -0.23908,0.33922 -0.16454,0.28824 -0.33241,0.49737 -0.0452,0.73012 0.0558,0.0452 0.12196,0.0769 0.18739,0.10661 0.37385,0.16993 0.80965,0.075 1.19862,0.0162 0.25962,-0.0393 0.51781,-0.089 0.77862,-0.11953 0.13105,-0.0153 0.43821,-0.0311 0.57184,-0.0388 l 0.68125,1.37761 z" id="path141" />
    <path style="fill:#1c8ac3;stroke:#000000;stroke-width:0.264583px;fill-opacity:1" d="m 110.87488,154.68028 c -0.50997,0.18813 -3.48457,1.36097 -4.76191,1.92891 -0.29005,0.12897 -0.57512,0.26901 -0.85939,0.41029 -0.37765,0.18769 -0.90876,0.4641 -1.32199,0.74271 0.13842,-0.0312 0.29929,0.0401 0.42384,0.10695 0.97217,0.52283 0.96846,0.81296 1.12325,1.7508 2.61773,-0.87261 2.36492,-0.55449 4.70185,-1.9511 0.2802,-0.16746 0.55355,-0.34572 0.78708,-0.48885 -0.1219,0.0479 -0.0348,0.32391 -0.0699,0.40161 -0.43972,0.96397 -0.22608,2.03254 -0.0129,3.01743 l 6.66518,-0.62351 c 0.0459,-0.13123 0.0768,-0.26727 0.1163,-0.40059 0.052,-0.17575 0.0998,-0.35289 0.15831,-0.5266 0.14274,-0.42392 0.23095,-0.53036 0.35539,-0.98858 0.22221,-0.81823 0.27431,-1.12901 0.28431,-1.99331 0.003,-0.231 0.0124,-0.46851 -0.0485,-0.69136 -0.19099,-0.69897 -0.38658,-1.36302 -0.70921,-2.15706 -0.33978,-0.12093 -4.5503,0.88277 -4.82557,0.96431 -0.27295,0.0808 -0.56831,0.13847 -0.86099,0.20578 -0.38619,0.0837 -0.78796,0.16039 -1.14515,0.29217 z" id="path140" />
    <path style="fill:#f0d381;stroke:#000000;stroke-width:0.264583px;fill-opacity:1" d="m 117.49826,147.13043 c -0.32415,-0.0829 -0.64835,-0.16569 -0.97246,-0.24876 -0.85095,-0.21809 -1.7176,-0.43626 -2.59578,-0.51037 -0.27627,-0.0233 -0.55367,-0.0324 -0.83209,-0.0227 -0.91396,0.0318 -2.22837,0.008 -3.12417,0.48136 -0.12131,0.0641 -1.28018,0.62455 0.008,1.27025 0.66046,0.2334 1.2882,0.43496 1.90432,0.6682 0.44475,0.16837 0.87865,0.36472 1.32462,0.52983 0.40081,0.14838 0.80308,0.29551 1.21477,0.41029 0.38243,0.10661 1.08349,0.17463 1.47324,0.20353 0.64308,0.0477 1.14732,0.0508 1.80601,0.0355 0.29859,-0.007 0.72652,-0.0511 1.02093,-0.0905 0.16637,-0.0222 0.33386,-0.0404 0.49754,-0.0775 0.24597,-0.0558 0.58357,-0.18453 0.80447,-0.30691 0.36286,-0.20101 0.61405,-0.35575 0.882,-0.66228 0.0324,-0.037 0.0595,-0.0865 0.0582,-0.13569 -0.007,-0.24238 -0.25038,-0.42747 -0.43616,-0.53305 -0.3708,-0.21075 -0.55139,-0.27851 -0.93047,-0.41676 -0.13822,-0.0504 -0.27614,-0.10211 -0.41677,-0.14538 -0.36239,-0.1115 -0.72191,-0.18781 -1.08877,-0.28429 -0.19987,-0.0526 -0.39847,-0.10985 -0.5977,-0.16477" id="path121" />
    <path style="fill:#f0d381;fill-opacity:1;stroke:none;" d="m 117.33213,148.96623 c 0.0108,-0.0657 0.0253,-0.13087 0.0323,-0.19707 0.0179,-0.17086 0.0141,-0.34415 0.042,-0.51367 0.10255,-0.62378 0.22281,-1.24464 0.34892,-1.86409 0.028,-0.13776 0.29178,-1.05012 0.24878,-1.24056 -0.0903,-0.40032 -0.18516,-0.84342 -0.4717,-1.13719 -0.72471,-0.74301 -2.21544,0.0203 -2.63309,0.55244 -0.59225,0.75461 -0.71293,1.78116 -1.06939,2.67175 z" id="path143" />
    <path style="fill:none;stroke:#000000;stroke-width:0.264583px;" d="m 113.82995,147.23784 c 0.35646,-0.89059 0.47714,-1.91714 1.06939,-2.67175 0.41765,-0.53215 1.90838,-1.29545 2.63309,-0.55244 0.28654,0.29377 0.38139,0.73687 0.4717,1.13719 0.043,0.19044 -0.22073,1.1028 -0.24878,1.24056 -0.12611,0.61945 -0.24637,1.24031 -0.34892,1.86409 -0.0279,0.16952 -0.0241,0.34281 -0.042,0.51367 -0.007,0.0662 -0.0215,0.13138 -0.0323,0.19707" id="path122" />
    <path style="fill:none;stroke:#000000;stroke-width:0.264583px;" d="m 111.00436,157.14008 c 0.46553,-0.31521 0.92208,-0.6446 1.38922,-0.95733 0.31681,-0.21209 0.63546,-0.43983 0.97893,-0.60737" id="path138" />
    <path style="fill:#ebbac3;fill-opacity:1;stroke:#000000;stroke-width:0.264583px;" d="m 104.35539,157.86914 c 0.3532,0.19553 0.7444,0.41023 0.91121,0.80014 0.12264,0.29656 0.15009,0.61986 0.20718,0.93286 -0.81653,0.23825 -1.64583,0.43164 -2.45865,0.68271 -0.11704,-0.0861 -0.16198,-0.24036 -0.23069,-0.36435 -0.0892,-0.20026 -0.1833,-0.40158 -0.23245,-0.61605 0.086,-0.31954 0.32063,-0.57115 0.52631,-0.82178 0.20111,-0.23189 0.39653,-0.48081 0.66867,-0.63352 0.13576,-0.1184 0.32256,-0.15282 0.47868,-0.0478 0.044,0.0212 0.0868,0.0447 0.12974,0.0678 z" id="path135" />
    <path style="fill:#ffffff;stroke:none;fill-opacity:1" d="m 112.29339,151.11386 c 0.0671,0.10523 0.22612,0.21101 0.33923,0.1583 0.56857,-0.26497 0.64965,-0.51361 0.84646,-0.94658 0.0257,-0.0566 0.23244,-0.49597 0.21324,-0.56213 -0.0928,-0.31978 -0.37362,-0.19274 -0.55247,-0.1163 -0.1683,0.0719 -0.33104,0.15759 -0.48785,0.25199 -0.104,0.0626 -0.33811,0.69784 -0.40044,0.78623 0.0181,0.14204 -0.0354,0.3073 0.0418,0.42849 z" id="path142" />
    <path style="fill:none;stroke:#000000;stroke-width:0.264583px;" d="m 112.25789,150.68419 c 0.0118,0.14322 -0.0417,0.30848 0.0355,0.42967 0.0671,0.10523 0.22612,0.21101 0.33923,0.1583 0.56857,-0.26497 0.64965,-0.51361 0.84646,-0.94658 0.0257,-0.0566 0.23244,-0.49597 0.21324,-0.56213 -0.0928,-0.31978 -0.37362,-0.19274 -0.55247,-0.1163 -0.1683,0.0719 -0.33104,0.15759 -0.48785,0.25199 -0.104,0.0626 -0.15102,0.13657 -0.21969,0.22614" id="path129" />
    <path style="fill:none;stroke:#000000;stroke-width:0.264583px;" d="m 111.53419,153.70484 c 0.22893,0.0294 0.20175,-0.0298 0.28108,0.0646 0.0133,0.0159 0.0216,0.0368 0.0388,0.0485 0.0258,0.0175 0.22867,0.0366 0.26169,0.0355 0.26201,-0.008 0.50849,-0.11001 0.7237,-0.25522 0.0734,-0.0495 0.15084,-0.0955 0.21323,-0.1583 0.0992,-0.0999 0.18996,-0.20923 0.26816,-0.3263 0.11521,-0.1725 0.20963,-0.35806 0.31015,-0.53952 0.01,-0.0178 0.0667,-0.18414 0.11631,-0.18414" id="path132" />
    <path style="fill:none;stroke:#000000;stroke-width:0.264583px;" d="m 112.7102,150.64542 c 0.11846,-0.0894 0.23692,-0.17876 0.35539,-0.26815" id="path133" />
    <path style="fill:#a76257;stroke:#b46500;stroke-width:0.264583px;fill-opacity:1" d="m 129.21181,154.11205 c 0.006,0.0289 0.0203,0.0573 0.0183,0.0868 -0.006,0.11888 -0.18111,0.34334 -0.20561,0.37464 -0.19332,0.24679 -0.4012,0.40267 -0.65794,0.58938 -0.16227,0.11801 -0.31972,0.2461 -0.49802,0.3381 -1.50432,0.77628 -3.10585,1.39957 -4.7198,1.9052 -1.86569,0.58449 -3.74784,1.12957 -5.65645,1.55797 -1.27374,0.28589 -2.50206,0.50654 -3.79229,0.70816 -3.27875,0.51237 -3.94374,0.63462 -7.00888,0.91377 -1.43679,0.13085 -3.72167,0.2324 -5.03963,0.2924 -1.2253,0.0558 -2.71116,0.10427 -3.938493,0.13707 -2.195044,0.0586 -3.249562,0.0913 -5.702138,-0.0457 -0.862008,-0.0482 -1.719202,-0.16203 -2.576928,-0.26043 -0.880899,-0.10104 -2.271829,-0.30334 -3.152627,-0.49343 -0.396465,-0.0856 -2.426915,-0.59539 -3.061242,-0.76299 -0.440881,-0.11649 -1.633644,-0.4391 -2.083475,-0.59852 -0.58891,-0.2087 -1.169887,-0.43942 -1.749936,-0.67161 -0.582221,-0.23307 -1.145894,-0.51157 -1.731658,-0.73559 -0.02083,-0.008 -1.067057,-0.38024 -1.283896,-0.44774 -0.02003,-0.006 -0.683425,-0.1867 -0.721905,-0.2056 -0.224398,-0.11011 -0.429487,-0.25585 -0.644231,-0.38378 -0.04575,0.14906 -0.176679,0.42893 -0.146208,0.6305 0.03422,0.22638 0.150369,0.4419 0.219313,0.65791 0.04155,0.1302 0.06917,0.27731 0.09595,0.4112 0.014,0.07 0.03609,0.13896 0.04112,0.21016 0.0057,0.0806 -0.0056,0.16145 -0.0091,0.24215 -0.0056,0.12947 -0.01673,0.25877 -0.01828,0.38835 -0.0015,0.12643 8.49e-4,0.25304 0.0091,0.37921 0.02589,0.39403 0.04902,0.0989 0.03198,0.498 -0.0071,0.1662 -0.01534,0.3325 -0.03198,0.49801 -0.05084,0.50552 -0.04481,0.13742 -0.0731,0.52541 -0.0057,0.0775 -0.0021,0.1556 -0.0091,0.23301 -0.01962,0.21579 -0.06257,0.42889 -0.08681,0.64421 -0.016,0.14215 -0.0806,0.47454 0.0594,0.59394 0.02747,0.0234 0.06383,0.0338 0.09595,0.0503 0.133894,0.0688 0.266086,0.14105 0.402074,0.2056 0.447945,0.21262 0.877232,0.29604 1.370706,0.40205 0.377932,0.0812 0.762329,0.13894 1.142256,0.21017 1.103538,0.2069 2.189036,0.49882 3.285126,0.74015 0.647906,0.14265 0.37674,0.0509 1.005185,0.21473 0.159521,0.0416 0.316162,0.0936 0.475178,0.13707 0.264405,0.0723 0.530944,0.13666 0.79501,0.21016 0.745703,0.20759 0.158532,0.0672 0.877252,0.26043 0.440374,0.11841 1.197255,0.30077 1.603727,0.39292 0.545318,0.12362 1.097882,0.21299 1.644847,0.32895 0.723914,0.15348 1.393834,0.30279 2.129164,0.41577 0.77224,0.11864 1.54396,0.18315 2.321063,0.26042 0.773467,0.0769 1.545845,0.16901 2.321063,0.22844 0.683411,0.0524 1.045218,0.0502 1.786487,0.0868 0.463154,0.0229 0.926306,0.0466 1.388983,0.0777 0.463804,0.0311 0.944166,0.0904 1.407259,0.13249 0.820799,0.0746 1.040117,0.0929 1.786487,0.13707 1.13644,0.0673 2.27516,0.11312 3.41306,0.1462 0.97008,0.0282 0.59183,0.009 1.58545,0.0365 0.89446,0.025 1.78754,0.0817 2.68202,0.10508 0.54876,0.0143 1.59158,0.0206 2.06519,0.0274 3.60998,0.0517 0.21682,0.0114 2.42615,0.0365 0.88,0.01 1.76085,0.0254 2.6409,0.0137 0.57705,-0.008 1.11934,-0.0343 1.69967,-0.0685 0.84102,-0.0496 0.92458,-0.0564 1.65856,-0.13249 0.19657,-0.0204 0.39386,-0.0354 0.5894,-0.064 0.56462,-0.0826 1.12971,-0.16426 1.69054,-0.26956 0.16202,-0.0304 0.31712,-0.0902 0.47518,-0.13706 0.51909,-0.1538 0.91008,-0.2634 1.41639,-0.53912 0.18834,-0.10256 0.68849,-0.53123 0.89096,-0.69447 0.0453,-0.0365 0.6875,-0.54002 0.73105,-0.58481 0.64212,-0.66043 0.53194,-0.60279 0.96863,-1.31582 0.18937,-0.3092 0.38398,-0.61515 0.5757,-0.9229 0.0398,-0.0639 0.0853,-0.12456 0.11879,-0.19189 0.17375,-0.34877 0.33916,-0.70168 0.50259,-1.0554 0.059,-0.12762 0.12133,-0.25456 0.16449,-0.38835 0.12532,-0.38849 0.19156,-0.79432 0.31526,-1.18332 0.0551,-0.1731 0.12881,-0.33976 0.18733,-0.51171 0.0605,-0.17767 0.16445,-0.56752 0.22845,-0.74015 0.0698,-0.18828 0.14742,-0.37368 0.22845,-0.5574 0.27577,-0.62525 0.13856,-0.11358 0.46604,-1.09195 0.0374,-0.11187 0.0481,-0.23103 0.0685,-0.34723 0.0596,-0.33903 0.0588,-0.35925 0.064,-0.72187 0.004,-0.25938 -0.0205,-0.23466 0.0137,-0.49344 0.0593,-0.30835 0.0341,-0.14957 0.0685,-0.42033 0.004,-0.035 0.006,-0.0706 0.0137,-0.10508 0.003,-0.0133 0.0146,-0.0497 0.0183,-0.0366 0.0181,0.0652 0.0183,0.13402 0.0274,0.20103" id="path117" />
    <path id="path126" style="fill:#834b00;fill-opacity:1;stroke:#834b00;stroke-width:0.264583px;" d="m 110.82102,171.30639 c -0.57162,-1.31849 -1.43522,-3.02198 -2.17697,-4.26863 -1.25939,-2.17514 -2.65642,-4.27273 -4.16727,-6.28146 -0.13244,-0.23575 -0.82881,-1.08223 -0.67893,-0.30362 0.12095,-0.47123 -1.74571,-0.63134 -1.57906,-0.47938 1.72099,2.41963 3.18711,5.0072 4.86026,7.45907 1.0262,1.58063 2.02199,3.18913 3.22423,4.64511 -0.0194,-0.0162 -0.0387,-0.0323 -0.024,-0.0837 -0.048,0.34988 0.66984,-0.22999 0.54174,-0.68736 z" />
  </g>
</svg>