<svg viewBox="105 150 18 10" version="1.1" xmlns="http://www.w3.org/2000/svg">
  <g id="layer1">
    <path style="fill:#00bc00;stroke:#00e400;stroke-width:0.264583px;fill-opacity:1" d="m 112.03297,159.23876 c -0.13066,0.0978 -0.29369,0.15161 -0.4569,0.15077 -0.1923,-9.9e-4 -0.37798,-0.0756 -0.54153,-0.17672 -0.16355,-0.10115 -0.30881,-0.2287 -0.45909,-0.34869 -0.3006,-0.24 -0.62303,-0.45092 -0.94122,-0.66705 -0.32273,-0.21922 -0.64311,-0.44543 -0.92294,-0.7173 -0.45175,-0.4389 -0.78644,-0.98675 -1.04174,-1.56254 -0.0607,-0.13687 -0.11759,-0.27712 -0.14164,-0.4249 -0.0403,-0.24773 0.014,-0.50137 0.0914,-0.74015 0.0316,-0.0976 0.0674,-0.1945 0.1188,-0.28327 0.10144,-0.1751 0.26175,-0.31246 0.44319,-0.40206 0.0694,-0.0343 0.14271,-0.0621 0.21931,-0.0731 0.13756,-0.0197 0.27839,0.0163 0.40366,0.0765 0.12527,0.0602 0.2376,0.14366 0.35023,0.22506 0.28364,0.20499 0.58671,0.40498 0.93208,0.46145 0.12403,0.0203 0.25585,0.0204 0.37009,-0.032 0.0923,-0.0423 0.16775,-0.11716 0.21873,-0.20494 0.051,-0.0878 0.0784,-0.18799 0.0882,-0.28902 0.0197,-0.20205 -0.0285,-0.40368 -0.0694,-0.60255 -0.082,-0.39948 -0.13506,-0.81079 -0.08,-1.21486 0.0551,-0.40407 0.22784,-0.80345 0.53686,-1.06956 0.21901,-0.1886 0.49488,-0.30155 0.77674,-0.3655 0.13944,-0.0316 0.2833,-0.0521 0.42539,-0.0361 0.14209,0.016 0.28321,0.0711 0.38333,0.17316 0.0508,0.0518 0.0897,0.11397 0.12336,0.17819 0.13432,0.25633 0.18826,0.54753 0.21017,0.83609 0.0118,0.15517 0.0148,0.31128 0.0385,0.46509 0.0236,0.15381 0.0691,0.30722 0.15799,0.43497 0.0537,0.0772 0.12415,0.14482 0.21018,0.18275 0.0688,0.0303 0.14543,0.0407 0.22042,0.0357 0.075,-0.005 0.14844,-0.025 0.21811,-0.0533 0.13933,-0.0564 0.26307,-0.14449 0.39303,-0.22001 0.0902,-0.0524 0.18366,-0.0989 0.27414,-0.15077 0.21698,-0.12438 0.41739,-0.27996 0.64829,-0.37607 0.11545,-0.0481 0.23846,-0.0807 0.36347,-0.0838 0.12502,-0.003 0.2523,0.0245 0.35895,0.0898 0.15553,0.0952 0.25572,0.26336 0.30416,0.43919 0.0484,0.17582 0.0505,0.36076 0.0477,0.54311 -5.6e-4,0.0359 -0.001,0.0721 0.006,0.10733 0.007,0.0352 0.0223,0.0699 0.0491,0.0937 0.0164,0.0145 0.0365,0.0245 0.0578,0.0296 0.0213,0.005 0.0436,0.005 0.0651,0.001 0.043,-0.008 0.0818,-0.032 0.11278,-0.0629 0.0619,-0.0617 0.0926,-0.14704 0.13447,-0.22376 0.0559,-0.10235 0.13307,-0.19122 0.21018,-0.2787 0.34508,-0.39149 0.7012,-0.77308 1.05087,-1.16048 0.10983,-0.12168 0.21902,-0.24393 0.32897,-0.36551 0.28563,-0.31585 0.58907,-0.63619 0.98234,-0.79954 0.0788,-0.0327 0.16018,-0.0587 0.24216,-0.0822 0.16011,-0.046 0.32622,-0.0832 0.49211,-0.0681 0.0829,0.008 0.16514,0.0285 0.23939,0.0662 0.0742,0.0377 0.14038,0.0927 0.18687,0.1618 0.0791,0.11754 0.0963,0.26699 0.0847,0.40817 -0.0116,0.14118 -0.0493,0.27881 -0.071,0.41879 -0.016,0.10331 -0.0238,0.2096 -0.064,0.30611 -0.0383,0.0919 -0.1039,0.16968 -0.14999,0.25794 -0.0231,0.0441 -0.0413,0.0914 -0.0475,0.14075 -0.006,0.0494 1.7e-4,0.10123 0.0239,0.145 0.0179,0.0329 0.0451,0.0605 0.077,0.0801 0.0319,0.0196 0.0684,0.0314 0.10564,0.0358 0.0744,0.009 0.15007,-0.0119 0.21653,-0.0466 0.1329,-0.0693 0.23085,-0.19046 0.35468,-0.27491 0.13742,-0.0937 0.30191,-0.13903 0.46537,-0.16984 0.16345,-0.0308 0.32981,-0.0488 0.48956,-0.0951 0.21066,-0.0611 0.40736,-0.17084 0.62386,-0.20604 0.10826,-0.0176 0.22145,-0.0156 0.32496,0.0206 0.10351,0.0362 0.19653,0.10918 0.24369,0.2082 0.0283,0.0594 0.0394,0.12597 0.0404,0.19181 0.001,0.0658 -0.008,0.13142 -0.0175,0.19654 -0.0411,0.27356 -0.10099,0.54562 -0.2025,0.80295 -0.1015,0.25733 -0.24589,0.50026 -0.44173,0.69563 -0.13396,0.13363 -0.29236,0.24595 -0.39759,0.4032 -0.0526,0.0786 -0.0909,0.16852 -0.099,0.26278 -0.008,0.0943 0.0161,0.19304 0.0762,0.26606 0.0587,0.0712 0.14484,0.11238 0.22388,0.15991 0.22814,0.13721 0.40945,0.33837 0.58941,0.53455 0.0553,0.0602 0.11098,0.12061 0.15593,0.18888 0.045,0.0683 0.079,0.14546 0.0862,0.22688 0.006,0.0624 -0.005,0.12566 -0.0263,0.18454 -0.0213,0.0589 -0.0533,0.11352 -0.0909,0.16366 -0.0751,0.10027 -0.17138,0.18218 -0.26206,0.26859 -0.17955,0.17108 -0.34043,0.36333 -0.53915,0.51171 -0.19038,0.14216 -0.41044,0.24017 -0.60311,0.37921 -0.072,0.052 -0.13985,0.10942 -0.20561,0.16905 -0.0666,0.0604 -0.13163,0.12364 -0.1826,0.19772 -0.051,0.0741 -0.0875,0.16019 -0.0915,0.25002 -0.003,0.0726 0.0148,0.14479 0.0413,0.21246 0.0265,0.0677 0.0615,0.13165 0.0939,0.19671 0.0324,0.0651 0.0625,0.13195 0.0784,0.20286 0.0159,0.0709 0.017,0.14666 -0.008,0.21493 -0.0252,0.0692 -0.0757,0.12693 -0.13399,0.17197 -0.0583,0.0451 -0.12444,0.0786 -0.19041,0.1113 -0.0708,0.0351 -0.14194,0.0697 -0.21475,0.10051 -0.36,0.15218 -0.75291,0.20793 -1.14225,0.24215 -0.37515,0.033 -0.75227,0.0473 -1.12855,0.032 -0.80155,-0.0326 -1.59692,-0.19913 -2.39873,-0.17361 -0.38752,0.0123 -0.77202,0.0695 -1.15597,0.12336 -0.36228,0.0508 -0.72617,0.0989 -1.09199,0.10051 -0.18167,7.9e-4 -0.36339,-0.01 -0.54372,-0.032" />
    <path style="fill:#00bc00;stroke:#00e400;stroke-width:0.264583px;fill-opacity:1" d="m 112.03297,159.23876 c -0.47167,-0.0906 -0.91713,-0.31387 -1.27197,-0.63755 -0.35484,-0.32368 -0.618,-0.74679 -0.75144,-1.20818 -0.13344,-0.46138 -0.13676,-0.95965 -0.009,-1.42277 0.12728,-0.46312 0.38478,-0.8897 0.73528,-1.21808 0.25111,-0.23526 0.56206,-0.42483 0.90466,-0.45689 0.15399,-0.0144 0.30892,0.003 0.46351,0.008 0.15458,0.005 0.31392,-0.004 0.45487,-0.0676 0.0511,-0.0231 0.0988,-0.053 0.14938,-0.0772 0.0505,-0.0242 0.10527,-0.043 0.16131,-0.0416 0.047,0.001 0.0933,0.0169 0.13259,0.0426 0.0393,0.0258 0.0718,0.0615 0.0957,0.10197 0.0479,0.081 0.0609,0.17884 0.053,0.27256 -0.0158,0.18745 -0.10923,0.36052 -0.13506,0.54685 -0.008,0.0557 -0.009,0.11286 0.003,0.16763 0.0126,0.0548 0.0402,0.10718 0.0834,0.14305 0.0357,0.0296 0.0809,0.0469 0.12695,0.0525 0.0461,0.006 0.0931,-1.2e-4 0.13773,-0.0128 0.0893,-0.0254 0.16804,-0.0777 0.24705,-0.12642 0.17074,-0.10531 0.35178,-0.19812 0.54672,-0.24542 0.19495,-0.0473 0.40583,-0.0466 0.59096,0.0307 0.1016,0.0424 0.1955,0.10897 0.25587,0.20103 0.052,0.0793 0.0771,0.17497 0.0767,0.26982 -4.3e-4,0.0949 -0.0257,0.1888 -0.0677,0.27387 -0.029,0.0589 -0.0662,0.11454 -0.0837,0.17783 -0.009,0.0316 -0.0123,0.0651 -0.007,0.0975 0.005,0.0324 0.0205,0.0636 0.0448,0.0856 0.0227,0.0206 0.0522,0.0323 0.0822,0.0382 0.03,0.006 0.0608,0.007 0.0914,0.007 0.10363,0.003 0.20967,0.0104 0.30462,0.0521 0.0475,0.0208 0.0916,0.0502 0.12623,0.0888 0.0346,0.0386 0.0595,0.0866 0.0672,0.13782 0.0103,0.0686 -0.0103,0.13894 -0.044,0.19959 -0.0337,0.0606 -0.0799,0.11323 -0.12502,0.16592 -0.15878,0.18534 -0.30919,0.37828 -0.47975,0.55283 -0.23454,0.24002 -0.50871,0.44508 -0.81785,0.57567 -0.16274,0.0687 -0.33543,0.11669 -0.51173,0.12792 -0.0536,0.003 -0.10819,0.004 -0.15937,0.0198 -0.0256,0.008 -0.0501,0.0203 -0.0706,0.0376 -0.0205,0.0174 -0.0367,0.0402 -0.0442,0.066 -0.0101,0.0345 -0.004,0.0721 0.009,0.10566 0.013,0.0336 0.0325,0.0641 0.0504,0.0954 0.10328,0.18102 0.15085,0.39334 0.13467,0.60113 -0.0162,0.20778 -0.096,0.41018 -0.22607,0.57304" />
    <path style="fill:#00bc00;stroke:#00e400;stroke-width:0.264583px;fill-opacity:1" d="m 117.36501,157.95949 c -0.64588,-0.2159 -1.19045,-0.71739 -1.45873,-1.34334 -0.26827,-0.62595 -0.25588,-1.36615 0.0332,-1.98276 0.13601,-0.29011 0.33167,-0.55421 0.58108,-0.75535 0.2494,-0.20114 0.55343,-0.33765 0.87187,-0.37315 0.23529,-0.0262 0.47281,0.002 0.7082,0.0274 0.12313,0.0132 0.24641,0.0257 0.37009,0.032 0.01,5.1e-4 0.0199,9.8e-4 0.0295,0.003 0.01,0.002 0.0189,0.007 0.0253,0.0148 0.004,0.005 0.007,0.0114 0.008,0.0179 0.001,0.007 9e-4,0.0133 -5.8e-4,0.0198 -0.003,0.013 -0.0105,0.0245 -0.0195,0.0343 -0.018,0.0196 -0.0422,0.0335 -0.0566,0.0559 -0.009,0.0141 -0.0137,0.0308 -0.0139,0.0476 -2.1e-4,0.0167 0.004,0.0334 0.0113,0.0485 0.0147,0.0301 0.0415,0.053 0.0712,0.0684 0.0609,0.0316 0.13302,0.0339 0.2009,0.0242 0.0679,-0.01 0.1337,-0.0303 0.20117,-0.0426 0.22564,-0.0408 0.45984,0.0161 0.66708,0.11422 0.0562,0.0266 0.11126,0.0564 0.16062,0.0942 0.0494,0.0378 0.0931,0.0841 0.12266,0.13876 0.0311,0.0575 0.0458,0.12276 0.0507,0.18795 0.005,0.0652 3.7e-4,0.13069 -0.005,0.19584 -0.0206,0.25052 -0.0543,0.50302 -0.1462,0.73699 -0.0919,0.23397 -0.24745,0.45015 -0.46605,0.57426 -0.0657,0.0373 -0.13832,0.0675 -0.18774,0.12468 -0.0247,0.0286 -0.0427,0.0639 -0.0461,0.10153 -0.002,0.0188 3.6e-4,0.038 0.007,0.0559 0.006,0.0178 0.0167,0.0343 0.0308,0.0469 0.0215,0.0193 0.0498,0.029 0.0777,0.0365 0.0574,0.0155 0.11663,0.0241 0.17363,0.0411 0.18408,0.0549 0.3312,0.19283 0.4569,0.3381 0.14609,0.16883 0.27732,0.36341 0.30612,0.58481 0.0166,0.12742 -0.002,0.25897 -0.0519,0.37752 -0.0496,0.11855 -0.12944,0.22397 -0.22861,0.30568 -0.19834,0.16342 -0.47105,0.22652 -0.72465,0.18487 -0.0619,-0.0102 -0.12482,-0.0262 -0.18645,-0.0146 -0.0308,0.006 -0.0608,0.0188 -0.0835,0.0405 -0.0227,0.0217 -0.0374,0.0525 -0.0362,0.0838 5.8e-4,0.0155 0.005,0.0307 0.009,0.0457 0.12686,0.46661 0.0203,0.99063 -0.27871,1.37065" />
    <path style="fill:#00bc00;stroke:#00e400;stroke-width:0.264583px;fill-opacity:1" d="m 120.12928,157.22843 c -0.50983,-0.0824 -0.97026,-0.42621 -1.19414,-0.8916 -0.22389,-0.4654 -0.20512,-1.0397 0.0487,-1.48949 0.2538,-0.44978 0.73569,-0.76276 1.24981,-0.81172 0.51413,-0.049 1.04643,0.16743 1.38057,0.56122 0.1282,0.15109 0.22769,0.32482 0.35626,0.4756 0.0643,0.0754 0.1361,0.14513 0.21871,0.19983 0.0826,0.0547 0.1765,0.0941 0.27487,0.10584 0.11755,0.0141 0.23704,-0.0116 0.34725,-0.0548 0.0723,-0.0284 0.14146,-0.0642 0.21017,-0.10051 0.10964,-0.0579 0.2186,-0.11711 0.32897,-0.17362 0.14037,-0.0719 0.28457,-0.13994 0.43863,-0.17362 0.069,-0.0151 0.14045,-0.0231 0.21036,-0.013 0.0699,0.0101 0.13853,0.0395 0.18714,0.0907 0.0381,0.0401 0.0624,0.0919 0.0752,0.14575 0.0128,0.0538 0.0145,0.1097 0.0116,0.16493 -0.003,0.0594 -0.0116,0.11873 -0.009,0.17818 0.004,0.0848 0.0309,0.16889 0.0804,0.23785 0.0494,0.069 0.12142,0.12219 0.2029,0.14593 0.0633,0.0185 0.13048,0.0191 0.19637,0.0156 0.0659,-0.003 0.13174,-0.011 0.19767,-0.008 0.0659,0.003 0.13301,0.0162 0.18881,0.0514 0.0279,0.0176 0.0526,0.0405 0.0709,0.068 0.0182,0.0275 0.0298,0.0596 0.0316,0.0926 0.003,0.0492 -0.0159,0.0969 -0.0365,0.14164 -0.11037,0.23985 -0.28407,0.44479 -0.41121,0.67618 -0.0731,0.13297 -0.13047,0.27419 -0.20566,0.40598 -0.0752,0.13178 -0.17119,0.25647 -0.30151,0.33417 -0.0764,0.0455 -0.16173,0.0733 -0.24525,0.10383 -0.0835,0.0305 -0.16735,0.0649 -0.23632,0.12099 -0.0345,0.0281 -0.0649,0.0615 -0.0872,0.0999 -0.0223,0.0385 -0.0364,0.0821 -0.0379,0.1265 -0.002,0.0444 0.01,0.0896 0.0345,0.12663 0.0246,0.037 0.0629,0.0653 0.10617,0.0755 0.0455,0.0107 0.0931,0.001 0.13984,8.7e-4 0.0234,-3.1e-4 0.0471,0.002 0.0692,0.009 0.0222,0.007 0.0428,0.021 0.0559,0.0403 0.0143,0.0211 0.0188,0.0478 0.0164,0.0731 -0.002,0.0254 -0.0111,0.0497 -0.0214,0.0731 -0.0598,0.13519 -0.17238,0.24116 -0.2971,0.3205 -0.12472,0.0793 -0.26261,0.13509 -0.39739,0.19578 -0.56166,0.25291 -1.09108,0.60119 -1.69511,0.72188 -0.22774,0.0455 -0.46364,0.0572 -0.69262,0.0184 -0.22899,-0.0388 -0.45099,-0.12925 -0.63239,-0.27427 -0.05,-0.04 -0.0969,-0.084 -0.14841,-0.12208 -0.0515,-0.0381 -0.10869,-0.0705 -0.17142,-0.0835 -0.0986,-0.0204 -0.20662,0.0119 -0.27786,0.0831 -0.0712,0.0712 -0.10353,0.17921 -0.0831,0.27785" />
    <path style="fill:#00bc00;stroke:#00e400;stroke-width:0.264583px;fill-opacity:1" d="m 110.00009,155.97026 c -0.45262,-0.0449 -0.90507,-0.0915 -1.35734,-0.13984 -0.35118,-0.0375 -0.70646,-0.0761 -1.05641,-0.0283 -0.34994,0.0477 -0.69975,0.19161 -0.92654,0.46236 -0.082,0.0979 -0.1461,0.20981 -0.23017,0.30587 -0.042,0.048 -0.0892,0.0921 -0.14339,0.12585 -0.0542,0.0338 -0.11564,0.057 -0.17929,0.0617 -0.0125,9.3e-4 -0.0255,0.001 -0.0369,0.007 -0.006,0.003 -0.0108,0.007 -0.0142,0.012 -0.003,0.005 -0.005,0.0118 -0.004,0.018 8.8e-4,0.004 0.003,0.008 0.006,0.011 0.003,0.003 0.006,0.006 0.01,0.008 0.007,0.005 0.0147,0.008 0.0213,0.013 0.009,0.007 0.0151,0.0166 0.0185,0.0272 0.003,0.0106 0.004,0.022 0.003,0.0331 -0.002,0.0222 -0.0122,0.0428 -0.0214,0.063 -0.0206,0.0453 -0.0395,0.0914 -0.0594,0.13707 -0.0494,0.11308 -0.10561,0.22324 -0.15078,0.33809 -0.0795,0.20222 -0.12399,0.41651 -0.19646,0.62136 -0.0654,0.18472 -0.15402,0.36391 -0.18002,0.55812 -0.013,0.0971 -0.01,0.19749 0.0202,0.2908 0.0299,0.0933 0.0875,0.17921 0.16881,0.23389 0.054,0.0363 0.11678,0.0581 0.18061,0.0709 0.0638,0.0128 0.12904,0.017 0.19404,0.0205 0.23432,0.0128 0.46932,0.0179 0.70363,0.005 0.0929,-0.005 0.1858,-0.0131 0.27871,-0.009 0.10143,0.004 0.20162,0.0232 0.30156,0.0411 0.0932,0.0167 0.18662,0.0327 0.27871,0.0548 0.2334,0.056 0.46443,0.15599 0.62596,0.33353 0.0291,0.032 0.0557,0.0662 0.0822,0.10051 0.0929,0.12028 0.18478,0.24143 0.27871,0.36094 0.0721,0.0917 0.14623,0.1833 0.23759,0.25585 0.13104,0.10406 0.29327,0.16466 0.4588,0.18914 0.16554,0.0245 0.3347,0.0142 0.49981,-0.013 0.33023,-0.0543 0.64724,-0.1752 0.97865,-0.22181 0.0863,-0.0121 0.17334,-0.0192 0.26044,-0.0183 0.0411,4.2e-4 0.0823,0.003 0.12336,0 0.10353,-0.007 0.20282,-0.0433 0.29699,-0.0868 0.0445,-0.0206 0.0883,-0.0428 0.1325,-0.064 0.18365,-0.0883 0.37507,-0.16085 0.55285,-0.26042 0.11024,-0.0617 0.21659,-0.13444 0.33811,-0.16905 0.0445,-0.0127 0.0912,-0.02 0.13707,-0.0137 0.0426,0.006 0.083,0.0235 0.11931,0.0466 0.0363,0.0231 0.0688,0.0517 0.1,0.0813 0.20649,0.1954 0.36692,0.43799 0.58894,0.61554 0.11102,0.0888 0.23805,0.16063 0.3767,0.19195 0.13865,0.0313 0.28974,0.0196 0.41421,-0.0491 0.10172,-0.0561 0.18246,-0.14927 0.22353,-0.25793 0.0411,-0.10866 0.0422,-0.23194 0.003,-0.3413 -0.0392,-0.10936 -0.11828,-0.20392 -0.21901,-0.26178 -0.10072,-0.0579 -0.22226,-0.0786 -0.33646,-0.0573" />
  </g>
</svg>