<?xml version="1.0" encoding="UTF-8" standalone="no"?>
<svg
   viewBox="92 135 40 30"
   version="1.1"
   id="svg1"
   xmlns="http://www.w3.org/2000/svg"
   xmlns:svg="http://www.w3.org/2000/svg">
  <defs
     id="defs36" />
  <g
     id="layer1">
    <path
       style="fill:#ffffff;stroke:none;stroke-width:1px;stroke-linecap:butt;stroke-linejoin:miter;stroke-opacity:1;fill-opacity:1"
       d="m 115.47313,144.55439 c -0.34169,-0.008 -0.65291,0.0954 -0.98296,0.15727 -0.0911,0.0171 -0.18493,0.0185 -0.27523,0.0393 -0.0808,0.0186 -0.15727,0.0524 -0.23591,0.0786 -0.26774,0.0892 0.0616,-0.0231 -0.31455,0.11796 -0.0388,0.0146 -0.0786,0.0262 -0.11795,0.0393 -0.0393,0.0131 -0.0769,0.0335 -0.11796,0.0393 -0.0519,0.007 -0.10525,-0.006 -0.15727,0 -0.0536,0.007 -0.10366,0.0326 -0.15728,0.0393 -0.052,0.007 -0.10485,0 -0.15727,0 -0.13106,0 -0.26212,0 -0.39319,0 -0.0786,0 -0.15727,0 -0.23591,0 -0.0131,0 -0.0282,0.007 -0.0393,0 -0.0956,-0.0598 -0.17855,-0.13858 -0.27523,-0.19659 -0.0355,-0.0213 -0.0809,-0.0208 -0.11795,-0.0393 -0.0423,-0.0211 -0.0757,-0.0575 -0.11796,-0.0786 -0.0843,-0.0421 -0.23379,-0.0607 -0.31454,-0.0786 -0.0528,-0.0117 -0.10601,-0.0222 -0.15728,-0.0393 -0.0278,-0.009 -0.0524,-0.0262 -0.0786,-0.0393 -0.0393,-0.0131 -0.0781,-0.0279 -0.11795,-0.0393 -0.052,-0.0148 -0.10378,-0.0317 -0.15728,-0.0393 -0.0389,-0.006 -0.0786,0 -0.11795,0 -0.0262,0 -0.0538,0.008 -0.0786,0 -0.0176,-0.006 -0.0217,-0.0335 -0.0393,-0.0393 -0.0249,-0.008 -0.0524,0 -0.0786,0 -0.0786,0 -0.15728,0 -0.23591,0 -0.2097,0 -0.4194,0 -0.6291,0 -0.0655,0 -0.13106,0 -0.19659,0 -0.0786,0 -0.15854,0.0141 -0.23591,0 -0.0694,-0.0126 -0.12964,-0.0563 -0.1966,-0.0786 -0.0255,-0.008 -0.1644,0 -0.19659,0 -0.13106,0 -0.26212,0 -0.39318,0 -0.39319,0 -0.78637,0 -1.17956,0 -0.11795,0 -0.23591,0 -0.35386,0 -0.0524,0 -0.10642,0.0127 -0.15728,0 -0.0569,-0.0142 -0.10091,-0.0625 -0.15727,-0.0786 -0.0378,-0.0108 -0.0786,0 -0.11796,0 -0.11795,0 -0.23591,0 -0.35386,0 -0.0393,0 -0.0786,0 -0.11796,0 -0.0262,0 -0.0532,0.006 -0.0786,0 -0.0284,-0.007 -0.05,-0.033 -0.0786,-0.0393 -0.22277,-0.0495 -0.44313,-0.0393 -0.66841,-0.0393 -0.0524,0 -0.10503,0.004 -0.15728,0 -0.1053,-0.009 -0.20931,-0.0297 -0.31454,-0.0393 -0.0925,-0.008 -0.22476,0 -0.31455,0 -0.0131,0 -0.0269,0.004 -0.0393,0 -0.0278,-0.009 -0.0497,-0.0345 -0.0786,-0.0393 -0.0517,-0.009 -0.10485,0 -0.15727,0 -0.14417,0 -0.28834,0 -0.43251,0 -0.10485,0 -0.2097,0 -0.31455,0 -0.0451,0 -0.11654,-0.0102 -0.15727,0 -0.0951,0.0238 -0.058,0.0337 -0.11795,0.0786 -0.0378,0.0284 -0.0769,0.0552 -0.11796,0.0786 -0.0509,0.0291 -0.11151,0.042 -0.15727,0.0786 -0.0229,0.0183 -0.0159,0.061 -0.0393,0.0786 -0.0332,0.0249 -0.0795,0.0239 -0.11796,0.0393 -0.0272,0.0109 -0.0524,0.0262 -0.0786,0.0393 -0.0262,0.0131 -0.0552,0.0217 -0.0786,0.0393 -0.0297,0.0222 -0.0465,0.0603 -0.0786,0.0786 -0.0613,0.035 -0.13916,0.0376 -0.19659,0.0786 -0.0384,0.0275 -0.0417,0.0884 -0.0786,0.11796 -0.0324,0.0259 -0.0824,0.018 -0.11796,0.0393 -0.0318,0.0191 -0.049,0.0564 -0.0786,0.0786 -0.0234,0.0176 -0.0552,0.0217 -0.0786,0.0393 -0.0297,0.0222 -0.0485,0.0571 -0.0786,0.0786 -0.0622,0.0444 -0.13024,0.08 -0.1966,0.11796 -0.0254,0.0145 -0.0552,0.0217 -0.0786,0.0393 -0.0297,0.0222 -0.0469,0.0596 -0.0786,0.0786 -0.0355,0.0213 -0.0887,0.01 -0.11795,0.0393 -0.0293,0.0293 -0.0145,0.0848 -0.0393,0.11795 -0.0176,0.0234 -0.0552,0.0217 -0.0786,0.0393 -0.0109,0.008 -0.15206,0.15491 -0.15727,0.15728 -0.50849,0.23113 -0.18531,0.0772 -0.51115,0.11795 -0.0536,0.007 -0.10377,0.0317 -0.15727,0.0393 -0.0389,0.006 -0.0794,-0.008 -0.11795,0 -0.0287,0.006 -0.0514,0.0284 -0.0786,0.0393 -0.14332,0.0573 -0.29305,0.0875 -0.432505,0.15728 -0.04227,0.0211 -0.07569,0.0575 -0.117955,0.0786 -0.06313,0.0316 -0.133465,0.0471 -0.196592,0.0786 -0.04227,0.0211 -0.07569,0.0575 -0.117956,0.0786 -0.03707,0.0185 -0.08089,0.0208 -0.117955,0.0393 -0.215851,0.10792 -0.03859,0.0724 -0.27523,0.27523 -0.03147,0.027 -0.08242,0.018 -0.117955,0.0393 -0.217117,0.13027 -0.03295,0.0266 -0.07864,0.11795 -0.0052,0.0104 -0.107516,0.11274 -0.117956,0.11796 -0.03707,0.0185 -0.09207,0.007 -0.117955,0.0393 -0.03376,0.0422 -0.01803,0.1076 -0.03932,0.15727 -0.08309,0.19389 -0.08506,0.0599 -0.235911,0.23591 -0.03814,0.0445 -0.04457,0.10958 -0.07864,0.15728 -0.03232,0.0453 -0.08711,0.0717 -0.117955,0.11795 -0.02299,0.0345 -0.02621,0.0786 -0.03932,0.11796 -0.03932,0.0393 -0.08322,0.0745 -0.117956,0.11795 -0.124106,0.15514 0.07958,-9.4e-4 -0.117955,0.1966 -0.04634,0.0463 -0.10752,0.0753 -0.157274,0.11795 -0.03705,0.0318 -0.256411,0.26347 -0.27523,0.27523 -0.04582,0.0286 -0.107893,0.0174 -0.157274,0.0393 -0.06983,0.031 -0.128239,0.0838 -0.196592,0.11796 -0.03707,0.0185 -0.08559,0.0134 -0.117955,0.0393 -0.0369,0.0295 -0.04522,0.0845 -0.07864,0.11795 -0.0093,0.009 -0.02621,0 -0.03932,0 -0.03932,0 -0.07981,-0.01 -0.117956,0 -0.01798,0.004 -0.02621,0.0262 -0.03932,0.0393 -0.03932,0.0393 -0.07864,0.0786 -0.117955,0.11796 -0.07864,0.0786 -0.170501,0.14597 -0.235911,0.23591 -0.04151,0.0571 -0.04997,0.13209 -0.07864,0.19659 -0.190055,0.42762 0.02279,-0.0342 -0.157274,0.23591 -0.0099,0.0149 0.0099,0.14242 0,0.15727 -0.02056,0.0308 -0.05956,0.0469 -0.07864,0.0786 -0.02132,0.0355 -0.02299,0.0799 -0.03932,0.11796 -0.02309,0.0539 -0.04956,0.10638 -0.07864,0.15727 -0.04689,0.0821 -0.110384,0.15386 -0.157274,0.23592 -0.0021,0.004 -0.156377,0.31329 -0.157274,0.31454 -0.03232,0.0453 -0.07864,0.0786 -0.117955,0.11796 -0.01311,0.0131 -0.03346,0.0217 -0.03932,0.0393 -0.0083,0.0249 0.01172,0.0552 0,0.0786 -0.01658,0.0332 -0.04949,0.0557 -0.07864,0.0786 -0.154585,0.12146 -0.316641,0.23317 -0.471822,0.35387 -0.0808,0.0628 -0.155979,0.13264 -0.235911,0.19659 -0.05117,0.0409 -0.110937,0.0716 -0.157274,0.11795 -0.08544,0.0854 -0.150469,0.18979 -0.235911,0.27523 -0.04634,0.0463 -0.110936,0.0716 -0.157274,0.11796 -0.05934,0.0593 -0.09356,0.14198 -0.157274,0.19659 -0.03147,0.027 -0.08559,0.0134 -0.117955,0.0393 -0.0369,0.0295 -0.04839,0.0816 -0.07864,0.11796 -0.06641,0.0797 -0.161228,0.16122 -0.235911,0.23591 -0.01311,0.0131 -0.03103,0.0227 -0.03932,0.0393 -0.0059,0.0117 0,0.0262 0,0.0393 0,0.0131 0,0.0262 0,0.0393 0,0.0655 0,0.13106 0,0.19659 0,0.10485 0,0.2097 0,0.31455 0,0.0393 -0.0077,0.0794 0,0.11795 0.0058,0.0287 0.03221,0.0502 0.03932,0.0786 0.0064,0.0254 -0.0083,0.0538 0,0.0786 0.0059,0.0176 0.02904,0.0239 0.03932,0.0393 0.01626,0.0244 0.03005,0.0508 0.03932,0.0786 0.0083,0.0249 -0.01573,0.0577 0,0.0786 0.03336,0.0445 0.09309,0.0682 0.117955,0.11796 0.07034,0.0358 -0.02344,0.11038 0,0.15727 0.0083,0.0166 0.02621,0.0262 0.03932,0.0393 0.01311,0.0262 0.02843,0.0514 0.03932,0.0786 0.01539,0.0385 0.02927,0.0778 0.03932,0.11796 0.0032,0.0127 -0.0059,0.0276 0,0.0393 0.02113,0.0423 0.06369,0.0731 0.07864,0.11795 0.01243,0.0373 -0.0146,0.0814 0,0.11796 0.142343,0.35585 0.02808,-0.1573 0.117956,0.15727 0.01836,0.0643 0.02311,0.13176 0.03932,0.19659 0.0201,0.0804 0.05853,0.1555 0.07864,0.23591 0.01621,0.0648 0.02096,0.13234 0.03932,0.1966 0.008,0.0282 0.03127,0.0505 0.03932,0.0786 0.01836,0.0643 0.01299,0.13516 0.03932,0.19659 0.0146,0.0341 0.05639,0.049 0.07864,0.0786 0.07554,0.10071 0.01,0.0986 0.07864,0.23591 0.01658,0.0332 0.05639,0.049 0.07864,0.0786 0.145259,0.19368 -0.149625,-0.071 0.157274,0.23591 0.02072,0.0207 0.05791,0.0186 0.07864,0.0393 0.02072,0.0207 0.02424,0.0535 0.03932,0.0786 0.02431,0.0405 0.04522,0.0845 0.07864,0.11796 0.434765,0.28984 -0.08453,-0.0845 0.157274,0.15727 0.02072,0.0207 0.05425,0.0231 0.07864,0.0393 0.05898,0.0393 0.03932,0.0786 0.117955,0.11796 0.02345,0.0117 0.05321,-0.006 0.07864,0 0.02843,0.007 0.05143,0.0284 0.07864,0.0393 0.03848,0.0154 0.07775,0.0293 0.117956,0.0393 0.04512,0.0113 0.158288,-0.006 0.196592,0 0.08176,0.0136 0.15621,0.0559 0.235911,0.0786 0.05196,0.0149 0.115077,0.006 0.157274,0.0393 0.03236,0.0259 0.01633,0.0835 0.03932,0.11795 0.0073,0.0109 0.02883,-0.008 0.03932,0 0.04448,0.0334 0.07453,0.0832 0.117955,0.11796 0.02288,0.0183 0.05791,0.0186 0.07864,0.0393 0.02072,0.0207 0.02621,0.0524 0.03932,0.0786 0.01311,0.0262 0.02844,0.0514 0.03932,0.0786 0.05081,0.12701 0.03932,0.14228 0.03932,0.27523 0,0.0262 0,0.0524 0,0.0786 0,0.0131 -0.0059,0.0276 0,0.0393 0.0083,0.0166 0.03627,0.021 0.03932,0.0393 0.01077,0.0646 0,0.13106 0,0.19659 0,0.0917 0,0.18348 0,0.27523 0,0.0917 0,0.18348 0,0.27523 0,0.0393 0,0.0786 0,0.11795 0,0.0262 -0.0043,0.0528 0,0.0786 0.0089,0.0533 0.03168,0.10378 0.03932,0.15728 0.0056,0.0389 0,0.0786 0,0.11795 0,0.0524 0,0.10485 0,0.15728 0,0.0262 -0.0043,0.0528 0,0.0786 0.0089,0.0533 0.02621,0.10485 0.03932,0.15727 0.02621,0.0655 0.0648,0.12739 0.07864,0.19659 0.01285,0.0643 0,0.13106 0,0.1966 0,0.13106 0,0.26212 0,0.39318 0,0.0655 -0.0072,0.13146 0,0.19659 0.006,0.0537 0.03168,0.10378 0.03932,0.15728 0.0056,0.0389 0,0.0786 0,0.11795 0,0.11796 -0.0098,0.23632 0,0.35387 0.0077,0.0923 0.02908,0.18312 0.03932,0.27523 0.0029,0.026 -0.0043,0.0528 0,0.0786 0.0089,0.0533 0.03043,0.10397 0.03932,0.15727 0.0043,0.0259 0,0.0524 0,0.0786 0,0.0655 0,0.13106 0,0.19659 0,0.1966 0,0.39319 0,0.58978 0,0.39319 0,0.78637 0,1.17956 0,0.13106 0,0.26212 0,0.39318 0,0.0227 -0.0072,0.18226 0,0.19659 0.0083,0.0166 0.02484,0.0277 0.03932,0.0393 0.02479,0.0198 0.168395,0.1404 0.235911,0.15728 0.02543,0.006 0.05242,0 0.07864,0 0.03932,0 0.07864,0 0.117956,0 0.153846,0 0.08207,0 0.235911,0 0.183486,0 0.366972,0 0.550458,0 0.06553,0 0.131062,0 0.196593,0 0.01311,0 0.02621,0 0.03932,0 0.01311,0 0.02841,0.007 0.03932,0 0.277111,-0.18474 -0.145667,0.019 0.196592,-0.11796 0.02721,-0.0109 0.05083,-0.0301 0.07864,-0.0393 0.02487,-0.008 0.05377,0.008 0.07864,0 0.0278,-0.009 0.05083,-0.03 0.07864,-0.0393 0.02168,-0.007 0.148868,0.008 0.157274,0 0.0093,-0.009 0,-0.0262 0,-0.0393 0,-0.11795 0,-0.23591 0,-0.35387 0,-0.0393 0.0095,-0.0798 0,-0.11795 -0.01712,-0.0685 -0.05385,-0.13051 -0.07864,-0.19659 -0.01455,-0.0388 -0.02621,-0.0786 -0.03932,-0.11796 -0.01311,-0.0393 -0.03251,-0.0771 -0.03932,-0.11795 -0.02168,-0.13007 0.03528,-0.11158 -0.03932,-0.23592 -0.01907,-0.0318 -0.05957,-0.0468 -0.07864,-0.0786 -0.02132,-0.0355 -0.02621,-0.0786 -0.03932,-0.11795 -0.05242,-0.15727 -0.104849,-0.31455 -0.157274,-0.47182 -0.01311,-0.0393 -0.01799,-0.0824 -0.03932,-0.11796 -0.01907,-0.0318 -0.06403,-0.0446 -0.07864,-0.0786 -0.02632,-0.0614 -0.02311,-0.13176 -0.03932,-0.19659 -0.0201,-0.0804 -0.06238,-0.15463 -0.07864,-0.23591 -0.0051,-0.0257 0.0064,-0.0532 0,-0.0786 -0.0071,-0.0284 -0.03221,-0.0502 -0.03932,-0.0786 -0.0064,-0.0254 0,-0.0524 0,-0.0786 0,-0.0917 0,-0.18349 0,-0.27523 0,-0.10485 -0.0062,-0.20988 0,-0.31455 0.0035,-0.059 0.06691,-0.59215 0.07864,-0.66841 0.01016,-0.066 0.03267,-0.1301 0.03932,-0.1966 0.0065,-0.0652 0,-0.13106 0,-0.19659 0,-0.18348 0,-0.36697 0,-0.55046 0,-0.45871 0,-0.91743 0,-1.37614 0,-0.22281 0,-0.44561 0,-0.66842 0,-0.0917 0,-0.18348 0,-0.27523 0,-0.0131 0,-0.0262 0,-0.0393 0,-0.0131 -0.0073,-0.0284 0,-0.0393 0.02056,-0.0308 0.04548,-0.0621 0.07864,-0.0786 0.02344,-0.0117 0.05242,0 0.07864,0 0.02621,0 0.05242,0 0.07864,0 0.05242,0 0.105376,-0.007 0.157274,0 0.101424,0.0145 0.112234,0.0449 0.196592,0.0786 0.03848,0.0154 0.08559,0.0134 0.117956,0.0393 0.0018,0.001 0.0879,0.14726 0.117955,0.15728 0.178989,0 0.0023,-0.0185 0.117956,0.0393 0.01172,0.006 0.02841,-0.007 0.03932,0 0.112837,0.0752 0.150102,0.22874 0.235911,0.31455 0.03341,0.0334 0.08843,0.0417 0.117955,0.0786 0.145941,0.18242 0.0069,0.06 0.03932,0.15727 0.05242,0.15727 0.03773,-0.008 0.07864,0.19659 0.0051,0.0257 -0.0043,0.0528 0,0.0786 0.0089,0.0533 0.03044,0.10397 0.03932,0.15727 0.0086,0.0517 0,0.10485 0,0.15728 0,0.2228 0,0.44561 0,0.66841 0,0.0393 0,0.0786 0,0.11796 0,0.0524 -0.01137,0.1061 0,0.15727 0.01531,0.0689 0.06601,0.12716 0.07864,0.19659 0.01407,0.0774 0,0.15728 0,0.23592 0,0.10485 0,0.20969 0,0.31454 0,0.38008 0,0.76016 0,1.14024 0,0.0917 0,0.18349 0,0.27523 0,0.0524 -0.0086,0.10556 0,0.15727 0.0089,0.0533 0.02872,0.10429 0.03932,0.15728 0.0026,0.0129 0,0.0262 0,0.0393 0,0.0917 0,0.18348 0,0.27523 0,0.0524 0,0.10485 0,0.15727 0,0.0131 -0.0026,0.0265 0,0.0393 0.0106,0.053 0.02872,0.10429 0.03932,0.15727 0.0026,0.0129 0,0.0262 0,0.0393 0,0.0393 0,0.0787 0,0.11796 0,0.17038 0,0.34076 0,0.51114 0,0.26212 0,0.52425 0,0.78637 0,0.0393 0,0.0786 0,0.11796 0,0.0131 -0.01243,0.0352 0,0.0393 0.0373,0.0124 0.07864,0 0.117956,0 0.10485,0 0.2097,0 0.31455,0 0.11795,0 0.23751,-0.0194 0.35386,0 0.0466,0.008 0.0741,0.0611 0.11796,0.0786 0.0243,0.01 0.0524,0 0.0786,0 0.0393,0 0.0786,0 0.11795,0 0.0131,0 0.0276,-0.006 0.0393,0 0.0166,0.008 0.0227,0.031 0.0393,0.0393 0.0117,0.006 0.0265,-0.003 0.0393,0 0.26016,0.052 0.0528,0.0393 0.31455,0.0393 0.17038,0 0.34076,0 0.51114,0 0.11795,0 0.23591,0 0.35386,0 0.0131,0 0.0262,0 0.0393,0 0.0131,0 0.0276,0.006 0.0393,0 0.04,-0.02 0.0627,-0.086 0.0786,-0.11796 0.0862,-0.17242 0.0393,-0.0493 0.0393,-0.39318 0,-0.0262 0,-0.0524 0,-0.0786 0,-0.0393 0.0124,-0.0806 0,-0.11796 -0.0149,-0.0448 -0.0496,-0.0807 -0.0786,-0.11795 -0.0628,-0.0808 -0.12918,-0.15888 -0.19659,-0.23592 -0.0244,-0.0279 -0.0581,-0.0478 -0.0786,-0.0786 -0.007,-0.0109 0.006,-0.0276 0,-0.0393 -0.008,-0.0166 -0.029,-0.0239 -0.0393,-0.0393 -0.0163,-0.0244 -0.0217,-0.0552 -0.0393,-0.0786 -0.007,-0.009 -0.1549,-0.15253 -0.15727,-0.15728 -0.0117,-0.0234 0.008,-0.0538 0,-0.0786 -0.0185,-0.0556 -0.0524,-0.10485 -0.0786,-0.15727 -0.0131,-0.0262 -0.0352,-0.0496 -0.0393,-0.0786 -0.009,-0.0649 0.009,-0.13172 0,-0.19659 -0.004,-0.029 -0.0301,-0.0508 -0.0393,-0.0787 -0.007,-0.0219 0.0101,-0.10279 0,-0.11795 -0.0206,-0.0308 -0.0684,-0.043 -0.0786,-0.0786 -0.018,-0.063 0.009,-0.13172 0,-0.19659 -0.004,-0.029 -0.0345,-0.0497 -0.0393,-0.0786 -0.009,-0.0517 0.0103,-0.10587 0,-0.15728 -0.0202,-0.10095 -0.11662,-0.33087 -0.15728,-0.4325 -0.0262,-0.0655 -0.0539,-0.13051 -0.0786,-0.19659 -0.0146,-0.0388 -0.0239,-0.0795 -0.0393,-0.11796 -0.0109,-0.0272 -0.0336,-0.0499 -0.0393,-0.0786 -0.008,-0.0394 0,-0.18471 0,-0.23591 0,-0.28834 0,-0.57667 0,-0.86501 0,-0.0884 0.01,-0.23693 0,-0.31454 -0.007,-0.0536 -0.0262,-0.10485 -0.0393,-0.15728 -0.0131,-0.11795 -0.0286,-0.23567 -0.0393,-0.35386 -0.007,-0.0769 0,-0.15869 0,-0.23592 0,-0.0131 0.003,-0.0266 0,-0.0393 -0.0101,-0.0402 -0.0239,-0.0795 -0.0393,-0.11795 -0.0109,-0.0272 -0.0322,-0.0502 -0.0393,-0.0786 -0.006,-0.0254 0.004,-0.0528 0,-0.0786 -0.009,-0.0533 -0.0317,-0.10378 -0.0393,-0.15727 -0.013,-0.0908 0.0101,-0.18405 0,-0.27524 -0.007,-0.0664 -0.031,-0.13028 -0.0393,-0.19659 -0.009,-0.0724 0,-0.1968 0,-0.27523 0,-0.2228 0,-0.44561 0,-0.66841 0,-0.17038 0,-0.34076 0,-0.51114 0,-0.0722 -0.01,-0.16781 0,-0.23591 0.019,-0.13335 0.0755,-0.26596 0.11795,-0.39319 0.0131,-0.0393 0.0279,-0.0781 0.0393,-0.11795 0.0148,-0.052 0.0151,-0.10894 0.0393,-0.15728 0.0166,-0.0332 0.064,-0.0446 0.0786,-0.0786 0.14048,-0.0626 0.02,-0.15856 0.0393,-0.23591 0.0993,-0.39725 -0.0142,0.0284 0.0786,-0.15727 0.0476,-0.0952 0.0393,-0.10662 0.0393,-0.19659 0,-0.0262 -0.005,-0.0529 0,-0.0786 0.008,-0.0406 0.0293,-0.0778 0.0393,-0.11796 0.003,-0.0127 -0.009,-0.03 0,-0.0393 0.009,-0.009 0.0301,0.009 0.0393,0 0.0207,-0.0207 0.0186,-0.0579 0.0393,-0.0786 0.009,-0.009 0.03,0.009 0.0393,0 0.0344,-0.0344 0.0633,-0.16588 0.0786,-0.19659 0.005,-0.0104 0.10752,-0.11274 0.11796,-0.11796 0.0117,-0.006 0.0276,0.006 0.0393,0 0.0166,-0.008 0.0262,-0.0262 0.0393,-0.0393 0.0131,-0.0131 0.0262,-0.0262 0.0393,-0.0393 0.0262,-0.0262 0.0524,-0.0524 0.0786,-0.0786 0.0262,-0.0262 0.0442,-0.0649 0.0786,-0.0786 0.0365,-0.0146 0.0794,0.008 0.11796,0 0.0287,-0.006 0.0502,-0.0322 0.0786,-0.0393 0.0254,-0.006 0.0527,0.004 0.0786,0 0.0662,-0.01 0.13067,-0.0283 0.19659,-0.0393 0.11795,-0.0197 -0.0786,0.0393 0.11795,0 0.0406,-0.008 0.0773,-0.0312 0.11796,-0.0393 0.039,-0.008 0.15528,0 0.19659,0 0.17038,0 0.34076,0 0.51114,0 0.0786,0 0.15807,0.0111 0.23591,0 0.041,-0.006 0.0773,-0.0312 0.11796,-0.0393 0.0257,-0.005 0.0543,0.01 0.0786,0 0.0439,-0.0175 0.0741,-0.0611 0.11795,-0.0786 0.0243,-0.01 0.0524,0 0.0786,0 0.0655,-0.0131 0.13517,-0.013 0.1966,-0.0393 0.0341,-0.0146 0.0464,-0.0602 0.0786,-0.0786 0.0613,-0.035 0.13346,-0.0471 0.19659,-0.0786 0.0945,-0.0472 0.17867,-0.11436 0.27523,-0.15727 0.0239,-0.0106 0.0527,0.004 0.0786,0 0.0662,-0.01 0.13043,-0.0299 0.19659,-0.0393 0.0649,-0.009 0.13172,0.009 0.19659,0 0.0535,-0.008 0.10366,-0.0326 0.15728,-0.0393 0.052,-0.006 0.10485,0 0.15727,0 0.11796,0 0.23591,0 0.35387,0 0.0393,0 0.0786,0 0.11795,0 0.0131,0 0.0266,0.003 0.0393,0 0.0402,-0.0101 0.0773,-0.0312 0.11796,-0.0393 0.0257,-0.005 0.0532,0.006 0.0786,0 0.0284,-0.007 0.0499,-0.0336 0.0786,-0.0393 0.0394,-0.008 0.18471,0 0.23591,0 0.14417,0 0.28833,0 0.4325,0 0.4325,0 0.86501,0 1.29751,0 0.36697,0 0.73395,0 1.10092,0 0.11795,0 0.23591,0 0.35386,0 0.0262,0 0.0524,0 0.0786,0 0.0393,0 0.0798,-0.01 0.11796,0 0.018,0.005 0.0217,0.0335 0.0393,0.0393 0.0249,0.008 0.0543,-0.01 0.0786,0 0.17855,0.0714 0.0612,0.067 0.19659,0.15727 0.0488,0.0325 0.10485,0.0524 0.15728,0.0786 0.0262,0.0131 0.0508,0.03 0.0786,0.0393 0.0513,0.0171 0.10667,0.0203 0.15727,0.0393 0.11241,-0.0715 0.13526,0.0873 0.19659,0.11796 0.0371,0.0185 0.0795,0.0239 0.11796,0.0393 0.0272,0.0109 0.0514,0.0284 0.0786,0.0393 0.18932,0.0757 0.0515,0.004 0.27523,0.0786 0.15727,0.0524 -0.008,0.0377 0.19659,0.0786 0.0257,0.005 0.0538,-0.008 0.0786,0 0.0176,0.006 0.0217,0.0335 0.0393,0.0393 0.0249,0.008 0.0552,-0.0117 0.0786,0 0.0332,0.0166 0.0455,0.0621 0.0786,0.0786 0.0234,0.0117 0.0543,-0.01 0.0786,0 0.0439,0.0175 0.0757,0.0575 0.11795,0.0786 0.0511,0.0868 0.13455,0.0145 0.1966,0.0393 0.0439,0.0175 0.0774,0.0543 0.11795,0.0786 0.007,0.004 0.15586,0.0772 0.15728,0.0786 0.009,0.009 0,0.0262 0,0.0393 0.0262,0.0131 0.0517,0.0278 0.0786,0.0393 0.0649,0.0278 0.12963,0.0563 0.19659,0.0786 0.0249,0.008 0.0552,-0.0117 0.0786,0 0.0332,0.0166 0.0478,0.0581 0.0786,0.0786 0.0244,0.0163 0.0524,0.0262 0.0786,0.0393 0.0262,0.0262 0.049,0.0564 0.0786,0.0786 0.0234,0.0176 0.0579,0.0186 0.0786,0.0393 0.0207,0.0207 0.021,0.0557 0.0393,0.0786 0.0579,0.0724 0.13106,0.13106 0.19659,0.19659 0.0131,0.0131 0.031,0.0227 0.0393,0.0393 0.006,0.0117 -0.006,0.0276 0,0.0393 0.008,0.0166 0.0282,0.0245 0.0393,0.0393 0.0283,0.0378 0.0452,0.0845 0.0786,0.11796 0.0207,0.0207 0.0624,0.0149 0.0786,0.0393 0.0145,0.0218 -0.0117,0.0552 0,0.0786 0.0783,0.15667 0.0787,1.7e-4 0.11796,0.15727 0.006,0.0254 -0.006,0.0532 0,0.0786 0.0142,0.0569 0.0625,0.10092 0.0786,0.15728 0.0184,0.0643 0.013,0.13516 0.0393,0.19659 0.0146,0.0341 0.0649,0.0442 0.0786,0.0786 0.0146,0.0365 -0.007,0.0792 0,0.11795 0.007,0.0409 0.0293,0.0777 0.0393,0.11796 0.003,0.0127 -0.003,0.0265 0,0.0393 0.0106,0.053 0.0304,0.10397 0.0393,0.15727 0.004,0.0258 -0.004,0.0527 0,0.0786 0.01,0.0662 0.0248,0.13136 0.0393,0.1966 0.0117,0.0528 0.0317,0.10377 0.0393,0.15727 0.009,0.0649 0,0.13106 0,0.19659 0,0.14417 0,0.28834 0,0.43251 0,0.14416 -0.0191,0.28959 0,0.4325 0.008,0.0581 0.0601,0.10167 0.0786,0.15727 0.0211,0.0634 0.0217,0.13212 0.0393,0.19659 0.22817,0.83666 -0.005,-0.19546 0.0786,0.39319 0.006,0.041 0.0342,0.0768 0.0393,0.11795 0.008,0.065 0,0.13107 0,0.1966 0,0.0655 0,0.13106 0,0.19659 0,0.0393 0,0.0786 0,0.11796 0,0.0262 -0.006,0.0532 0,0.0786 0.0278,0.1113 0.0757,0.0697 0.11795,0.1966 0.0124,0.0373 -0.0202,0.0842 0,0.11795 0.0243,0.0405 0.0936,0.0381 0.11796,0.0786 0.0202,0.0337 -0.0124,0.0807 0,0.11796 0.0476,0.14284 0.0857,0.0892 0.15727,0.19659 0.007,0.0109 -0.005,0.0272 0,0.0393 0.0786,0.19659 0.059,0.0983 0.11796,0.23591 0.0278,0.0649 0.0471,0.13346 0.0786,0.19659 0.0211,0.0423 0.062,0.0737 0.0786,0.11796 0.0235,0.0626 0.0182,0.13319 0.0393,0.19659 0.055,0.16489 0.14918,0.30588 0.19659,0.47182 0.0148,0.052 0.0245,0.10532 0.0393,0.15728 0.0114,0.0399 0.0293,0.0778 0.0393,0.11795 0.003,0.0127 -0.006,0.0276 0,0.0393 0.008,0.0166 0.0335,0.0217 0.0393,0.0393 0.0294,0.0882 0.0588,0.35329 0.0786,0.4325 -0.0237,0.0712 0.0637,0.0731 0.0786,0.11796 0.008,0.0249 0,0.0524 0,0.0786 0.0131,0.0655 0.0159,0.13402 0.0393,0.19659 0.0166,0.0442 0.0657,0.0725 0.0786,0.11796 0.0144,0.0504 0,0.10485 0,0.15727 0,0.0131 -0.007,0.0284 0,0.0393 0.0206,0.0308 0.0621,0.0455 0.0786,0.0786 0.0425,0.085 0.0393,0.12385 0.0393,0.19659 0,0.0262 -0.008,0.0538 0,0.0786 0.006,0.0176 0.0335,0.0217 0.0393,0.0393 0.008,0.0249 0,0.0524 0,0.0786 0,0.0393 -0.008,0.16296 0,0.1966 0.0101,0.0402 0.0312,0.0773 0.0393,0.11795 0.005,0.0257 0,0.0524 0,0.0786 0,0.0618 -0.008,0.13868 0,0.19659 0.008,0.0535 0.0287,0.10429 0.0393,0.15728 0.009,0.0432 0,0.14912 0,0.19659 0,0.0655 0,0.13106 0,0.19659 0,0.0393 0,0.0786 0,0.11796 0,0.0131 -0.006,0.0276 0,0.0393 0.0579,0.1157 0.0393,-0.061 0.0393,0.11795 0,0.0262 0,0.0524 0,0.0786 0,0.0262 0,0.10485 0,0.0786 0,-0.2097 0,-0.41939 0,-0.62909 0,-0.11796 0.008,-0.23621 0,-0.35387 -0.005,-0.0667 -0.0274,-0.13084 -0.0393,-0.19659 -0.0143,-0.0784 -0.028,-0.15699 -0.0393,-0.23591 -0.028,-0.19634 -0.0589,-0.39243 -0.0786,-0.58978 -0.007,-0.0652 0.004,-0.13117 0,-0.19659 -0.009,-0.15755 -0.0295,-0.31431 -0.0393,-0.47182 -0.003,-0.0523 0,-0.10485 0,-0.15728 0,-0.0393 0.0108,-0.0802 0,-0.11795 -0.0161,-0.0564 -0.0625,-0.10092 -0.0786,-0.15728 -0.0108,-0.0378 0,-0.0786 0,-0.11795 0,-0.0786 0.009,-0.15776 0,-0.23591 -0.005,-0.0412 -0.0347,-0.0768 -0.0393,-0.11796 -0.009,-0.0782 0.01,-0.15788 0,-0.23591 -0.004,-0.0291 -0.0336,-0.0499 -0.0393,-0.0786 -0.008,-0.0386 0.008,-0.0794 0,-0.11795 -0.006,-0.0287 -0.0262,-0.0524 -0.0393,-0.0786 -0.0131,-0.0524 -0.0317,-0.10378 -0.0393,-0.15728 -0.006,-0.0389 0,-0.0786 0,-0.11795 0,-0.0393 0,-0.0786 0,-0.11796 0,-0.17038 0,-0.34076 0,-0.51114 0,-0.47182 0,-0.94364 0,-1.41546 0,-0.0917 0,-0.18349 0,-0.27523 0,-0.0393 0.008,-0.0794 0,-0.11796 -0.008,-0.0406 -0.0312,-0.0773 -0.0393,-0.11796 -0.005,-0.0257 0,-0.0524 0,-0.0786 0,-0.0786 0,-0.15727 0,-0.23591 0,-0.2228 0,-0.44561 0,-0.66841 0,-0.0786 0,-0.15727 0,-0.23591 0,-0.0655 0.007,-0.13146 0,-0.19659 -0.006,-0.0537 -0.0287,-0.10429 -0.0393,-0.15728 -0.003,-0.0128 0,-0.0262 0,-0.0393 0,-0.0393 0,-0.0786 0,-0.11795 0,-0.0524 0,-0.10485 0,-0.15728 0,-0.18348 0,-0.36697 0,-0.55046 0,-0.11795 0,-0.23591 0,-0.35386 0,-0.0272 -0.006,-0.14532 0,-0.15728 0.0236,-0.0472 0.0944,-0.0708 0.11795,-0.11795 0.0117,-0.0234 -0.008,-0.0538 0,-0.0786 0.01,-0.0297 0.15661,-0.11742 0.15728,-0.11796 0.029,-0.0232 0.0524,-0.0524 0.0786,-0.0786 0.0131,-0.0131 0.031,-0.0227 0.0393,-0.0393 0.0185,-0.0371 0.0128,-0.0861 0.0393,-0.11795 0.0419,-0.0503 0.10693,-0.076 0.15727,-0.11796 0.0285,-0.0237 0.0524,-0.0524 0.0786,-0.0786 0.0655,-0.0655 0.13106,-0.13106 0.1966,-0.19659 0.0131,-0.0131 0.0335,-0.0217 0.0393,-0.0393 0.008,-0.0249 -0.0117,-0.0552 0,-0.0786 0.006,-0.0117 0.0262,0 0.0393,0 0.0393,0 0.0794,-0.008 0.11795,0 0.11295,0.0226 0.0987,0.0201 0.15727,0.0786 0.0262,0.0262 0.0581,0.0478 0.0786,0.0786 0.007,0.0109 0,0.0262 0,0.0393 0.0131,0.0262 0.0217,0.0552 0.0393,0.0786 0.0644,0.0859 0.11879,0.0811 0.15728,0.19659 0.0252,0.0756 0.0237,0.15774 0.0393,0.23591 0.0131,0.0524 0.0262,0.10485 0.0393,0.15728 0,0.0262 -0.004,0.0528 0,0.0786 0.009,0.0533 0.0304,0.10397 0.0393,0.15727 0.004,0.0259 -0.005,0.0529 0,0.0786 0.008,0.0406 0.0293,0.0778 0.0393,0.11796 0.0162,0.0648 0.021,0.13233 0.0393,0.19659 0.008,0.0282 0.0322,0.0502 0.0393,0.0786 0.006,0.0254 -0.005,0.0529 0,0.0786 0.008,0.0406 0.0279,0.0781 0.0393,0.11795 0.0149,0.052 0.0245,0.10532 0.0393,0.15728 0.0114,0.0399 0.0279,0.0781 0.0393,0.11795 0.0148,0.052 0.0152,0.10894 0.0393,0.15728 0.0293,0.0586 0.0854,0.10038 0.11795,0.15727 0.0411,0.072 0.0416,0.16177 0.0786,0.23591 0.008,0.0166 0.031,0.0227 0.0393,0.0393 0.0316,0.0631 0.0539,0.13051 0.0786,0.19659 0.0145,0.0388 0.0188,0.082 0.0393,0.11796 0.0325,0.0569 0.0854,0.10038 0.11796,0.15727 0.0206,0.036 0.0262,0.0786 0.0393,0.11796 0.0131,0.0393 0.0262,0.0786 0.0393,0.11795 0.0131,0.0393 0.0325,0.0771 0.0393,0.11796 0.007,0.0388 -0.01,0.0798 0,0.11796 0.0171,0.0685 0.0538,0.1305 0.0786,0.19659 0.0145,0.0388 0.0239,0.0795 0.0393,0.11795 0.0109,0.0272 0.0278,0.0517 0.0393,0.0786 0.0625,0.14591 0.11139,0.27955 0.15727,0.43251 0.0925,0.30843 0.008,0.021 0.0393,0.27523 0.008,0.0663 0.0248,0.13135 0.0393,0.19659 0.0117,0.0527 0.0326,0.10365 0.0393,0.15727 0.006,0.052 0,0.10485 0,0.15728 0,0.0655 0,0.13106 0,0.19659 0,0.0393 0,0.0786 0,0.11795 0,0.0262 -0.0145,0.0568 0,0.0786 0.0163,0.0244 0.0655,0.0131 0.0786,0.0393 0.0445,0.0889 0.0393,0.18208 0.0393,0.27523 0,0.0524 -0.0166,0.10754 0,0.15728 0.0117,0.0352 0.0596,0.0469 0.0786,0.0786 0.0476,0.0794 0.0393,0.11665 0.0393,0.19659 0,0.0262 -0.01,0.0543 0,0.0786 0.0351,0.0877 0.11501,0.15138 0.15728,0.23591 0.0629,0.12578 0.0201,0.11889 0.11795,0.31455 0.20393,0.33988 0.0437,0.0492 0.19659,0.39318 0.0771,0.17358 0.16419,0.27736 0.1966,0.47183 0.004,0.0259 0,0.0524 0,0.0786 0,0.0451 -0.008,0.30403 0,0.35386 0.0136,0.0818 0.065,0.15415 0.0786,0.23591 0.007,0.0388 -0.0108,0.0802 0,0.11796 0.0161,0.0564 0.0524,0.10485 0.0786,0.15727 0.0131,0.0262 0.0336,0.0499 0.0393,0.0786 0.008,0.0386 -0.008,0.0794 0,0.11796 0.006,0.0287 0.0274,0.0519 0.0393,0.0786 0.0556,0.12509 0.13903,0.28657 0.15727,0.4325 0.007,0.052 0,0.10485 0,0.15727 0,0.0786 0,0.15728 0,0.23592 0,0.0262 -0.0117,0.0552 0,0.0786 0.0166,0.0332 0.0524,0.0524 0.0786,0.0786 0.0131,0.0131 0.0348,0.0213 0.0393,0.0393 0.01,0.0382 -0.008,0.0794 0,0.11795 0.0115,0.0575 0.0644,0.10041 0.0786,0.15728 0.006,0.0254 -0.005,0.0529 0,0.0786 0.008,0.0406 0.0342,0.0768 0.0393,0.11795 0.008,0.065 0,0.13106 0,0.19659 0,0.0393 -0.009,0.0798 0,0.11796 0.005,0.018 0.029,0.0239 0.0393,0.0393 0.0452,0.0678 0.0393,0.0594 0.0393,0.11795 0,0.0262 -0.0117,0.0552 0,0.0786 0.006,0.0117 0.0301,-0.009 0.0393,0 0.009,0.009 -0.004,0.0269 0,0.0393 0.009,0.0278 0.0301,0.0508 0.0393,0.0786 0.004,0.0124 0,0.0524 0,0.0393 0,-0.17038 0.009,-0.34097 0,-0.51114 -0.006,-0.11853 -0.0309,-0.23548 -0.0393,-0.35386 -0.008,-0.10459 0.013,-0.21051 0,-0.31455 -0.008,-0.0663 -0.0338,-0.12999 -0.0393,-0.19659 -0.008,-0.0914 0.008,-0.18387 0,-0.27523 -0.005,-0.0538 -0.0333,-0.10357 -0.0393,-0.15728 -0.007,-0.0651 0,-0.13106 0,-0.19659 0,-0.18348 0,-0.36697 0,-0.55046 0,-0.0393 0,-0.0786 0,-0.11795 0,-0.0524 0.007,-0.10538 0,-0.15728 -0.006,-0.041 -0.0347,-0.0768 -0.0393,-0.11795 -0.009,-0.0782 0.01,-0.15788 0,-0.23591 -0.004,-0.0291 -0.0336,-0.0499 -0.0393,-0.0786 -0.007,-0.036 0,-0.23674 0,-0.27523 0,-0.49804 0,-0.99607 0,-1.4941 0,-0.18349 0,-0.36698 0,-0.55046 0,-0.0439 -0.009,-0.23122 0,-0.27523 0.0106,-0.053 0.0282,-0.1044 0.0393,-0.15728 0.0413,-0.19618 0.0693,-0.39527 0.11796,-0.58977 0.0171,-0.0685 0.0584,-0.12899 0.0786,-0.1966 0.0585,-0.19488 0.10241,-0.39385 0.15727,-0.58977 0.0369,-0.13177 0.0893,-0.25939 0.11796,-0.39319 0.0216,-0.10065 -0.0146,-0.21248 0,-0.31455 0.0131,-0.0655 0.0262,-0.13106 0.0393,-0.19659 0.0262,-0.0262 0.0669,-0.0435 0.0786,-0.0786 0.002,-0.005 -0.002,-0.29933 0,-0.31455 0.0172,-0.1545 0.0496,-0.20863 0.0786,-0.35386 0.003,-0.0129 0,-0.0262 0,-0.0393 0,-0.0524 -0.0114,-0.1061 0,-0.15728 0.0153,-0.0689 0.0615,-0.12812 0.0786,-0.19659 0.0123,-0.0493 -0.0123,-0.10793 0,-0.15727 0.01,-0.0402 0.0335,-0.0769 0.0393,-0.11796 0.007,-0.0519 0,-0.10485 0,-0.15727 0,-0.0131 -0.004,-0.0269 0,-0.0393 0.0475,-0.14254 0.0186,-0.028 0.0786,-0.11796 0.005,-0.007 0.0761,-0.15475 0.0786,-0.15727 0.0207,-0.0207 0.0579,-0.0186 0.0786,-0.0393 0.0207,-0.0207 0.0186,-0.0579 0.0393,-0.0786 0.009,-0.009 0.0352,0.0124 0.0393,0 0.0124,-0.0373 -0.0236,-0.0865 0,-0.11796 0.0249,-0.0332 0.0848,-0.0144 0.11795,-0.0393 0.0234,-0.0176 0.0242,-0.0535 0.0393,-0.0786 0.0243,-0.0405 0.0543,-0.0774 0.0786,-0.11795 0.0151,-0.0251 0.0231,-0.0542 0.0393,-0.0786 0.0103,-0.0154 0.0335,-0.0217 0.0393,-0.0393 0.008,-0.0249 -0.0135,-0.0562 0,-0.0786 0.0286,-0.0477 0.0846,-0.0735 0.11796,-0.11796 0.0157,-0.021 -0.0117,-0.0552 0,-0.0786 0.059,-0.11795 0.0393,0.0786 0.11795,-0.11795 0.0146,-0.0365 -0.01,-0.0798 0,-0.11796 0.004,-0.018 0.0262,-0.0262 0.0393,-0.0393 0.0131,-0.0131 0.0227,-0.031 0.0393,-0.0393 0.0117,-0.006 0.0301,0.009 0.0393,0 0.009,-0.009 -0.006,-0.0276 0,-0.0393 0.0166,-0.0332 0.0581,-0.0478 0.0786,-0.0786 0.0163,-0.0244 0.0186,-0.0579 0.0393,-0.0786 0.0738,-0.0738 0.14822,-0.0174 0.23591,-0.0393 0.018,-0.005 0.0217,-0.0335 0.0393,-0.0393 0.018,-0.006 0.17465,0 0.19659,0 0.0457,0 0.16095,-0.009 0.1966,0 0.0649,0.0162 0.15958,0.10793 0.19659,0.15727 0.0176,0.0234 0.021,0.0557 0.0393,0.0786 0.0347,0.0434 0.0871,0.0717 0.11795,0.11796 0.023,0.0345 0.023,0.0799 0.0393,0.11796 0.0231,0.0539 0.0601,0.10167 0.0786,0.15727 0.008,0.0249 -0.006,0.0532 0,0.0786 0.0142,0.0569 0.0671,0.0998 0.0786,0.15727 0.008,0.0385 -0.008,0.0794 0,0.11796 0.0173,0.0865 0.0674,0.0899 0.11796,0.15727 0.0176,0.0234 0.0284,0.0514 0.0393,0.0786 0.0757,0.18933 0.004,0.0515 0.0786,0.27523 0.009,0.0278 0.0262,0.0524 0.0393,0.0786 0.0393,0.0786 0.0853,0.15428 0.11795,0.23592 0.005,0.0122 0,0.0262 0,0.0393 0.0131,0.0393 0.023,0.0799 0.0393,0.11796 0.0231,0.0539 0.0581,0.10239 0.0786,0.15727 0.12964,0.0465 0.0182,0.1332 0.0393,0.1966 0.009,0.0278 0.0336,0.0499 0.0393,0.0786 0.008,0.0386 0,0.0786 0,0.11795 0,0.0262 -0.0135,0.0562 0,0.0786 0.0286,0.0477 0.0931,0.0682 0.11796,0.11796 0.0584,0.0412 -0.0195,0.1086 0,0.15727 0.0218,0.0544 0.0581,0.10239 0.0786,0.15728 0.019,0.0506 0.0192,0.1071 0.0393,0.15727 0.007,0.0172 0.031,0.0227 0.0393,0.0393 0.0185,0.0371 0.0163,0.0835 0.0393,0.11795 0.0308,0.0463 0.0832,0.0745 0.11796,0.11796 0.0183,0.0229 0.0231,0.0542 0.0393,0.0786 0.0103,0.0154 0.0298,0.0234 0.0393,0.0393 0.0262,0.0524 0.0524,0.10485 0.0786,0.15727 0,0.0131 -0.004,0.0269 0,0.0393 0.0294,0.0883 0.0731,0.10687 0.11795,0.1966 0.006,0.0117 -0.006,0.0276 0,0.0393 0.0225,0.0451 0.082,0.0547 0.11796,0.0786 0.0308,0.0206 0.0435,0.0669 0.0786,0.0786 0.0418,0.0139 0.11549,-0.0139 0.15727,0 0.0278,0.009 0.0502,0.0322 0.0786,0.0393 0.0381,0.01 0.0786,0 0.11796,0 0.0262,0 0.0524,0 0.0786,0 0.0262,0 0.0601,0.0185 0.0786,0 0.0185,-0.0185 -0.0117,-0.0552 0,-0.0786 0.0166,-0.0332 0.0621,-0.0455 0.0786,-0.0786 0.0371,-0.0741 0.0585,-0.1555 0.0786,-0.23592 0.006,-0.0254 -0.004,-0.0528 0,-0.0786 0.009,-0.0533 0.0287,-0.10428 0.0393,-0.15727 0.003,-0.0129 -0.006,-0.0276 0,-0.0393 0.008,-0.0166 0.0348,-0.0213 0.0393,-0.0393 0.006,-0.0231 -0.01,-0.21664 0,-0.23591 0.008,-0.0166 0.031,-0.0227 0.0393,-0.0393 0.006,-0.0117 0,-0.0262 0,-0.0393 0,-0.0103 -0.007,-0.21614 0,-0.23591 0.009,-0.0278 0.0345,-0.0497 0.0393,-0.0786 0.009,-0.0517 0,-0.10485 0,-0.15727 0,-0.0262 -0.008,-0.0538 0,-0.0786 0.009,-0.0278 0.0322,-0.0502 0.0393,-0.0786 0.005,-0.0192 -0.0104,-0.13649 0,-0.15728 0.008,-0.0166 0.031,-0.0227 0.0393,-0.0393 0.006,-0.0117 -0.009,-0.0301 0,-0.0393 0.009,-0.009 0.0262,0 0.0393,0 0.0131,0 0.0262,0 0.0393,0 0.0498,0 0.25944,-0.008 0.27522,0 0.0262,0.0131 0.0231,0.0542 0.0393,0.0786 0.048,0.0719 0.0501,0.004 0.0786,0.11796 0.006,0.0254 -0.006,0.0532 0,0.0786 0.007,0.0284 0.0301,0.0508 0.0393,0.0786 0.0171,0.0513 0.0151,0.10894 0.0393,0.15727 0.0166,0.0332 0.0581,0.0478 0.0786,0.0786 0.0145,0.0218 -0.006,0.0532 0,0.0786 0.01,0.0402 0.0312,0.0773 0.0393,0.11796 0.008,0.0386 -0.0124,0.0807 0,0.11795 0.009,0.0278 0.0322,0.0502 0.0393,0.0786 0.01,0.0381 -0.0124,0.0807 0,0.11796 0.009,0.0278 0.0284,0.0514 0.0393,0.0786 0.0154,0.0385 0.0239,0.0795 0.0393,0.11795 0.0109,0.0272 0.0301,0.0508 0.0393,0.0786 0.009,0.0266 -0.01,0.1446 0,0.15728 0.0334,0.0445 0.0846,0.0735 0.11796,0.11795 0.008,0.0105 0,0.0262 0,0.0393 0,0.0262 -0.008,0.0538 0,0.0786 0.006,0.0176 0.0348,0.0213 0.0393,0.0393 0,0.22361 -0.0176,0.0259 0.0393,0.19659 0.004,0.0124 -0.006,0.0276 0,0.0393 0.008,0.0166 0.0239,0.029 0.0393,0.0393 0.0244,0.0163 0.0502,0.0322 0.0786,0.0393 0.0299,0.008 0.16367,0 0.19659,0 0.0262,0 0.0552,0.0117 0.0786,0 0.0332,-0.0166 0.0524,-0.0524 0.0786,-0.0786 0.12008,-0.12008 0.0621,-0.0455 0.15728,-0.23591 0.0131,-0.0262 0.0322,-0.0502 0.0393,-0.0786 0.006,-0.0254 0,-0.0524 0,-0.0786 0,-0.0262 0,-0.0524 0,-0.0786 0,-0.13106 0,-0.26212 0,-0.39318 0,-0.13106 0,-0.26213 0,-0.39319 0,-0.0524 0,-0.10485 0,-0.15727 0,-0.0393 0,-0.0786 0,-0.11796 0,-0.0131 0.003,-0.0265 0,-0.0393 -0.0106,-0.053 -0.0287,-0.10428 -0.0393,-0.15727 -0.003,-0.0129 0.004,-0.0269 0,-0.0393 -0.009,-0.0278 -0.0301,-0.0508 -0.0393,-0.0786 -0.004,-0.0124 0,-0.0262 0,-0.0393 0,-0.0655 0,-0.13106 0,-0.19659 0,-0.13106 0,-0.26213 0,-0.39319 0,-0.0393 0,-0.0786 0,-0.11795 0,-0.0262 -0.0117,-0.0552 0,-0.0786 0.006,-0.0117 0.0301,0.009 0.0393,0 0.009,-0.009 -0.009,-0.03 0,-0.0393 0.0334,-0.0334 0.0741,-0.0611 0.11795,-0.0786 0.0243,-0.01 0.0524,0 0.0786,0 0.0964,0 0.12072,-0.0176 0.19659,0.0393 0.15216,0.11411 0.0256,0.0974 0.11796,0.23591 0.0103,0.0154 0.029,0.0239 0.0393,0.0393 0.0461,0.0692 0.0467,0.11666 0.0786,0.19659 0.0109,0.0272 0.0231,0.0542 0.0393,0.0786 0.0103,0.0154 0.0335,0.0217 0.0393,0.0393 0.008,0.0249 -0.005,0.0529 0,0.0786 0.008,0.0406 0.0312,0.0773 0.0393,0.11796 0.0103,0.0514 -0.0166,0.10753 0,0.15727 0.006,0.0176 0.0348,0.0213 0.0393,0.0393 0.01,0.0382 -0.01,0.0798 0,0.11796 0.004,0.018 0.031,0.0227 0.0393,0.0393 0.006,0.0117 -0.003,0.0266 0,0.0393 0.01,0.0402 0.0312,0.0773 0.0393,0.11795 0.008,0.0385 -0.0124,0.0807 0,0.11796 0.0131,0.0262 0.0262,0.0524 0.0393,0.0786 0.0131,0 0.03,-0.009 0.0393,0 0.009,0.009 -0.009,0.0301 0,0.0393 0.009,0.009 0.0262,0 0.0393,0 0.0131,0 0.0262,0 0.0393,0 0.0393,0 0.0828,0.0176 0.11795,0 0.0657,-0.0329 0.0371,-0.25133 0.0393,-0.27523 0.008,-0.0923 0.0301,-0.18302 0.0393,-0.27523 0.008,-0.076 0,-0.15895 0,-0.23591 0,-0.1966 0,-0.39319 0,-0.58978 0,-0.14417 0,-0.28834 0,-0.4325 0,-0.007 -0.002,-0.27226 0,-0.27523 0.0131,-0.0262 0.0579,-0.0186 0.0786,-0.0393 0.009,-0.009 -0.009,-0.0301 0,-0.0393 0.009,-0.009 0.0262,0 0.0393,0 0.1921,0 0.0902,-0.0278 0.27523,0.15727 0.0643,0.0643 0.0832,0.0749 0.11796,0.19659 0.0108,0.0378 -0.01,0.0798 0,0.11796 0.005,0.018 0.0335,0.0217 0.0393,0.0393 0.008,0.0249 -0.008,0.0538 0,0.0786 0.006,0.0176 0.0282,0.0245 0.0393,0.0393 0.0283,0.0378 0.0611,0.0741 0.0786,0.11795 0.01,0.0243 -0.008,0.0538 0,0.0786 0.006,0.0176 0.031,0.0227 0.0393,0.0393 0.006,0.0117 -0.006,0.0276 0,0.0393 0.008,0.0166 0.031,0.0227 0.0393,0.0393 0.006,0.0117 -0.009,0.0301 0,0.0393 0.009,0.009 0.0269,-0.004 0.0393,0 0.0278,0.009 0.0502,0.0322 0.0786,0.0393 0.007,0.002 0.18972,0.002 0.19659,0 0.0284,-0.007 0.0579,-0.0186 0.0786,-0.0393 0.0569,-0.0569 0.0393,-0.12567 0.0393,-0.19659 0,-0.0524 0,-0.10485 0,-0.15727 0,-0.15728 0,-0.31455 0,-0.47182 0,-0.0524 0,-0.10485 0,-0.15728 0,-0.0131 -0.009,-0.0301 0,-0.0393 0.009,-0.009 0.0266,-0.003 0.0393,0 0.0402,0.0101 0.0848,0.0145 0.11796,0.0393 0.0763,0.0572 0.0167,0.0894 0.0393,0.15728 0.0117,0.0352 0.0621,0.0455 0.0786,0.0786 0.18986,0.37973 -0.0506,-0.0733 0.0393,0.19659 0.006,0.0176 0.0335,0.0217 0.0393,0.0393 0.09,0.26992 -0.15055,-0.18314 0.0393,0.19659 0.008,0.0166 0.0335,0.0217 0.0393,0.0393 0.008,0.0249 -0.0117,0.0552 0,0.0786 0.006,0.0117 0.0276,-0.006 0.0393,0 0.0166,0.008 0.0262,0.0262 0.0393,0.0393 0.0131,0.0131 0.0227,0.031 0.0393,0.0393 0.0117,0.006 0.0262,0 0.0393,0 0.0393,0 0.0786,0 0.11795,0 0.0393,0 0.0991,0.0345 0.11796,0 0.13651,-0.25026 0.11795,-0.45286 0.11795,-0.70773 0,-0.15727 0,-0.31455 0,-0.47182 0,-0.31455 0,-0.6291 0,-0.94365 0,-0.10484 0,-0.20969 0,-0.31454 0,-0.0262 0.0117,-0.0552 0,-0.0786 -0.006,-0.0117 -0.0335,0.0117 -0.0393,0 -0.0117,-0.0234 0.005,-0.0529 0,-0.0786 -0.008,-0.0406 -0.0293,-0.0778 -0.0393,-0.11796 -0.006,-0.0254 0.008,-0.0538 0,-0.0786 -0.009,-0.0278 -0.0322,-0.0502 -0.0393,-0.0786 -0.006,-0.0254 0.006,-0.0532 0,-0.0786 -0.0142,-0.0569 -0.0569,-0.10285 -0.0786,-0.15727 -0.0154,-0.0385 -0.018,-0.0824 -0.0393,-0.11796 -0.0191,-0.0318 -0.0564,-0.049 -0.0786,-0.0786 -0.0835,-0.11138 -0.0102,-0.041 -0.0393,-0.15727 -0.0475,-0.18987 -0.0187,0.002 -0.0786,-0.11796 -0.006,-0.0117 0,-0.0262 0,-0.0393 0,-0.0393 0.01,-0.0798 0,-0.11795 -0.005,-0.018 -0.0262,-0.0262 -0.0393,-0.0393 -0.0131,-0.0393 -0.0312,-0.0773 -0.0393,-0.11796 -0.003,-0.0152 0.003,-0.1508 0,-0.15727 -0.0166,-0.0332 -0.0564,-0.049 -0.0786,-0.0786 -0.0914,-0.12191 -0.0186,-0.0352 -0.0393,-0.11796 -0.01,-0.0402 -0.0239,-0.0795 -0.0393,-0.11795 0.0196,-0.0697 -0.0611,-0.0741 -0.0786,-0.11796 -0.0201,-0.0502 -0.0304,-0.10397 -0.0393,-0.15727 -0.004,-0.0259 0,-0.0524 0,-0.0786 0,-0.0131 0.004,-0.0269 0,-0.0393 -0.009,-0.0278 -0.03,-0.0508 -0.0393,-0.0786 -0.0367,-0.1102 0.12031,0.0662 -0.0393,-0.15728 -0.0431,-0.0603 -0.11279,-0.098 -0.15727,-0.15727 -0.0695,-0.0926 -0.093,-0.21814 -0.15727,-0.31455 -0.0742,-0.11133 -0.0252,0.0745 -0.11796,-0.15727 -0.01,-0.0243 0.0117,-0.0552 0,-0.0786 -0.0166,-0.0332 -0.0581,-0.0478 -0.0786,-0.0786 -0.007,-0.0109 0.004,-0.0269 0,-0.0393 -0.0524,-0.15727 -0.0377,0.008 -0.0786,-0.19659 -0.005,-0.0257 0.01,-0.0543 0,-0.0786 -0.0175,-0.0439 -0.0575,-0.0757 -0.0786,-0.11796 -0.0185,-0.0371 -0.0312,-0.0773 -0.0393,-0.11795 -0.005,-0.0257 0.0117,-0.0552 0,-0.0786 -0.006,-0.0117 -0.03,0.009 -0.0393,0 -0.009,-0.009 0.003,-0.0266 0,-0.0393 -0.01,-0.0402 -0.0293,-0.0778 -0.0393,-0.11796 -0.003,-0.0127 0.009,-0.03 0,-0.0393 -0.009,-0.009 -0.0262,0 -0.0393,0 0,-0.0262 0.008,-0.0538 0,-0.0786 -0.0293,-0.088 -0.0611,0.003 -0.11795,-0.0393 -0.0378,-0.0284 -0.0452,-0.0845 -0.0786,-0.11795 -0.009,-0.009 -0.03,0.009 -0.0393,0 -0.0207,-0.0207 -0.0231,-0.0542 -0.0393,-0.0786 -0.0334,-0.0501 -0.12094,-0.10883 -0.15728,-0.15728 -0.0176,-0.0234 -0.0186,-0.0579 -0.0393,-0.0786 -0.0207,-0.0207 -0.0579,-0.0186 -0.0786,-0.0393 -0.009,-0.009 0.009,-0.03 0,-0.0393 -0.0207,-0.0207 -0.0524,-0.0262 -0.0786,-0.0393 -0.0262,-0.0393 -0.0452,-0.0845 -0.0786,-0.11795 -0.20093,-0.20093 0.0548,0.16486 -0.15727,-0.11796 -0.0352,-0.0469 -0.0435,-0.11038 -0.0786,-0.15727 -0.17006,-0.17007 -0.006,0.0104 -0.11796,-0.15728 -0.0103,-0.0154 -0.031,-0.0227 -0.0393,-0.0393 -0.0185,-0.0371 -0.0208,-0.0809 -0.0393,-0.11795 -0.0211,-0.0423 -0.0611,-0.0741 -0.0786,-0.11796 -0.01,-0.0243 0.0185,-0.0601 0,-0.0786 -0.0185,-0.0185 -0.0601,0.0185 -0.0786,0 -0.0293,-0.0293 -0.0208,-0.0809 -0.0393,-0.11795 -0.0604,-0.1208 -0.0222,0.065 -0.11795,-0.0786 -0.0145,-0.0218 0.0145,-0.0568 0,-0.0786 -0.0163,-0.0244 -0.0611,-0.0159 -0.0786,-0.0393 -0.0249,-0.0332 -0.0144,-0.0848 -0.0393,-0.11796 -0.0176,-0.0234 -0.0552,-0.0217 -0.0786,-0.0393 -0.0297,-0.0222 -0.0524,-0.0524 -0.0786,-0.0786 -0.0131,-0.0131 -0.0227,-0.031 -0.0393,-0.0393 -0.0371,-0.0185 -0.0887,-0.01 -0.11796,-0.0393 -0.0293,-0.0293 -0.0145,-0.0848 -0.0393,-0.11795 -0.0176,-0.0234 -0.0542,-0.0231 -0.0786,-0.0393 -0.0154,-0.0103 -0.0245,-0.0282 -0.0393,-0.0393 -0.0378,-0.0283 -0.0845,-0.0452 -0.11795,-0.0786 -0.0207,-0.0207 -0.0217,-0.0552 -0.0393,-0.0786 -0.055,-0.0734 -0.14155,-0.1232 -0.19659,-0.1966 -0.15728,-0.20969 0.0131,-0.0393 -0.1966,-0.19659 -0.0148,-0.0111 -0.031,-0.0227 -0.0393,-0.0393 -0.021,-0.0419 0.0389,-0.0526 -0.0393,-0.0786 -0.0249,-0.008 -0.0577,0.0157 -0.0786,0 -0.0378,-0.0283 -0.0503,-0.0802 -0.0786,-0.11795 -0.0196,-0.0262 -0.0918,-0.0983 -0.11795,-0.11796 -0.0378,-0.0284 -0.0845,-0.0452 -0.11796,-0.0786 -0.0207,-0.0207 -0.0217,-0.0552 -0.0393,-0.0786 -0.0222,-0.0297 -0.0524,-0.0524 -0.0786,-0.0786 -0.0655,-0.0655 -0.13106,-0.13106 -0.19659,-0.19659 -0.0262,-0.0262 -0.0502,-0.0549 -0.0786,-0.0786 -0.0503,-0.0419 -0.10038,-0.0854 -0.15727,-0.11796 -0.036,-0.0206 -0.0886,-0.01 -0.11796,-0.0393 -0.0293,-0.0293 -0.007,-0.0914 -0.0393,-0.11795 -0.0542,-0.0452 -0.13346,-0.0471 -0.19659,-0.0786 -0.0166,-0.008 -0.0217,-0.0335 -0.0393,-0.0393 -0.0249,-0.008 -0.0538,0.008 -0.0786,0 -0.0176,-0.006 -0.0227,-0.031 -0.0393,-0.0393 -0.0371,-0.0185 -0.0809,-0.0208 -0.11796,-0.0393 -0.0166,-0.008 -0.0262,-0.0262 -0.0393,-0.0393 -0.0393,-0.0393 -0.0846,-0.0735 -0.11795,-0.11796 -0.008,-0.0105 0.0109,-0.032 0,-0.0393 -0.0345,-0.023 -0.0777,-0.0293 -0.11796,-0.0393 -0.0161,-0.004 -0.0739,0.005 -0.0786,0 -0.009,-0.009 0.009,-0.0301 0,-0.0393 -0.1533,-0.1533 -0.0632,-0.0453 -0.19659,-0.0786 -0.0284,-0.007 -0.0508,-0.0301 -0.0786,-0.0393 -0.0124,-0.004 -0.0269,0.004 -0.0393,0 -0.0278,-0.009 -0.0508,-0.0301 -0.0786,-0.0393 -0.0124,-0.004 -0.0269,0.004 -0.0393,0 -0.0278,-0.009 -0.0499,-0.0336 -0.0786,-0.0393 -0.0474,-0.009 -0.28998,0.0123 -0.31455,0 -0.0166,-0.008 -0.0217,-0.0335 -0.0393,-0.0393 -0.0622,-0.0207 -0.13442,0.0207 -0.19659,0 -0.0124,-0.004 0.009,-0.0301 0,-0.0393 -0.009,-0.009 -0.14781,0.009 -0.15728,0 -0.0293,-0.0293 -0.01,-0.0887 -0.0393,-0.11796 -0.0414,-0.0414 -0.10701,-0.0485 -0.15727,-0.0786 -0.0159,-0.01 -0.0262,-0.0262 -0.0393,-0.0393 -0.0393,-0.0393 -0.0745,-0.0832 -0.11795,-0.11796 -0.0229,-0.0183 -0.0542,-0.0231 -0.0786,-0.0393 -0.0957,-0.0638 0.0295,-0.0467 -0.11796,-0.15727 -0.021,-0.0157 -0.0577,0.0157 -0.0786,0 -0.0378,-0.0284 -0.0393,-0.0918 -0.0786,-0.11796 -0.045,-0.03 -0.10894,-0.0152 -0.15727,-0.0393 -0.0117,-0.006 0.009,-0.03 0,-0.0393 -0.0514,-0.0513 -0.14795,-0.0448 -0.19682,-0.11807 -0.0893,-0.13387 -0.10274,-0.33003 -0.15727,-0.47182 -0.0392,-0.10188 -0.2258,-0.43425 -0.27523,-0.51114 -0.12193,-0.18967 -0.26315,-0.36624 -0.39318,-0.55046 -0.18347,-0.16227 -0.25769,-0.39621 -0.39319,-0.58978 -0.0481,-0.0688 -0.11974,-0.12153 -0.15727,-0.19659 -0.0427,-0.0853 -0.046,-0.18556 -0.0786,-0.27523 -0.0401,-0.11017 -0.11611,-0.20478 -0.15728,-0.31455 -0.019,-0.0506 -0.0222,-0.106 -0.0393,-0.15727 -0.0223,-0.067 -0.0592,-0.12873 -0.0786,-0.19659 -0.007,-0.0252 0.005,-0.0529 0,-0.0786 -0.008,-0.0406 -0.0279,-0.0781 -0.0393,-0.11795 -0.0148,-0.052 -0.0222,-0.10601 -0.0393,-0.15728 -0.009,-0.0278 -0.0284,-0.0514 -0.0393,-0.0786 -0.0308,-0.077 -0.0559,-0.1562 -0.0787,-0.23591 -0.0987,-0.34559 0.0156,0.008 -0.0786,-0.27523 -0.0262,-0.0786 -0.0416,-0.16177 -0.0787,-0.23591 -0.0166,-0.0332 -0.062,-0.0455 -0.0786,-0.0786 -0.0242,-0.0483 -0.0245,-0.10532 -0.0393,-0.15728 -0.0114,-0.0399 -0.0312,-0.0773 -0.0393,-0.11795 -0.005,-0.0257 0.0117,-0.0552 0,-0.0786 -0.0166,-0.0332 -0.0564,-0.049 -0.0786,-0.0786 -0.0176,-0.0234 -0.0217,-0.0552 -0.0393,-0.0786 -0.0222,-0.0297 -0.0524,-0.0524 -0.0786,-0.0786 -0.0131,-0.0131 -0.0239,-0.029 -0.0393,-0.0393 -0.0244,-0.0163 -0.0603,-0.0164 -0.0786,-0.0393 -0.0366,-0.0458 -0.0541,-0.10405 -0.0786,-0.15727 -0.45006,-1.01263 0.0145,-0.0211 -0.23592,-0.47182 -0.0427,-0.0769 -0.0692,-0.16276 -0.11795,-0.23591 -0.0308,-0.0463 -0.0856,-0.0727 -0.11796,-0.11796 -0.0341,-0.0477 -0.0548,-0.10371 -0.0786,-0.15727 -0.0287,-0.0645 -0.0363,-0.14013 -0.0786,-0.1966 -0.0393,-0.0524 -0.11532,-0.0676 -0.15727,-0.11795 -0.0265,-0.0318 -0.0188,-0.082 -0.0393,-0.11796 -0.0325,-0.0569 -0.0786,-0.10485 -0.11796,-0.15727 -0.0262,-0.0655 -0.0471,-0.13347 -0.0786,-0.19659 -0.0211,-0.0423 -0.0552,-0.0769 -0.0786,-0.11796 -0.004,-0.006 -0.15606,-0.31303 -0.15727,-0.31455 -0.0183,-0.0229 -0.0579,-0.0186 -0.0786,-0.0393 -0.0207,-0.0207 -0.0262,-0.0524 -0.0393,-0.0786 -0.0131,-0.0262 -0.0262,-0.0524 -0.0393,-0.0786 -0.14254,-0.28508 0.0414,0.0622 -0.0786,-0.11795 -0.11448,-0.17173 0.0174,0.013 -0.0393,-0.15728 -0.0151,-0.0452 -0.0939,-0.0546 -0.11795,-0.0786 -0.0207,-0.0207 -0.0186,-0.0579 -0.0393,-0.0786 -0.009,-0.009 -0.0301,0.009 -0.0393,0 -0.009,-0.009 0.004,-0.0269 0,-0.0393 -0.009,-0.0278 -0.0186,-0.0579 -0.0393,-0.0786 -0.003,-0.003 -0.14995,-0.0738 -0.15728,-0.0786 -0.0779,0.004 -0.0186,-0.0579 -0.0393,-0.0786 -0.0334,-0.0334 -0.0811,-0.0491 -0.11796,-0.0786 -0.0289,-0.0232 -0.0524,-0.0524 -0.0786,-0.0786 -0.0393,-0.0262 -0.0802,-0.0503 -0.11796,-0.0786 -0.0795,-0.0597 -0.0174,-0.013 -0.0393,-0.0786 -0.009,-0.0278 -0.0231,-0.0542 -0.0393,-0.0786 -0.0103,-0.0154 -0.031,-0.0227 -0.0393,-0.0393 -0.006,-0.0117 0.009,-0.03 0,-0.0393 -0.0185,-0.0185 -0.0601,0.0185 -0.0786,0 -0.0334,-0.0334 -0.0452,-0.0845 -0.0786,-0.11796 -0.0207,-0.0207 -0.0508,-0.0301 -0.0786,-0.0393 -0.0249,-0.008 -0.0524,0 -0.0786,0 -0.0655,0 -0.13106,0 -0.19659,0 -0.0262,0 -0.0568,-0.0145 -0.0786,0 -0.0513,0.0342 -0.0393,0.10752 -0.0393,0.15728 0,0.0131 0.007,0.0284 0,0.0393 -0.0206,0.0309 -0.0649,0.0442 -0.0786,0.0786 -0.0146,0.0365 0,0.0786 0,0.11796 0,0.0393 0,0.0786 0,0.11795 0,0.14417 0,0.28834 0,0.43251 0,0.0455 -0.009,0.16149 0,0.19659 0.007,0.0284 0.0322,0.0502 0.0393,0.0786 0.006,0.0254 0,0.0524 0,0.0786 0,0.0655 0,0.13106 0,0.19659 0,0.0262 -0.006,0.0532 0,0.0786 0.007,0.0284 0.0262,0.0524 0.0393,0.0786 0.0131,0.0524 0.0304,0.10397 0.0393,0.15727 0.006,0.0388 0,0.0786 0,0.11796 0,0.11795 0,0.23591 0,0.35386 0,0.0524 -0.007,0.10538 0,0.15728 0.006,0.041 0.0312,0.0773 0.0393,0.11795 0.005,0.0257 -0.005,0.0529 0,0.0786 0.008,0.0406 0.0325,0.0771 0.0393,0.11796 0.007,0.0388 -0.007,0.0792 0,0.11795 0.007,0.0409 0.0325,0.0771 0.0393,0.11796 0.007,0.0388 -0.01,0.0798 0,0.11795 0.004,0.018 0.0357,0.0212 0.0393,0.0393 0,0.0524 0,0.10485 0,0.15727 0.0131,0.0131 0.0348,0.0213 0.0393,0.0393 0.01,0.0382 -0.009,0.0798 0,0.11796 0.005,0.018 0.0348,0.0213 0.0393,0.0393 0,0.0393 0,0.0786 0,0.11795 0.0131,0.0131 0.0335,0.0217 0.0393,0.0393 0.008,0.0249 0,0.0524 0,0.0786 0,0.0786 0,0.15727 0,0.23591 0,0.0262 0,0.0524 0,0.0786 0,0.0131 -0.004,0.0269 0,0.0393 0.009,0.0278 0.0322,0.0502 0.0393,0.0786 0.0393,0.15728 -0.0197,0.0197 0,0.11796 0.0106,0.053 0.0287,0.10428 0.0393,0.15727 0.003,0.0128 0,0.0262 0,0.0393 0,0.0393 0,0.0786 0,0.11795 0,0.10485 0,0.2097 0,0.31455 0,0.15728 0,0.31455 0,0.47182 0,0.0524 0,0.10485 0,0.15728 0,0.0131 0.006,0.051 0,0.0393 -0.0185,-0.0371 -0.0208,-0.0809 -0.0393,-0.11796 -0.0211,-0.0423 -0.0575,-0.0757 -0.0786,-0.11795 -0.0316,-0.0631 -0.0444,-0.1349 -0.0786,-0.1966 -0.0318,-0.0573 -0.0816,-0.10274 -0.11796,-0.15727 -0.0488,-0.0731 -0.0692,-0.16276 -0.11795,-0.23591 -0.0206,-0.0308 -0.0524,-0.0524 -0.0786,-0.0786 -0.0262,-0.0262 -0.0524,-0.0524 -0.0786,-0.0786 -0.0262,-0.0262 -0.0564,-0.049 -0.0786,-0.0786 -0.0176,-0.0234 -0.0217,-0.0552 -0.0393,-0.0786 -0.0222,-0.0297 -0.0524,-0.0524 -0.0786,-0.0786 -0.0131,-0.0131 -0.0239,-0.029 -0.0393,-0.0393 -0.0244,-0.0163 -0.0552,-0.0217 -0.0786,-0.0393 -0.10358,-0.0777 -0.093,-0.15823 -0.1966,-0.23591 -0.0234,-0.0176 -0.0524,-0.0262 -0.0786,-0.0393 -0.0262,-0.0393 -0.0452,-0.0845 -0.0786,-0.11796 -0.0207,-0.0207 -0.0579,-0.0186 -0.0786,-0.0393 -0.0207,-0.0207 -0.0186,-0.0579 -0.0393,-0.0786 -0.0334,-0.0334 -0.0845,-0.0452 -0.11795,-0.0786 -0.0334,-0.0334 -0.0491,-0.0811 -0.0786,-0.11796 -0.0232,-0.0289 -0.0524,-0.0524 -0.0786,-0.0786 -0.0393,-0.0524 -0.077,-0.10611 -0.11796,-0.15728 -0.0786,-0.0983 0,0.0393 -0.11795,-0.11795 -0.0176,-0.0234 -0.021,-0.0558 -0.0393,-0.0786 -0.0176,-0.022 -0.25332,-0.25697 -0.27523,-0.27523 -0.0363,-0.0302 -0.0845,-0.0452 -0.11796,-0.0786 -0.0207,-0.0207 -0.0217,-0.0552 -0.0393,-0.0786 -0.0222,-0.0297 -0.0524,-0.0524 -0.0786,-0.0786 -0.0131,-0.0131 -0.0245,-0.0282 -0.0393,-0.0393 -0.0378,-0.0284 -0.0845,-0.0452 -0.11795,-0.0786 -0.0207,-0.0207 -0.0242,-0.0535 -0.0393,-0.0786 -0.0243,-0.0405 -0.0543,-0.0774 -0.0786,-0.11796 -0.0151,-0.0251 -0.0217,-0.0552 -0.0393,-0.0786 -0.0613,-0.0819 -0.12984,-0.15819 -0.19646,-0.23591 -0.0597,-0.0696 -0.1318,-0.13181 -0.19659,-0.1966 -0.11411,-0.11411 -0.21791,-0.22391 -0.35387,-0.31454 -0.0244,-0.0163 -0.0542,-0.0231 -0.0786,-0.0393 -0.0154,-0.0103 -0.0239,-0.029 -0.0393,-0.0393 -0.007,-0.005 -0.15475,-0.0761 -0.15727,-0.0786 -0.009,-0.009 0.009,-0.03 0,-0.0393 -0.0334,-0.0334 -0.0845,-0.0452 -0.11796,-0.0786 -0.009,-0.009 0.009,-0.03 0,-0.0393 -0.0185,-0.0185 -0.0601,0.0185 -0.0786,0 -0.009,-0.009 0.009,-0.0301 0,-0.0393 -0.009,-0.009 -0.0262,0 -0.0393,0 -0.0393,-0.0262 -0.0845,-0.0452 -0.11795,-0.0786 -0.009,-0.009 0.004,-0.0269 0,-0.0393 -0.009,-0.0278 -0.0231,-0.0542 -0.0393,-0.0786 -0.0307,-0.0461 -0.13095,-0.0969 -0.15728,-0.11796 -0.029,-0.0232 -0.0455,-0.0621 -0.0786,-0.0786 -0.0234,-0.0117 -0.0538,0.008 -0.0786,0 -0.0556,-0.0185 -0.10701,-0.0485 -0.15727,-0.0786 -0.0159,-0.01 -0.0217,-0.0335 -0.0393,-0.0393 -0.0249,-0.008 -0.0552,0.0117 -0.0786,0 -0.0117,-0.006 0.0117,-0.0335 0,-0.0393 -0.0234,-0.0117 -0.0552,0.0117 -0.0786,0 -0.0117,-0.006 0.0117,-0.0335 0,-0.0393 -0.0234,-0.0117 -0.0524,0 -0.0786,0 -0.0131,0 -0.0262,0 -0.0393,0 -0.0131,0 -0.0301,-0.009 -0.0393,0 -0.009,0.009 0,0.0262 0,0.0393 0,0.0131 0,0.0262 0,0.0393 0,0.009 -0.0312,0.30098 0.0393,0.35386 0.0332,0.0249 0.0824,0.018 0.11795,0.0393 0.0495,0.0297 0.1476,0.1574 0.1966,0.1966 0.0369,0.0295 0.0786,0.0524 0.11795,0.0786 0.0524,0.0524 0.10148,0.10846 0.15728,0.15728 0.0493,0.0431 0.11795,0.0655 0.15727,0.11795 0.0423,0.0565 0.0471,0.13347 0.0786,0.19659 0.0342,0.0684 0.0774,0.13179 0.11796,0.1966 0.025,0.0401 0.0575,0.0757 0.0786,0.11795 0.0316,0.0631 0.0444,0.1349 0.0786,0.19659 -0.009,0.11614 0.11072,0.12677 0.15727,0.1966 0.0325,0.0488 0.0435,0.11038 0.0786,0.15727 0.0222,0.0297 0.0524,0.0524 0.0786,0.0786 0.0716,0.0716 0.06,0.0517 0.11795,0.19659 0.005,0.0122 -0.008,0.0288 0,0.0393 0.0334,0.0445 0.0846,0.0735 0.11796,0.11795 0.008,0.0105 -0.003,0.0266 0,0.0393 0.0101,0.0402 0.0279,0.0781 0.0393,0.11796 0.0698,0.24439 0.002,0.0827 0.11795,0.35387 0.0115,0.0269 0.0217,0.0552 0.0393,0.0786 0.0791,0.10547 0.0992,0.0462 0.11796,0.1966 0.008,0.065 0,0.13106 0,0.19659 0,0.0393 -0.0146,0.0814 0,0.11795 0.0138,0.0344 0.0621,0.0455 0.0786,0.0786 0.0419,0.0839 -0.028,0.062 0,0.11796 0.0211,0.0423 0.0575,0.0757 0.0786,0.11795 0.006,0.0117 -0.007,0.0284 0,0.0393 0.0895,0.13425 0.0875,0.014 0.11796,0.19659 0.006,0.0388 -0.008,0.0794 0,0.11796 0.006,0.0287 0.0345,0.0497 0.0393,0.0786 0.009,0.0517 -0.0166,0.10754 0,0.15728 0.0117,0.0352 0.062,0.0455 0.0786,0.0786 0.0242,0.0483 0.0262,0.10485 0.0393,0.15728 0.0131,0.0524 0.0287,0.10428 0.0393,0.15727 0.003,0.0128 -0.007,0.0284 0,0.0393 0.0206,0.0308 0.0596,0.0468 0.0786,0.0786 0.14239,0.23733 -0.0206,0.0167 0.0393,0.19659 0.006,0.0176 0.0262,0.0262 0.0393,0.0393 0.0131,0.0262 0.0322,0.0502 0.0393,0.0786 0.01,0.0381 -0.0124,0.0807 0,0.11795 0.009,0.0278 0.0336,0.0499 0.0393,0.0786 0.008,0.0385 0,0.0786 0,0.11795 0,0.0262 -0.0117,0.0552 0,0.0786 0.006,0.0117 0.0335,-0.0117 0.0393,0 0.0154,0.0308 -0.0154,0.21284 0,0.23591 0.0163,0.0244 0.0579,0.0186 0.0786,0.0393 0.009,0.009 -0.006,0.0276 0,0.0393 0.008,0.0166 0.0335,0.0217 0.0393,0.0393 0.008,0.0249 -0.005,0.0529 0,0.0786 0.008,0.0406 0.0312,0.0773 0.0393,0.11796 0.005,0.0257 -0.008,0.0538 0,0.0786 0.0117,0.0352 0.0621,0.0455 0.0786,0.0786 0.006,0.0117 0,0.0262 0,0.0393 0,0.0393 -0.0202,0.0842 0,0.11796 0.0243,0.0405 0.0896,0.0408 0.11796,0.0786 0.0157,0.021 -0.006,0.0532 0,0.0786 0.0285,0.11404 0.0307,0.046 0.0786,0.11796 0.0163,0.0244 0.0231,0.0542 0.0393,0.0786 0.0103,0.0154 0.0335,0.0217 0.0393,0.0393 0.008,0.0249 -0.005,0.0529 0,0.0786 0.008,0.0406 0.0293,0.0777 0.0393,0.11796 0.008,0.0333 0,0.11645 0,0.15727 0,0.0917 0,0.18349 0,0.27523 0,0.0262 0,0.0524 0,0.0786 0,0.0131 -0.009,0.03 0,0.0393 0.0207,0.0207 0.0624,0.0149 0.0786,0.0393 0.0145,0.0218 0,0.0524 0,0.0786 0,0.0786 0,0.15727 0,0.23591 0,0.0262 -0.008,0.0538 0,0.0786 0.11138,0.22276 -0.0147,-0.0586 0.0393,0.15727 0.007,0.0284 0.03,0.0508 0.0393,0.0786 0.0126,0.0377 -0.0121,0.16017 0,0.19659 0.006,0.0176 0.0335,0.0217 0.0393,0.0393 0.008,0.0249 -0.004,0.0527 0,0.0786 0.01,0.0661 0.0283,0.13067 0.0393,0.19659 0.007,0.0393 -0.0131,0.0786 0,0.11795 0.006,0.0176 0.029,0.0239 0.0393,0.0393 0.0163,0.0244 0.0284,0.0514 0.0393,0.0786 0.0731,0.0293 0.0232,0.14831 0.0393,0.19659 0.006,0.0176 0.0348,0.0213 0.0393,0.0393 0.01,0.0382 -0.008,0.0794 0,0.11796 -0.0292,0.0728 0.0672,0.0721 0.0786,0.11795 0.009,0.0362 0,0.25339 0,0.31455 0,0.0262 -0.008,0.0538 0,0.0786 0.006,0.0176 0.031,0.0227 0.0393,0.0393 0.0124,0.0247 -0.0124,0.13256 0,0.15727 0.008,0.0166 0.0393,0.0208 0.0393,0.0393 0,0.0414 -0.0262,0.0786 -0.0393,0.11795 z"
       id="path37" />
    <path
       style="fill:white;stroke:#000000;stroke-width:0.264583px;stroke-linecap:butt;stroke-linejoin:miter;stroke-opacity:1"
       d="m 115.47935,144.45938 c -4.38996,0.0104 -9.08593,-1.53294 -13.36833,0.0112 -0.99821,0.35993 -1.91616,1.22852 -2.722967,1.82644 -0.924504,0.68513 -1.61185,0.9011 -2.599709,1.83764 -0.504729,0.47851 -0.896268,1.06943 -1.266237,1.65837 -0.465744,0.74139 -0.898734,1.51008 -1.23262,2.31946 -0.163973,0.3975 -0.202409,0.83847 -0.246525,1.26619 -0.102653,0.99525 -0.04115,1.69769 0.459433,2.6108 0.236543,0.43148 0.702815,0.59387 1.154178,0.59387 0.100574,0 0.248531,-0.0166 0.280144,-0.11205 0.07691,-0.23228 0,-0.48936 0,-0.73404 0.145673,0.47252 0.317382,0.93779 0.43702,1.41756 0.0639,0.25626 0.07335,0.52311 0.112056,0.78436 0.159684,1.07782 0.270987,1.93789 0.212907,3.04781 -0.05185,0.99082 -0.414511,1.94863 -0.504253,2.93575 -0.01569,0.17263 0.03362,0.22571 0.03362,0.38097 0,0.0524 -0.0054,-0.10714 0.0112,-0.15687 0.03787,-0.11362 0.297517,-0.19148 0.392198,-0.19049 0.84387,0.009 1.581642,0.14534 2.420418,-0.0224 0.160308,-0.0321 -0.180942,-0.1133 -0.268935,-0.2241 -0.21192,-0.26685 -0.215846,-0.51355 -0.246524,-0.8628 -0.03142,-0.35767 -0.05311,-0.71665 -0.05603,-1.07569 -8.29e-4,-0.10195 0.02988,-0.2017 0.04482,-0.30254 0.0037,-0.22037 0.01685,-0.44078 0.01121,-0.66111 -0.0255,-0.99441 -0.09494,-1.98907 -0.168085,-2.98057 -0.01486,-0.20145 -0.01259,-0.40417 -0.03362,-0.60508 -8.1e-5,-7.7e-4 -0.133016,-0.5534 -0.112056,-0.61628 0.0037,-0.0112 0.0041,0.0242 0.01121,0.0336 0.01585,0.0211 0.03735,0.0374 0.05603,0.056"
       id="path1" />
    <path
       style="fill:white;stroke:#000000;stroke-width:0.264583px;stroke-linecap:butt;stroke-linejoin:miter;stroke-opacity:1"
       d="m 98.222661,156.60578 c 0.466905,0.25771 1.250016,0.26157 1.40071,0.77314 0.476759,1.6185 -0.133263,3.41253 -0.2017,5.06474 -0.01273,0.30712 0.0924,0.61175 0.07844,0.91882 -0.06002,1.32046 -0.04727,-0.32214 -0.08965,0.69472 -0.02988,0.71716 0.03695,0.004 0,0.33615 -0.0019,0.0157 0.04865,0.0386 0.03362,0.0336 -0.01461,-0.005 -0.03105,-0.004 -0.04482,-0.0112 -0.0067,-0.003 0.02103,0.007 0.02241,0 0.104781,-0.55881 -0.05564,-0.0407 0.04482,-0.2129 0.01855,-0.0318 0.01299,-0.0824 0.04482,-0.10084 0.05688,-0.0329 0.639309,-0.0828 0.717159,-0.0784 0.1804,0.0102 0.35798,0.0503 0.53787,0.0672 0.34657,0.0326 0.69518,0.039 1.04213,0.0672 0.20935,0.017 0.34797,0.0485 0.54908,0.0336 0.0353,-0.003 0.11033,5.3e-4 0.10085,-0.0336 -0.10092,-0.36327 -0.40252,-0.60626 -0.49305,-0.97485 -0.0996,-0.40535 -0.0981,-0.81553 -0.11206,-1.23257 -0.0209,-0.62587 -0.0196,-1.53557 -0.0672,-2.21862 -0.0732,-1.04867 -0.0992,-0.5617 -0.14568,-1.87126 -0.0237,-0.66825 -0.0223,-1.33715 -0.0336,-2.00572 -0.0169,-0.99848 2.2e-4,-0.27425 -0.0336,-1.15413 -0.005,-0.11949 -0.008,-0.23902 -0.0112,-0.35857 -7.9e-4,-0.0336 -0.005,-0.13409 0,-0.10084 0.0162,0.10769 0.0156,0.43234 0.0336,0.32495 0.0289,-0.17279 0,-0.3504 0,-0.5256 2.83761,-0.65875 -0.022,0.0468 2.48761,-0.68453 0.58532,-0.17057 1.16247,-0.27959 1.77049,-0.33615 1.4196,-0.13205 2.77208,0.0544 4.21332,0.2129 0.75387,0.0829 1.87634,0.37038 2.5773,0.62749 0.42548,0.15606 0.84506,0.33368 1.24382,0.54905 0.44189,0.23866 1.4579,1.00813 1.72567,1.40064 0.0524,0.0769 0.17883,1.1521 0.1905,1.24378"
       id="path2" />
    <path
       style="fill:white;stroke:#000000;stroke-width:0.264583px;stroke-linecap:butt;stroke-linejoin:miter;stroke-opacity:1"
       d="m 122.08248,152.84084 c -0.38946,0.32121 -0.85781,0.56564 -1.16839,0.96364 -0.14737,0.18884 -0.0948,0.46969 -0.13447,0.70592 -0.05,0.29798 -0.0882,0.59783 -0.13447,0.89642 -0.30857,1.9924 -0.30884,1.63735 -0.43702,3.9218 -0.0654,1.16565 0.0657,2.32297 0.12327,3.48481 0.0593,1.19721 0.0136,1.12057 0.0896,2.08415 0.0145,0.1834 0.0313,0.36676 0.056,0.54906 0.0164,0.1205 0.0394,0.24019 0.0672,0.35856 0.002,0.0103 0.0165,0.0312 0.0224,0.0224 0.0293,-0.0439 -0.003,-0.10757 -0.0224,-0.15687 -0.0252,-0.0655 -0.0675,-0.12391 -0.0896,-0.19049 -0.0405,-0.12145 -0.10449,-0.52793 -0.12326,-0.61628 -0.10319,-0.48557 -0.0921,-0.52876 -0.21291,-0.96364 -0.0563,-0.20269 -0.12599,-0.40159 -0.17929,-0.60508 -0.38593,-1.47346 0.0125,-0.38999 -0.73958,-2.56598 -0.63642,-1.8415 -0.3527,-0.7319 -1.03091,-2.52117 -0.3685,-0.97216 -0.73499,-1.94602 -1.05333,-2.93575 -0.15013,-0.46672 -0.20806,-1.07257 -0.23532,-1.56872 -0.006,-0.11561 -0.006,-0.23174 0,-0.34736 0.001,-0.0236 0.0194,-0.0907 0.0224,-0.0672 0.0103,0.0796 0,0.16043 0,0.24064 -0.36229,0.26714 -0.89432,0.39455 -1.08688,0.80142 -0.15438,0.32621 -0.019,2.21537 -0.0112,2.72286 0.0296,1.93728 -0.004,1.42487 -0.0336,3.07021 -0.0177,0.97418 -0.0272,1.93428 0.0896,2.90214 0.10257,0.84987 0.0786,0.31053 0.10085,1.23256 0.003,0.12696 0.0193,0.25546 0,0.38098 -0.005,0.0317 -0.032,0.0998 -0.056,0.0784 -0.0375,-0.0333 -0.0533,-0.0863 -0.0672,-0.13446 -0.0424,-0.14714 -0.0619,-0.30011 -0.10085,-0.4482 -0.15391,-0.58484 -0.10944,-0.24528 -0.25773,-0.89642 -0.11402,-0.50068 -0.1885,-1.0096 -0.29134,-1.51269 -0.53691,-2.6264 0.11194,0.58457 -0.73958,-2.92455 -0.10226,-0.42142 -0.1719,-0.8502 -0.24652,-1.27739 -0.0748,-0.42827 -0.13051,-0.8597 -0.2017,-1.28859 -0.0782,-0.47129 -0.18035,-0.93872 -0.24652,-1.41185 -0.009,-0.0633 -0.0394,-0.20696 0.0224,-0.19049 0.64262,0.17136 -0.78903,0.79967 0.66477,-0.0781"
       id="path3" />
    <path
       style="fill:white;stroke:#000000;stroke-width:0.264583px;stroke-linecap:butt;stroke-linejoin:miter;stroke-opacity:1"
       d="m 121.84416,142.86825 c 3.13469,2.10516 5.63763,3.3695 7.7543,6.80153 0.63251,1.02557 0.69239,2.32127 0.82922,3.51841 0.021,0.18376 -0.22178,0.30926 -0.38099,0.40339 -0.83707,0.49489 -2.04262,0.80912 -2.9807,0.82918 -1.60986,0.0344 -2.75295,-0.28598 -4.1685,-0.84038 -0.18086,-0.0708 -0.40722,-0.0804 -0.53788,-0.22411 -0.51043,-0.56145 0.14058,-0.51543 -0.27713,-0.51543"
       id="path4" />
    <path
       style="fill:none;stroke:#000000;stroke-width:0.264583px;stroke-linecap:butt;stroke-linejoin:miter;stroke-opacity:1"
       d="m 115.47935,144.45938 c -0.27901,-1.60766 -0.49686,-3.22608 -0.96368,-4.79581 -0.19933,-0.67026 -0.39452,-1.34657 -0.68355,-1.98331 -0.19229,-0.42363 -0.48752,-0.79297 -0.75077,-1.17654 -0.25998,-0.37881 -0.5504,-0.73587 -0.81802,-1.10932 -0.23295,-0.32508 -0.44813,-0.66273 -0.68354,-0.98605 -2.41221,-3.31302 -0.4721,-0.67093 -1.49035,-1.93849 -0.12863,-0.16012 -0.29634,-0.39643 -0.41461,-0.57146 -0.0348,-0.0515 -0.15416,-0.18886 -0.10085,-0.15688 0.0638,0.0383 0.47202,0.5278 0.48184,0.53785 0.0612,0.0626 0.13788,0.1082 0.20171,0.16808 0.23886,0.22411 0.47574,0.45051 0.70595,0.68351 0.38246,0.38711 0.74014,0.79871 1.13177,1.17654 1.21975,1.1768 1.37496,1.03799 2.62212,2.52117 0.98032,1.16584 1.18695,1.73491 1.93857,2.92454 0.35304,0.55876 0.72826,1.10322 1.08695,1.65836 0.69015,1.06814 0.84328,1.26175 1.34468,2.53237 0.0761,0.19298 0.10018,0.40267 0.14567,0.60508 0.008,0.035 0.23377,0.92044 -0.0784,0.79556"
       id="path5" />
    <path
       style="fill:none;stroke:#000000;stroke-width:0.264583px;stroke-linecap:butt;stroke-linejoin:miter;stroke-opacity:1"
       d="m 116.65594,139.75321 c -0.13073,-1.50896 -0.12551,-3.03593 -0.39219,-4.52688 -0.22873,-1.27876 -0.84442,-2.46631 -1.08695,-3.74253 -0.0267,-0.14045 0.31986,0.0297 0.4034,0.14567 0.72073,1.00078 1.26122,2.12191 1.96099,3.13745 2.24813,3.26256 0.78922,0.45265 2.5885,3.65288 0.1149,0.20436 0.18025,0.43287 0.26894,0.6499 0.22785,0.56026 0.4557,1.12051 0.68354,1.68077 0.10459,0.24651 0.2117,0.49197 0.31376,0.73954 0.0997,0.24175 0.2022,0.48252 0.29135,0.72834 0.0771,0.21251 0.0893,0.43603 0.15688,0.6499 0.0209,0.0661 0.13065,0.31441 0.10085,0.32494 -0.92853,0.32815 -1.90496,0.5005 -2.85744,0.75075"
       id="path6" />
    <path
       style="fill:none;stroke:#000000;stroke-width:0.264583px;stroke-linecap:butt;stroke-linejoin:miter;stroke-opacity:1"
       d="m 122.89749,153.58038 c 0.51919,1.25124 0.82926,2.61148 1.55758,3.75372 0.20131,0.31572 0.85424,0.66837 1.06454,0.35857 0.41479,-0.61106 0.11083,-1.47319 0.19049,-2.20742 0.007,-0.06 0.0448,-0.2241 0.0672,-0.16808 0.16022,0.40055 0.3849,2.34721 0.90765,2.43152 0.0583,0.009 0.12025,-0.0475 0.14568,-0.10084 0.31319,-0.65666 0.28686,-1.44371 0.29134,-2.15139 0.002,-0.33244 -0.008,-0.66484 -0.0112,-0.99726 -9e-5,-0.007 -0.002,-0.0295 0,-0.0224 0.13707,0.41119 0.18427,0.87645 0.30255,1.28859 0.0159,0.0555 0.21136,0.69948 0.36979,0.77316 0.67335,0.31317 0.68575,-2.04837 0.51545,-2.43152 -0.0107,-0.0241 -0.0182,0.053 -0.0112,0.0784 0.046,0.16744 0.0978,0.33425 0.16809,0.49303 0.11693,0.26426 0.26664,0.51287 0.39219,0.77316 0.0419,0.0868 0.0798,0.27394 0.16809,0.23531 0.10173,-0.0445 0.12019,-0.41421 0.12326,-0.4258 0.0572,-0.21581 0.1387,-0.42451 0.2017,-0.63869 0.0304,-0.10342 0.0418,-0.21236 0.0784,-0.31375 0.0127,-0.0351 0.0432,-0.11821 0.0672,-0.0896 0.10958,0.13012 0.27824,0.88204 0.36979,1.07569 0.0412,0.0872 0.15737,0.33111 0.16809,0.23531 0.0718,-0.6422 0.0149,-1.29233 0.0224,-1.93849"
       id="path7" />
    <path
       style="fill:none;stroke:#000000;stroke-width:0.264583px;stroke-linecap:butt;stroke-linejoin:miter;stroke-opacity:1"
       d="m 121.94501,143.19319 c -0.0784,1.37077 -0.58124,2.78358 -0.23532,4.1123 0.1768,0.67911 0.9515,1.21923 1.64723,1.311 1.17385,0.15484 1.44749,-2.34614 0.2129,-2.46513 -0.18604,-0.0179 -0.37613,-0.01 -0.56028,0.0224 -0.57074,0.0993 -0.0438,0.64931 -0.0448,0.6499 -0.25451,0.14733 -0.58816,0 -0.88224,0"
       id="path8" />
    <path
       style="fill:none;stroke:#000000;stroke-width:0.264583px;stroke-linecap:butt;stroke-linejoin:miter;stroke-opacity:1"
       d="m 104.30218,150.32955 c -0.12993,0.0168 -0.25384,0.0772 -0.34724,0.16905 -0.0397,0.039 -0.074,0.0836 -0.10052,0.1325 -0.0626,0.11526 -0.08,0.25273 -0.0568,0.38181 0.0232,0.12908 0.0857,0.24965 0.17103,0.3492 0.0941,0.10966 0.21417,0.19376 0.31527,0.29697 0.19702,0.20113 0.31781,0.48191 0.30155,0.76299 -0.009,0.15543 -0.0583,0.30638 -0.12531,0.44691 -0.067,0.14052 -0.15168,0.27178 -0.23564,0.4029 -0.15274,0.23853 -0.30603,0.48257 -0.38085,0.75575 -0.0374,0.13659 -0.0545,0.27965 -0.0402,0.42055 0.0143,0.14089 0.0607,0.27964 0.14232,0.39537 0.0805,0.11413 0.19466,0.20418 0.3244,0.25586"
       id="path9" />
    <path
       style="fill:none;stroke:#000000;stroke-width:0.264583px;stroke-linecap:butt;stroke-linejoin:miter;stroke-opacity:1"
       d="m 105.97444,150.61282 c -0.12419,-0.004 -0.24943,0.0339 -0.35022,0.10657 -0.10079,0.0727 -0.17651,0.17946 -0.21174,0.29862 -0.0352,0.11916 -0.0298,0.24996 0.0153,0.36576 0.0451,0.1158 0.12945,0.21588 0.23596,0.27988 0.0884,0.0531 0.18918,0.081 0.284,0.12141 0.0474,0.0202 0.0937,0.0438 0.13501,0.0746 0.0413,0.0308 0.0777,0.0691 0.10186,0.11466 0.0418,0.0787 0.0444,0.17338 0.0263,0.26062 -0.0181,0.0872 -0.0553,0.16913 -0.0902,0.25109 -0.17106,0.40113 -0.29364,0.82088 -0.42035,1.23815 -0.0394,0.12979 -0.0793,0.25974 -0.10509,0.39292 -0.0386,0.19982 -0.0448,0.40587 -0.0183,0.60765 0.10525,0.0642 0.18285,0.17218 0.21018,0.29241 0.0153,0.0672 0.0153,0.1379 0,0.20514"
       id="path10" />
    <path
       style="fill:none;stroke:#000000;stroke-width:0.264583px;stroke-linecap:butt;stroke-linejoin:miter;stroke-opacity:1"
       d="m 108.26352,150.91893 c -0.13943,-0.0154 -0.28323,0.0112 -0.4079,0.0755 -0.12468,0.0643 -0.22974,0.16601 -0.29803,0.28855 -0.0683,0.12253 -0.0995,0.26539 -0.0887,0.40524 0.0109,0.13986 0.0639,0.27616 0.15035,0.38663 0.11219,0.14337 0.27336,0.2381 0.42553,0.33802 0.15218,0.0999 0.30473,0.215 0.38319,0.37928 0.066,0.13815 0.0723,0.29957 0.0401,0.44924 -0.0322,0.14967 -0.10069,0.28919 -0.17908,0.4207 -0.0784,0.1315 -0.16718,0.25661 -0.24473,0.38861 -0.0775,0.132 -0.14432,0.27252 -0.17367,0.42278 -0.0278,0.14242 -0.0213,0.28896 -0.0183,0.43404 0.002,0.11469 0.002,0.22942 0,0.34411"
       id="path11" />
    <path
       style="fill:none;stroke:#000000;stroke-width:0.264583px;stroke-linecap:butt;stroke-linejoin:miter;stroke-opacity:1"
       d="m 110.57545,150.78233 c -0.10726,-0.13878 -0.25012,-0.24981 -0.4111,-0.31947 -0.16097,-0.0697 -0.3397,-0.0978 -0.51429,-0.081 -0.17459,0.0168 -0.34467,0.0786 -0.48939,0.17766 -0.14472,0.0991 -0.26378,0.23534 -0.34258,0.39204 -0.0788,0.15671 -0.11718,0.33352 -0.11043,0.50879 0.007,0.17527 0.0586,0.34862 0.14922,0.4988 0.0906,0.15017 0.21979,0.27687 0.3717,0.36455 0.15191,0.0877 0.32623,0.13616 0.5016,0.1395 0.16489,0.003 0.32901,-0.0328 0.49375,-0.0251 0.0824,0.004 0.16511,0.0189 0.23984,0.0538 0.0747,0.0349 0.14116,0.0906 0.18021,0.16323 0.0453,0.0842 0.051,0.18517 0.0352,0.27949 -0.0157,0.0943 -0.0514,0.18397 -0.0855,0.27333 -0.16593,0.43537 -0.29846,0.8834 -0.39751,1.33867 -0.009,0.0412 -0.0176,0.0824 -0.0274,0.12336 -0.13159,0.55229 -0.46629,1.05379 -0.92584,1.38721 -0.45954,0.33341 -1.04014,0.49599 -1.606,0.44972 -0.56587,-0.0463 -1.11234,-0.30102 -1.51161,-0.70466 -0.39928,-0.40364 -0.64806,-0.95285 -0.68818,-1.51918 -0.0401,-0.56634 0.12877,-1.14513 0.46717,-1.60102 0.33839,-0.45589 0.8435,-0.78513 1.39719,-0.9107 0.55369,-0.12557 1.15141,-0.0464 1.65336,0.21886 0.50195,0.26531 0.90401,0.71462 1.11213,1.24285"
       id="path12" />
    <path
       style="fill:none;stroke:#000000;stroke-width:0.264583px;stroke-linecap:butt;stroke-linejoin:miter;stroke-opacity:1"
       d="m 101.32318,147.64766 c -0.61191,0.5922 -1.01468,1.39638 -1.12243,2.24109 -0.10775,0.84471 0.0802,1.72424 0.52389,2.45109 0.10107,0.16559 0.21581,0.32525 0.28328,0.50714 0.10326,0.27838 0.0872,0.58921 0.0145,0.87707 -0.0727,0.28787 -0.19918,0.55873 -0.31605,0.83167 -0.0596,0.13911 -0.11707,0.28006 -0.15007,0.42774 -0.033,0.14768 -0.0407,0.30352 -7e-4,0.44947 0.0577,0.21067 0.21814,0.39059 0.42084,0.47197 0.20271,0.0814 0.44301,0.0624 0.63038,-0.0499"
       id="path13" />
    <path
       style="fill:none;stroke:#000000;stroke-width:0.264583px;stroke-linecap:butt;stroke-linejoin:miter;stroke-opacity:1"
       d="m 110.22363,145.48809 c -0.18515,0.0325 -0.35971,0.12289 -0.49318,0.25528 -0.13347,0.13238 -0.22525,0.3062 -0.2593,0.49108 -0.034,0.18488 -0.0102,0.37999 0.0673,0.55124 0.0776,0.17124 0.20847,0.31786 0.36988,0.41422 0.2209,0.13188 0.4841,0.16601 0.73442,0.22543 0.12515,0.0297 0.24952,0.0667 0.36391,0.12551 0.11439,0.0588 0.219,0.14074 0.29065,0.24758 0.0837,0.12484 0.11847,0.27869 0.11318,0.42891 -0.005,0.15022 -0.0488,0.29722 -0.11085,0.43413 -0.12407,0.27383 -0.32001,0.50859 -0.4638,0.77259 -0.22244,0.4084 -0.31477,0.88641 -0.26043,1.34827"
       id="path14" />
    <path
       style="fill:none;stroke:#000000;stroke-width:0.264583px;stroke-linecap:butt;stroke-linejoin:miter;stroke-opacity:1"
       d="m 112.81884,146.3958 c -0.23498,0.16885 -0.41581,0.41191 -0.50999,0.68551 -0.0942,0.27361 -0.10128,0.57646 -0.02,0.85418 0.0934,0.31925 0.2954,0.59353 0.48842,0.86443 0.19301,0.27091 0.38489,0.55523 0.4528,0.88086 0.0822,0.39443 -0.0272,0.80353 -0.17428,1.17865 -0.14706,0.37512 -0.33359,0.7386 -0.41512,1.13318 -0.0403,0.19518 -0.0541,0.39788 -0.0183,0.59394 0.0219,0.12001 0.0625,0.23696 0.12336,0.34267 0.0194,0.0337 0.0409,0.0663 0.0594,0.10051 0.0726,0.13438 0.0971,0.29416 0.0681,0.44414 -0.029,0.14997 -0.11138,0.28907 -0.22892,0.38664"
       id="path15" />
    <path
       style="fill:none;stroke:#000000;stroke-width:0.264583px;stroke-linecap:butt;stroke-linejoin:miter;stroke-opacity:1"
       d="m 115.0435,148.07779 c -0.39381,0.29144 -0.68396,0.72013 -0.80815,1.19405 -0.12419,0.47392 -0.0816,0.98981 0.11868,1.43693 0.0943,0.21051 0.22133,0.40434 0.33847,0.60304 0.11714,0.1987 0.22587,0.40593 0.27835,0.63054 0.052,0.22245 0.0468,0.45589 0.005,0.68038 -0.0423,0.22449 -0.121,0.4408 -0.21468,0.64915 -0.23863,0.53074 -0.57456,1.01341 -0.8117,1.54482 -0.11858,0.2657 -0.21233,0.54442 -0.2519,0.83267 -0.0396,0.28826 -0.0235,0.587 0.0721,0.8618 0.0578,0.16617 0.14346,0.32098 0.21932,0.47973 0.0827,0.17299 0.15402,0.35138 0.21344,0.53366"
       id="path16" />
    <path
       style="fill:none;stroke:#000000;stroke-width:0.264583px;stroke-linecap:butt;stroke-linejoin:miter;stroke-opacity:1"
       d="m 103.65536,145.35779 c -0.22664,-0.0131 -0.45666,0.0386 -0.65596,0.14727 -0.19931,0.10871 -0.36727,0.27412 -0.479,0.47174 -0.11174,0.19762 -0.16689,0.42682 -0.15728,0.65364 0.01,0.22682 0.0839,0.45053 0.21197,0.638 0.10313,0.15099 0.23839,0.27658 0.36783,0.40573 0.12944,0.12914 0.25604,0.26583 0.3358,0.43037 0.0783,0.16161 0.10783,0.34385 0.10538,0.52343 -0.002,0.17958 -0.0358,0.35739 -0.078,0.53196 -0.16972,0.70214 -0.48507,1.37294 -0.54829,2.09253 -0.0171,0.19436 -0.0154,0.38998 -0.005,0.58481 0.006,0.1141 0.0154,0.22928 0.0503,0.33809 0.0707,0.22066 0.25062,0.40335 0.47015,0.47747 0.21954,0.0741 0.47336,0.0379 0.66336,-0.0948 0.19001,-0.13262 0.31156,-0.35838 0.31767,-0.59001 0.006,-0.23163 -0.10335,-0.46348 -0.28609,-0.60595"
       id="path17" />
    <path
       style="fill:none;stroke:#000000;stroke-width:0.264583px;stroke-linecap:butt;stroke-linejoin:miter;stroke-opacity:1"
       d="m 106.35414,144.07189 c 0.48229,0.36004 0.80217,0.92972 0.85851,1.52893 0.0344,0.3662 -0.0255,0.7369 -0.13707,1.08738 -0.17492,0.54954 -0.4732,1.05094 -0.68993,1.58538 -0.0695,0.17148 -0.13063,0.34624 -0.19189,0.52085 -0.0713,0.20328 -0.14305,0.40697 -0.1919,0.61679 -0.0915,0.39297 -0.10089,0.80487 -0.0274,1.2016"
       id="path18" />
    <path
       style="fill:none;stroke:#000000;stroke-width:0.264583px;stroke-linecap:butt;stroke-linejoin:miter;stroke-opacity:1"
       d="m 96.788342,148.13466 c -0.219221,0.75113 -0.132846,1.58672 0.235389,2.27713 0.197702,0.37067 0.469772,0.69577 0.697659,1.04869 0.227886,0.35292 0.415788,0.75167 0.412615,1.17176 -0.0022,0.28552 -0.09257,0.56295 -0.199417,0.82774 -0.106852,0.26478 -0.231476,0.5236 -0.307747,0.79876 -0.06234,0.22492 -0.09147,0.45762 -0.114223,0.6899 -0.04816,0.4916 -0.06823,0.99205 0.03198,1.47573 0.01874,0.0904 0.04162,0.17995 0.06397,0.26956 0.09157,0.36705 0.174464,0.73621 0.255865,1.10565 0.01083,0.0491 0.0217,0.0985 0.0402,0.14533 0.0185,0.0468 0.04512,0.0913 0.08316,0.12423 0.03796,0.0329 0.08668,0.0531 0.136757,0.0568 0.05008,0.004 0.101237,-0.009 0.143608,-0.0361 0.04237,-0.0269 0.07572,-0.0678 0.09361,-0.11474 0.01789,-0.0469 0.02023,-0.0996 0.0066,-0.14793"
       id="path19" />
    <path
       style="fill:none;stroke:#000000;stroke-width:0.264583px;stroke-linecap:butt;stroke-linejoin:miter;stroke-opacity:1"
       d="m 100.72464,152.33984 c -0.64989,0.0855 -1.244982,0.51267 -1.533806,1.10109 -0.288825,0.58842 -0.262772,1.32052 0.06715,1.88692 0.265582,0.45594 0.705835,0.79801 0.932076,1.2747 0.20059,0.42264 0.21241,0.91247 0.14549,1.37549 -0.0669,0.46301 -0.20774,0.9119 -0.30083,1.37037 -0.04622,0.22762 -0.08028,0.46605 -0.0183,0.6899 0.006,0.0231 0.0138,0.046 0.0222,0.0685"
       id="path20" />
    <path
       style="fill:none;stroke:#000000;stroke-width:0.264583px;stroke-linecap:butt;stroke-linejoin:miter;stroke-opacity:1"
       d="m 99.388053,146.29702 c -0.243316,0.47957 -0.358344,1.0235 -0.330015,1.56052 0.02833,0.53702 0.199943,1.06582 0.492363,1.51713 0.06887,0.10628 0.144277,0.20835 0.209201,0.31709 0.06492,0.10874 0.119649,0.22542 0.142613,0.34996 0.03768,0.20437 -0.01265,0.41563 -0.09039,0.60835 -0.07775,0.19273 -0.182655,0.37353 -0.261421,0.56584 -0.01102,0.0269 -0.02157,0.0542 -0.02756,0.0826 -0.006,0.0284 -0.0073,0.0583 1.4e-4,0.0864 0.008,0.0303 0.02627,0.0578 0.0511,0.0769 0.02482,0.0191 0.05605,0.0297 0.08738,0.0297 0.03133,0 0.06256,-0.0106 0.08738,-0.0297 0.02482,-0.0191 0.04309,-0.0466 0.0511,-0.0769"
       id="path21" />
    <path
       style="fill:none;stroke:#000000;stroke-width:0.264583px;stroke-linecap:butt;stroke-linejoin:miter;stroke-opacity:1"
       d="m 112.74556,144.07189 c 0.29344,-0.0271 0.59622,0.0668 0.82291,0.25509 0.22669,0.18829 0.37451,0.4687 0.40176,0.76213 0.0263,0.28372 -0.0558,0.56724 -0.16935,0.82857 -0.11357,0.26133 -0.25897,0.50801 -0.36979,0.77052 -0.15158,0.35907 -0.23623,0.74227 -0.31527,1.12393 -0.0184,0.089 -0.0367,0.17843 -0.0434,0.26911 -0.007,0.0907 -0.002,0.18319 0.0251,0.27001 0.0273,0.0878 0.0763,0.16721 0.11106,0.25239 0.0174,0.0426 0.0312,0.0869 0.0364,0.13264 0.005,0.0457 0.002,0.0929 -0.015,0.13582 -0.0192,0.0496 -0.0557,0.0922 -0.10181,0.11865 -0.0461,0.0265 -0.1013,0.0366 -0.15377,0.0283 -0.0525,-0.008 -0.10181,-0.0352 -0.13736,-0.0747 -0.0355,-0.0395 -0.057,-0.0914 -0.0599,-0.14443"
       id="path22" />
    <path
       style="fill:none;stroke:#000000;stroke-width:0.264583px;stroke-linecap:butt;stroke-linejoin:miter;stroke-opacity:1"
       d="m 112.64065,151.99261 c -0.14478,-0.21442 -0.37749,-0.36749 -0.63171,-0.41552 -0.25423,-0.048 -0.52675,0.01 -0.73977,0.15641 -0.21302,0.14682 -0.36386,0.38099 -0.40945,0.63567 -0.0456,0.25467 0.0146,0.52662 0.16349,0.73823 0.17909,0.25459 0.46479,0.40763 0.71592,0.59154 0.12557,0.092 0.24538,0.19454 0.33742,0.32005 0.092,0.1255 0.15522,0.27603 0.15745,0.43165 0.002,0.1496 -0.0514,0.29475 -0.11929,0.42807 -0.0679,0.13332 -0.1508,0.25881 -0.21424,0.39431 -0.1412,0.30161 -0.18031,0.63906 -0.22846,0.96859 -0.0121,0.0826 -0.0249,0.16634 -0.0153,0.24929 0.005,0.0415 0.0152,0.0825 0.0335,0.12009 0.0182,0.0376 0.0444,0.0716 0.0778,0.0966 0.0506,0.0379 0.11722,0.0536 0.1794,0.0423 0.0622,-0.0114 0.11898,-0.0496 0.15287,-0.10298"
       id="path23" />
    <path
       style="fill:none;stroke:#000000;stroke-width:0.264583px;stroke-linecap:butt;stroke-linejoin:miter;stroke-opacity:1"
       d="m 114.76067,153.27188 c -0.29356,0.19717 -0.513,0.50206 -0.60675,0.84304 -0.0937,0.34098 -0.061,0.7152 0.0905,1.03474 0.10395,0.21925 0.26232,0.41245 0.45691,0.5574 0.1444,0.19504 0.2227,0.43811 0.21931,0.68076 -0.003,0.22128 -0.0716,0.43615 -0.14825,0.64374 -0.0767,0.20758 -0.16273,0.41346 -0.20357,0.63096 -0.0299,0.15947 -0.035,0.32238 -0.0457,0.48429 -0.0145,0.2194 -0.0394,0.43811 -0.0746,0.65514"
       id="path24" />
    <path
       style="fill:none;stroke:#000000;stroke-width:0.264583px;stroke-linecap:butt;stroke-linejoin:miter;stroke-opacity:1"
       d="m 115.0435,148.07779 c 0.2398,0.1673 0.44142,0.38899 0.58529,0.64354 0.2503,0.44285 0.31862,0.96209 0.38379,1.46659 0.0854,0.66125 0.17367,1.32552 0.15535,1.99201 -0.0165,0.60098 -0.11965,1.19936 -0.096,1.80011 0.01,0.24144 0.0396,0.48236 0.096,0.71731 0.0122,0.0507 0.0255,0.10105 0.0411,0.15077 0.0134,0.0428 0.0283,0.085 0.0411,0.12793 0.0874,0.29425 0.066,0.61953 -0.0593,0.89976 -0.12532,0.28022 -0.35347,0.51307 -0.63107,0.64407 -0.27761,0.13101 -0.60239,0.15909 -0.89836,0.0777 -0.29597,-0.0814 -0.5607,-0.27164 -0.73226,-0.52619 -0.17155,-0.25456 -0.24852,-0.57133 -0.21289,-0.87622 0.0356,-0.30489 0.18355,-0.59539 0.40917,-0.80353 0.22562,-0.20814 0.52707,-0.33222 0.83384,-0.3432 0.30677,-0.011 0.61633,0.0912 0.85625,0.2827"
       id="path25" />
    <path
       style="fill:none;stroke:#000000;stroke-width:0.264583px;stroke-linecap:butt;stroke-linejoin:miter;stroke-opacity:1"
       d="m 116.43563,145.48809 c 0.80921,0.57985 1.40719,1.44809 1.66043,2.41085 0.11384,0.43281 0.15859,0.89708 0.0274,1.32496 -0.12637,0.41217 -0.40506,0.75967 -0.57662,1.15517 -0.0858,0.19775 -0.14487,0.41079 -0.13889,0.62626 0.006,0.21547 0.0821,0.43404 0.23577,0.58522 0.1048,0.10312 0.23909,0.17017 0.37258,0.23179 0.1335,0.0616 0.27031,0.12048 0.38587,0.21138 0.0861,0.0677 0.15919,0.15306 0.20671,0.25173 0.0475,0.0987 0.0687,0.21089 0.0537,0.31938 -0.0119,0.0862 -0.0466,0.16908 -0.0996,0.23806"
       id="path26" />
    <path
       style="fill:none;stroke:#000000;stroke-width:0.264583px;stroke-linecap:butt;stroke-linejoin:miter;stroke-opacity:1"
       d="m 118.66261,152.60483 c 0.1892,-0.0167 0.38417,0.047 0.52711,0.17202 0.14294,0.12507 0.23189,0.30986 0.24049,0.4996 0.005,0.11914 -0.0195,0.23801 -0.0575,0.35105 -0.038,0.11304 -0.089,0.22118 -0.13771,0.33006 -0.0487,0.10887 -0.0954,0.21931 -0.12404,0.33507 -0.0287,0.11577 -0.0389,0.23778 -0.0143,0.35446 0.02,0.0946 0.0624,0.18336 0.11423,0.26499 0.14637,0.23044 0.37255,0.4091 0.63063,0.49813 0.25807,0.089 0.54631,0.0878 0.80362,-0.003"
       id="path27" />
    <path
       style="fill:none;stroke:#000000;stroke-width:0.264583px;stroke-linecap:butt;stroke-linejoin:miter;stroke-opacity:1"
       d="m 95.522107,149.79303 c -0.807392,0.1276 -1.536997,0.67328 -1.887538,1.41172 -0.35054,0.73843 -0.312092,1.64871 0.09947,2.35496 0.235779,0.4046 0.57778,0.73426 0.895527,1.07825 0.04437,0.048 0.08887,0.0972 0.118795,0.15534 0.04829,0.0938 0.0548,0.20465 0.03874,0.30895 -0.01606,0.1043 -0.05326,0.20398 -0.089,0.30327 -0.07838,0.21777 -0.150958,0.43807 -0.246726,0.64877 -0.139798,0.30757 -0.331039,0.60159 -0.374661,0.93661 -0.03191,0.2451 0.02272,0.5044 0.169055,0.7036 0.03998,0.0544 0.08618,0.10393 0.1286,0.15647 0.04242,0.0525 0.08149,0.10897 0.104419,0.17248 0.02618,0.0725 0.03017,0.15174 0.02063,0.22826 -0.0095,0.0765 -0.03219,0.15079 -0.05813,0.22341 -0.05189,0.14522 -0.118214,0.28967 -0.122408,0.44383 -0.0027,0.0979 0.0201,0.19469 0.02741,0.2924 0.0035,0.0461 0.0035,0.0925 0,0.13863"
       id="path28" />
    <path
       style="fill:none;stroke:#000000;stroke-width:0.264583px;stroke-linecap:butt;stroke-linejoin:miter;stroke-opacity:1"
       d="m 94.289485,152.11249 c -0.274426,0.37762 -0.389486,0.86731 -0.311939,1.32763 0.07755,0.46031 0.346695,0.88529 0.729692,1.15215 0.10638,0.0741 0.220705,0.13633 0.326694,0.21101 0.105989,0.0747 0.205186,0.16403 0.267277,0.27785 0.04577,0.0839 0.06981,0.17872 0.07615,0.27407 0.0063,0.0954 -0.0047,0.19134 -0.02595,0.2845 -0.04257,0.18633 -0.125369,0.36051 -0.19641,0.53795 -0.104035,0.25985 -0.183693,0.52945 -0.237588,0.80411 0.01741,0.15934 0.01586,0.32075 -0.0046,0.47973 -0.0164,0.12742 -0.04485,0.25294 -0.06853,0.37921 -0.03578,0.19076 -0.06071,0.38335 -0.08681,0.57567 -0.0095,0.0698 -0.01906,0.14123 -0.0046,0.21017 0.01406,0.0671 0.05032,0.12853 0.0594,0.19646 0.0084,0.0629 -0.0081,0.12874 -0.04508,0.18026 -0.03701,0.0515 -0.09418,0.0882 -0.15645,0.10026 -0.06227,0.0121 -0.128995,-4.5e-4 -0.182611,-0.0344 -0.05362,-0.0339 -0.09356,-0.0888 -0.109314,-0.15026"
       id="path29" />
    <path
       style="fill:none;stroke:#000000;stroke-width:0.264583px;stroke-linecap:butt;stroke-linejoin:miter;stroke-opacity:1"
       d="m 93.634569,151.20475 c 0.006,0.52686 -0.06702,1.05454 -0.215796,1.55999 -0.07905,0.26857 -0.179545,0.53172 -0.23171,0.80678 -0.05216,0.27507 -0.05287,0.56927 0.06266,0.82429 0.0992,0.21898 0.275547,0.39244 0.406643,0.59395 0.172364,0.26495 0.265266,0.58518 0.237588,0.90005 -0.02537,0.28861 -0.147579,0.55824 -0.255865,0.82696 -0.0797,0.19779 -0.152713,0.39832 -0.237588,0.59395 -0.105258,0.24261 -0.228567,0.47721 -0.32897,0.72187 -0.05441,0.13258 -0.10222,0.26872 -0.126909,0.40989 -0.02469,0.14117 -0.02564,0.28812 0.01268,0.42621 0.03617,0.13035 0.105735,0.24849 0.173622,0.3655 0.116465,0.20073 0.23093,0.40487 0.301557,0.62593 0.02159,0.0676 0.03898,0.13644 0.05483,0.2056 0.02093,0.0913 0.03947,0.18403 0.07767,0.26956 0.0275,0.0616 0.06494,0.11858 0.109657,0.16905 0.146863,0.16576 0.375483,0.25532 0.595861,0.23343 0.220378,-0.0219 0.426905,-0.15469 0.53828,-0.34611 0.111375,-0.19142 0.124763,-0.4366 0.03489,-0.639 -0.08987,-0.20241 -0.280708,-0.35691 -0.497392,-0.40267"
       id="path30" />
    <path
       style="fill:none;stroke:#000000;stroke-width:0.264583px;stroke-linecap:butt;stroke-linejoin:miter;stroke-opacity:1"
       d="m 101.59561,154.0408 c 0.18355,-0.0851 0.39818,-0.10094 0.59224,-0.0438 0.19407,0.0571 0.36586,0.18676 0.47405,0.3577 0.10522,0.16626 0.14932,0.36602 0.15096,0.56278 0.002,0.19675 -0.0372,0.39173 -0.0874,0.58196 -0.1005,0.38047 -0.24892,0.76101 -0.21889,1.15338 0.023,0.30071 0.14956,0.58226 0.26957,0.85894 0.0361,0.0832 0.072,0.16724 0.0914,0.25585 0.0354,0.16133 0.0143,0.33082 -0.0331,0.48903 -0.0474,0.15821 -0.12034,0.30734 -0.19079,0.45672 -0.0213,0.0451 -0.0426,0.0914 -0.047,0.14109 -0.002,0.0248 1e-5,0.0502 0.008,0.0737 0.008,0.0235 0.0233,0.0449 0.0436,0.0593 0.0253,0.018 0.0567,0.0243 0.0868,0.032 0.13796,0.0353 0.26551,0.11034 0.36345,0.21372 0.0979,0.10339 0.16595,0.23481 0.19377,0.37448 0.0278,0.13966 0.0154,0.28711 -0.0354,0.42014 -0.0508,0.13302 -0.13991,0.25119 -0.25379,0.3367 -0.11388,0.0855 -0.2522,0.13808 -0.39413,0.14979 -0.14192,0.0117 -0.28699,-0.0175 -0.41335,-0.0831 -0.12636,-0.0657 -0.2336,-0.16765 -0.30556,-0.29054 -0.072,-0.12289 -0.10841,-0.2663 -0.10386,-0.40864"
       id="path31" />
    <path
       style="fill:none;stroke:#000000;stroke-width:0.264583px;stroke-linecap:butt;stroke-linejoin:miter;stroke-opacity:1"
       d="m 104.22451,153.27188 c 0.32186,0.52305 0.3992,1.18986 0.2056,1.7727 -0.0575,0.17294 -0.1377,0.34014 -0.16418,0.52044 -0.0132,0.0901 -0.0125,0.18327 0.0115,0.27115 0.024,0.0879 0.0725,0.17039 0.14364,0.22726 0.0483,0.0386 0.10545,0.0645 0.16292,0.0873 0.0575,0.0229 0.11618,0.0432 0.17062,0.0726 0.1011,0.0545 0.18487,0.13932 0.24233,0.23877 0.0575,0.0994 0.089,0.21311 0.0958,0.32776 0.007,0.11181 -0.01,0.22377 -0.032,0.33353 -0.0722,0.35481 -0.2068,0.6935 -0.30612,1.04169 -0.0246,0.0863 -0.0471,0.17325 -0.0685,0.26042 -0.0412,0.16781 -0.0787,0.34411 -0.0366,0.51171 0.0118,0.047 0.0299,0.0928 0.0571,0.13293 0.0272,0.0401 0.0637,0.0745 0.10739,0.0955 0.0406,0.0195 0.0868,0.0271 0.13144,0.0215 0.0447,-0.006 0.0876,-0.0242 0.12215,-0.0531 0.0345,-0.0289 0.0605,-0.0678 0.0739,-0.11077 0.0134,-0.043 0.0142,-0.0898 0.002,-0.13317 -0.012,-0.0434 -0.0367,-0.0832 -0.0703,-0.11314 -0.0336,-0.03 -0.0759,-0.05 -0.12035,-0.0571 -0.0445,-0.007 -0.0909,-9.7e-4 -0.13207,0.0172 -0.0412,0.0182 -0.0769,0.0484 -0.10172,0.086"
       id="path32" />
    <path
       style="fill:none;stroke:#000000;stroke-width:0.264583px;stroke-linecap:butt;stroke-linejoin:miter;stroke-opacity:1"
       d="m 108.28899,153.66208 c -0.11997,-0.11587 -0.28798,-0.18039 -0.45467,-0.17461 -0.16669,0.006 -0.32983,0.0818 -0.44149,0.20568 -0.11166,0.1239 -0.17034,0.29403 -0.15882,0.46042 0.0115,0.1664 0.0931,0.32681 0.2208,0.43413 0.10216,0.0859 0.22873,0.13656 0.35442,0.18142 0.12569,0.0449 0.25432,0.0859 0.36748,0.15667 0.14386,0.0899 0.25691,0.22562 0.32897,0.37921 0.12933,0.27568 0.12608,0.5981 0.0573,0.89473 -0.0688,0.29663 -0.19878,0.57479 -0.31769,0.85513 -0.09,0.21209 -0.17456,0.42859 -0.21349,0.65565 -0.0389,0.22707 -0.0298,0.46745 0.0627,0.67845 0.0395,0.0902 0.0937,0.17384 0.15992,0.24672"
       id="path33" />
    <path
       style="fill:none;stroke:#000000;stroke-width:0.264583px;stroke-linecap:butt;stroke-linejoin:miter;stroke-opacity:1"
       d="m 111.73913,153.69894 c -0.25995,0.001 -0.51901,0.0816 -0.73399,0.22774 -0.21498,0.14615 -0.38502,0.35747 -0.48177,0.59875 -0.0968,0.24128 -0.11982,0.51154 -0.0654,0.76573 0.0545,0.25419 0.18621,0.49128 0.37331,0.67175 0.0917,0.0885 0.19568,0.16308 0.29269,0.24568 0.097,0.0826 0.18866,0.17533 0.24646,0.28888 0.0553,0.10858 0.0771,0.23235 0.0737,0.35414 -0.003,0.12179 -0.0314,0.24192 -0.0714,0.35701 -0.0799,0.23019 -0.20721,0.4412 -0.2947,0.66863 -0.0972,0.25258 -0.14374,0.53374 -0.0731,0.79498 0.0149,0.055 0.0348,0.10857 0.0594,0.15991"
       id="path34" />
    <path
       style="fill:none;stroke:#000000;stroke-width:0.264583px;stroke-linecap:butt;stroke-linejoin:miter;stroke-opacity:1"
       d="m 127.11077,154.4768 c 0.0392,0.0739 0.1165,0.1262 0.19968,0.13503 0.0832,0.009 0.16976,-0.0261 0.22357,-0.0901 0.0538,-0.064 0.0733,-0.15535 0.0503,-0.23576 -0.023,-0.0804 -0.0879,-0.14758 -0.16741,-0.17343 -0.0345,-0.0112 -0.071,-0.015 -0.10508,-0.0274 -0.0411,-0.0149 -0.0767,-0.0416 -0.11423,-0.064 -0.0757,-0.0452 -0.15998,-0.0733 -0.24216,-0.10508 -0.23152,-0.0895 -0.45008,-0.20989 -0.68078,-0.30154 -0.14646,-0.0582 -0.29741,-0.10463 -0.4432,-0.16448 -0.45309,-0.186 -0.84869,-0.50038 -1.15596,-0.88178 -0.1175,-0.14584 -0.22257,-0.30139 -0.31983,-0.46145 -0.15524,-0.25549 -0.29375,-0.53305 -0.3107,-0.83153 -0.006,-0.0974 0.002,-0.19492 0.005,-0.2924 0.002,-0.0617 0.002,-0.12343 0,-0.18512"
       id="path35" />
    <path
       style="fill:none;stroke:#000000;stroke-width:0.264583px;stroke-linecap:butt;stroke-linejoin:miter;stroke-opacity:1"
       d="m 130.42768,153.18819 c 0.0504,-0.11729 0.0669,-0.24891 0.0471,-0.37502 -0.0198,-0.12611 -0.076,-0.2463 -0.15993,-0.34246 -0.084,-0.0962 -0.19548,-0.16798 -0.31777,-0.20463 -0.12228,-0.0367 -0.25492,-0.038 -0.37794,-0.004 -0.0658,0.0182 -0.13019,0.0474 -0.17819,0.0959 -0.0631,0.0637 -0.0919,0.15586 -0.0926,0.24555 -7.5e-4,0.0897 0.0241,0.17775 0.056,0.26159 0.0463,0.1217 0.11085,0.24138 0.21425,0.3205 0.0517,0.0396 0.1126,0.068 0.177,0.0775 0.0644,0.01 0.13228,-5.5e-4 0.18901,-0.0325 0.031,-0.0174 0.0585,-0.0411 0.0914,-0.0548 0.0274,-0.0114 0.0575,-0.0153 0.0872,-0.0147 0.0297,5.9e-4 0.0591,0.006 0.0882,0.0113 0.0583,0.0114 0.11783,0.0261 0.17626,0.0156 0.0428,-0.008 0.0827,-0.0288 0.11457,-0.0583 0.0319,-0.0295 0.0559,-0.067 0.0713,-0.10764 0.0309,-0.0812 0.0273,-0.17214 0.007,-0.25653 -0.0411,-0.16878 -0.14673,-0.31836 -0.17425,-0.48988 -0.009,-0.056 -0.009,-0.11306 -0.0183,-0.16905 -0.006,-0.039 -0.0171,-0.0784 -0.0411,-0.10965 -0.0224,-0.0292 -0.0553,-0.0495 -0.0908,-0.0592 -0.0355,-0.01 -0.0734,-0.009 -0.1092,-8.1e-4 -0.0717,0.0164 -0.13345,0.0613 -0.18838,0.11019 -0.22805,0.20302 -0.37421,0.49894 -0.3838,0.80412 -0.003,0.086 0.005,0.1727 0.0274,0.25585 0.0562,0.20969 0.20823,0.39164 0.4046,0.4842"
       id="path36" />
  </g>
</svg>
